<svg xmlns="http://www.w3.org/2000/svg" xmlns:xlink="http://www.w3.org/1999/xlink" viewBox="0 0 1080 1080" width="1080" height="1080" preserveAspectRatio="xMidYMid meet" style="width: 100%; height: 100%; transform: translate3d(0px, 0px, 0px); content-visibility: visible;"><defs><clipPath id="__lottie_element_1151"><rect width="1080" height="1080" x="0" y="0"></rect></clipPath></defs><g clip-path="url(#__lottie_element_1151)"><g transform="matrix(1,0,0,1,23.7490234375,130.3740234375)" opacity="1" style="display: block;"><g opacity="1" transform="matrix(1,0,0,1,0,0)"><g opacity="1" transform="matrix(1,0,0,1,404.53900146484375,420.44000244140625)"><g opacity="1" transform="matrix(1,0,0,1,0,0)"><path fill="rgb(35,42,46)" fill-opacity="1" d=" M36.845001220703125,34.47999954223633 C36.845001220703125,45.525001525878906 27.490999221801758,54.47100067138672 15.95199966430664,54.47100067138672 C15.95199966430664,54.47100067138672 -13.298999786376953,54.47100067138672 -13.298999786376953,54.47100067138672 C-24.836999893188477,54.47100067138672 -31.058000564575195,44.47800064086914 -34.19300079345703,34.47999954223633 C-37.32600021362305,24.485000610351562 -38.111000061035156,-19.736000061035156 -34.19300079345703,-34.47700119018555 C-30.275999069213867,-49.220001220703125 -24.836999893188477,-54.47100067138672 -13.298999786376953,-54.47100067138672 C-13.298999786376953,-54.47100067138672 15.95199966430664,-54.47100067138672 15.95199966430664,-54.47100067138672 C27.490999221801758,-54.47100067138672 36.845001220703125,-45.52000045776367 36.845001220703125,-34.47700119018555 C36.845001220703125,-34.47700119018555 36.845001220703125,34.47999954223633 36.845001220703125,34.47999954223633z"></path></g></g></g><g opacity="1" transform="matrix(1,0,0,1,0,0)"><g opacity="1" transform="matrix(1,0,0,1,405.2070007324219,423.5050048828125)"><g opacity="1" transform="matrix(1,0,0,1,0,0)"><path fill="rgb(47,54,56)" fill-opacity="1" d=" M36.16400146484375,-37.55099868774414 C36.16400146484375,-37.55099868774414 36.16400146484375,31.42300033569336 36.16400146484375,31.42300033569336 C36.16400146484375,42.459999084472656 26.81100082397461,51.4109992980957 15.288999557495117,51.4109992980957 C15.288999557495117,51.4109992980957 -13.970999717712402,51.4109992980957 -13.970999717712402,51.4109992980957 C-25.493000030517578,51.4109992980957 -31.738000869750977,41.40399932861328 -34.874000549316406,31.42300033569336 C-35.37200164794922,29.85700035095215 -35.784000396728516,27.433000564575195 -36.16400146484375,24.43600082397461 C-32.55799865722656,30.11199951171875 -27.30900001525879,34.30400085449219 -19.833999633789062,34.30400085449219 C-19.833999633789062,34.30400085449219 9.425999641418457,34.30400085449219 9.425999641418457,34.30400085449219 C20.947999954223633,34.30400085449219 30.299999237060547,25.350000381469727 30.299999237060547,14.312999725341797 C30.299999237060547,14.312999725341797 30.299999237060547,-51.4109992980957 30.299999237060547,-51.4109992980957 C33.93600082397461,-47.81800079345703 36.16400146484375,-42.94300079345703 36.16400146484375,-37.55099868774414z"></path></g></g></g><g opacity="1" transform="matrix(1,0,0,1,384.38800048828125,405.27398681640625)"><g opacity="1" transform="matrix(1,0,0,1,0,0)"><path fill="rgb(84,96,101)" fill-opacity="1" d=" M1.1950000524520874,-33.518001556396484 C-16.808000564575195,-21.013999938964844 -11.74899959564209,11.407999992370605 -9.015000343322754,29.66200065612793 C-7.656000137329102,38.731998443603516 6.4670000076293945,34.861000061035156 5.120999813079834,25.8700008392334 C4.00600004196167,18.426000595092773 3.624000072479248,10.871000289916992 3.562000036239624,3.3529999256134033 C3.510999917984009,-2.7200000286102295 2.6559998989105225,-17.08300018310547 8.593000411987305,-21.208999633789062 C16.21299934387207,-26.499000549316406 8.906000137329102,-38.875999450683594 1.1950000524520874,-33.518001556396484z"></path></g></g></g><g transform="matrix(1,0,0,1,31.74896240234375,129.3740234375)" opacity="1" style="display: block;"><g opacity="1" transform="matrix(1,0,0,1,0.00103759765625,0)"><g opacity="1" transform="matrix(1,0,0,1,644.2150268554688,420.44000244140625)"><g opacity="1" transform="matrix(1,0,0,1,0,0)"><path fill="rgb(47,54,56)" fill-opacity="1" d=" M-36.845001220703125,34.47999954223633 C-36.845001220703125,45.525001525878906 -27.490999221801758,54.47100067138672 -15.95199966430664,54.47100067138672 C-15.95199966430664,54.47100067138672 13.298999786376953,54.47100067138672 13.298999786376953,54.47100067138672 C24.836999893188477,54.47100067138672 31.059999465942383,44.47800064086914 34.19300079345703,34.47999954223633 C37.32600021362305,24.485000610351562 38.111000061035156,-19.736000061035156 34.19300079345703,-34.47700119018555 C30.275999069213867,-49.220001220703125 24.836999893188477,-54.47100067138672 13.298999786376953,-54.47100067138672 C13.298999786376953,-54.47100067138672 -15.95199966430664,-54.47100067138672 -15.95199966430664,-54.47100067138672 C-27.490999221801758,-54.47100067138672 -36.845001220703125,-45.52000045776367 -36.845001220703125,-34.47700119018555 C-36.845001220703125,-34.47700119018555 -36.845001220703125,34.47999954223633 -36.845001220703125,34.47999954223633z"></path></g></g></g><g opacity="1" transform="matrix(1,0,0,1,0,0)"><g opacity="1" transform="matrix(1,0,0,1,644.218017578125,424.375)"><g opacity="1" transform="matrix(1,0,0,1,0,0)"><path fill="rgb(35,42,46)" fill-opacity="1" d=" M34.189998626708984,30.55299949645996 C31.051000595092773,40.534000396728516 24.836999893188477,50.54199981689453 13.28600025177002,50.54199981689453 C13.28600025177002,50.54199981689453 -15.944000244140625,50.54199981689453 -15.944000244140625,50.54199981689453 C-27.4950008392334,50.54199981689453 -36.84700012207031,41.59000015258789 -36.84700012207031,30.55299949645996 C-36.84700012207031,30.55299949645996 -36.84700012207031,27.304000854492188 -36.84700012207031,27.304000854492188 C-33.06700134277344,31.097999572753906 -27.729999542236328,33.433998107910156 -21.80699920654297,33.433998107910156 C-21.80699920654297,33.433998107910156 7.421000003814697,33.433998107910156 7.421000003814697,33.433998107910156 C18.972999572753906,33.433998107910156 25.187999725341797,23.423999786376953 28.32699966430664,13.442999839782715 C31.16900062561035,4.4039998054504395 32.07899856567383,-32.63399887084961 29.322999954223633,-50.54199981689453 C31.257999420166016,-47.52000045776367 32.81100082397461,-43.55799865722656 34.189998626708984,-38.42100143432617 C38.11800003051758,-23.680999755859375 37.32600021362305,20.54599952697754 34.189998626708984,30.55299949645996z"></path></g></g></g><g opacity="1" transform="matrix(1,0,0,1,656.0789794921875,385.36199951171875)"><g opacity="1" transform="matrix(1,0,0,1,0,0)"><path fill="rgb(84,96,101)" fill-opacity="1" d=" M-1.1890000104904175,-15.510000228881836 C-4.447000026702881,-17.77199935913086 -9.335000038146973,-16.075000762939453 -11.217000007629395,-12.949999809265137 C-13.37399959564209,-9.366000175476074 -11.831000328063965,-5.448999881744385 -8.586000442504883,-3.196000099182129 C-4.458000183105469,-0.33000001311302185 -2.572999954223633,4.9120001792907715 -2.444999933242798,9.656999588012695 C-2.1989998817443848,18.832000732421875 12.460000038146973,18.857999801635742 12.213000297546387,9.656999588012695 C11.942000389099121,-0.4830000102519989 7.328999996185303,-9.595999717712402 -1.1890000104904175,-15.510000228881836z"></path></g></g></g><g transform="matrix(1,0,0,1,572,680)" opacity="1" style="display: block;"><g opacity="1" transform="matrix(1,0,0,1,0,0)"><path stroke-linecap="round" stroke-linejoin="round" fill-opacity="0" stroke="rgb(47,54,56)" stroke-opacity="1" stroke-width="30" d=" M-73,143 C-73,143 -76.5,192.5 -76.5,192.5 C-76.5,192.5 -69.16799926757812,252.73300170898438 -69.16799926757812,252.73300170898438 C-69.16799926757812,252.73300170898438 -89,255 -89,255"></path></g></g><g transform="matrix(-1,0,0,1,539,678)" opacity="1" style="display: block;"><g opacity="1" transform="matrix(1,0,0,1,0,0)"><path stroke-linecap="round" stroke-linejoin="round" fill-opacity="0" stroke="rgb(47,54,56)" stroke-opacity="1" stroke-width="30" d=" M-73,143 C-73,143 -76.5,192.5 -76.5,192.5 C-76.5,192.5 -69.16799926757812,252.73300170898438 -69.16799926757812,252.73300170898438 C-69.16799926757812,252.73300170898438 -89,255 -89,255"></path></g></g><g transform="matrix(0.8290375471115112,0.5591928958892822,-0.5591928958892822,0.8290375471115112,586.4356689453125,620.973876953125)" opacity="1" style="display: block;"><g opacity="1" transform="matrix(1,0,0,1,0,0)"><path stroke-linecap="butt" stroke-linejoin="round" fill-opacity="0" stroke="rgb(47,54,56)" stroke-opacity="1" stroke-width="30" d=" M66.59391021728516,8.128373146057129 C66.59391021728516,8.128373146057129 135.50498962402344,42.974029541015625 135.50498962402344,42.974029541015625 C135.50498962402344,42.974029541015625 170.21778869628906,91.46202850341797 170.21778869628906,91.46202850341797"></path></g></g><g transform="matrix(0.06975647062063217,-0.9975640773773193,0.9975640773773193,0.06975647062063217,436.5986328125,561.5257568359375)" opacity="1" style="display: block;"><g opacity="1" transform="matrix(1,0,0,1,1,13)"><path stroke-linecap="round" stroke-linejoin="round" fill-opacity="0" stroke="rgb(47,54,56)" stroke-opacity="1" stroke-width="30" d=" M-236.16383361816406,-5.579936981201172 C-236.16383361816406,-5.579936981201172 -173.11090087890625,-13.293694496154785 -173.11090087890625,-13.293694496154785 C-173.11090087890625,-13.293694496154785 -93.38711547851562,25.66883087158203 -93.38711547851562,25.66883087158203"></path></g></g><g transform="matrix(-0.06975647062063217,0.9975640177726746,-0.9975640177726746,-0.06975647062063217,686.98583984375,757.279541015625)" opacity="1" style="display: block;"><g opacity="1" transform="matrix(1,0,0,1,0,0)"><path fill="rgb(46,54,56)" fill-opacity="1" d=" M-7.660999774932861,-2.562000036239624 C-6.196000099182129,3.8559999465942383 2.627000093460083,9.628999710083008 2.627000093460083,9.628999710083008 C2.627000093460083,9.628999710083008 8.10099983215332,1.8569999933242798 8.10099983215332,1.8569999933242798 C5.210999965667725,-6.13700008392334 -10.95300006866455,-16.98900032043457 -7.660999774932861,-2.562000036239624z"></path></g></g><g transform="matrix(-0.06975647062063217,0.9975640177726746,-0.9975640177726746,-0.06975647062063217,1210.330078125,78.4039306640625)" opacity="1" style="display: block;"><g opacity="1" transform="matrix(1,0,0,1,749.0020141601562,465.9179992675781)"><path fill="rgb(46,54,56)" fill-opacity="1" d=" M-11.081000328063965,7.331999778747559 C-11.081000328063965,7.331999778747559 -3.578000068664551,11.402999877929688 -3.578000068664551,11.402999877929688 C0.09099999815225601,8.65999984741211 14.564000129699707,-4.564000129699707 10.303000450134277,-10.380000114440918 C6.238999843597412,-15.930000305175781 -9.552000045776367,2.7049999237060547 -11.081000328063965,7.331999778747559z"></path></g></g><g transform="matrix(-0.06975647062063217,0.9975640177726746,-0.9975640177726746,-0.06975647062063217,1210.3302001953125,78.403076171875)" opacity="1" style="display: block;"><g opacity="1" transform="matrix(1,0,0,1,765.6519775390625,477.3689880371094)"><path fill="rgb(46,54,56)" fill-opacity="1" d=" M-13.055000305175781,4.065000057220459 C-13.055000305175781,4.065000057220459 -10.119000434875488,9.098999977111816 -10.119000434875488,9.098999977111816 C-6.052000045776367,7.730999946594238 19.527999877929688,-3.634000062942505 11.508999824523926,-8.196999549865723 C4.61299991607666,-12.116999626159668 -10.53499984741211,-2.371000051498413 -13.055000305175781,4.065000057220459z"></path></g></g><g transform="matrix(-0.06975647062063217,0.9975640177726746,-0.9975640177726746,-0.06975647062063217,1211.1024169921875,79.6893310546875)" opacity="1" style="display: block;"><g opacity="1" transform="matrix(1,0,0,1,773.1119995117188,495.8599853515625)"><path fill="rgb(46,54,56)" fill-opacity="1" d=" M-12.675999641418457,-1.190000057220459 C-12.675999641418457,-1.190000057220459 -10.267000198364258,4.948999881744385 -10.267000198364258,4.948999881744385 C-6.150000095367432,6.014999866485596 17.256000518798828,4.21999979019165 11.878000259399414,-2.493000030517578 C8.057999610900879,-7.267000198364258 -7.474999904632568,-5.138999938964844 -12.675999641418457,-1.190000057220459z"></path></g></g><g transform="matrix(-0.06975647062063217,0.9975640177726746,-0.9975640177726746,-0.06975647062063217,1209.258056640625,79.0474853515625)" opacity="1" style="display: block;"><g opacity="1" transform="matrix(1,0,0,1,776.18701171875,512.7969970703125)"><path fill="rgb(46,54,56)" fill-opacity="1" d=" M-11.812999725341797,-5.078000068664551 C-11.812999725341797,-5.078000068664551 -11.246000289916992,2.9630000591278076 -11.246000289916992,2.9630000591278076 C-6.242000102996826,5.117000102996826 1.2319999933242798,5.821000099182129 6.419000148773193,4.15500020980835 C13.982999801635742,1.7239999771118164 13.343999862670898,-2.249000072479248 6.052999973297119,-3.9690001010894775 C2.7899999618530273,-4.734000205993652 -11.812999725341797,-5.078000068664551 -11.812999725341797,-5.078000068664551z"></path></g></g><g transform="matrix(0.8290375471115112,0.5591928958892822,-0.5591928958892822,0.8290375471115112,393.94818115234375,-137.5418701171875)" opacity="1" style="display: block;"><g opacity="1" transform="matrix(0.5,0.8660253882408142,-0.8660253882408142,0.5,737.44970703125,615.0165405273438)"><g opacity="1" transform="matrix(1,0,0,1,0,0)"><path fill="rgb(255,204,17)" fill-opacity="1" d=" M-19.85300064086914,-26.924999237060547 C-10.326000213623047,-33.95399856567383 6.289000034332275,-27.600000381469727 17.259000778198242,-12.720000267028809 C28.218000411987305,2.1489999294281006 29.38800048828125,19.89299964904785 19.85700035095215,26.929000854492188 C10.326000213623047,33.95399856567383 -6.289999961853027,27.589000701904297 -17.253000259399414,12.723999977111816 C-28.222999572753906,-2.1519999504089355 -29.386999130249023,-19.902999877929688 -19.85300064086914,-26.924999237060547z"></path></g></g><g opacity="1" transform="matrix(0.5,0.8660253882408142,-0.8660253882408142,0.5,734.8900146484375,616.4769897460938)"><g opacity="1" transform="matrix(1,0,0,1,0,0)"><path fill="rgb(255,161,10)" fill-opacity="1" d=" M26.29400062561035,9.98900032043457 C26.111000061035156,15.92300033569336 23.996999740600586,20.927000045776367 19.882999420166016,23.966999053955078 C10.348999977111816,31.017000198364258 -6.264999866485596,24.635000228881836 -17.242000579833984,9.765999794006348 C-26.884000778198242,-3.2860000133514404 -28.92300033569336,-18.565000534057617 -22.878000259399414,-26.839000701904297 C-23.176000595092773,-19.048999786376953 -20.09600067138672,-9.630000114440918 -13.868000030517578,-1.1759999990463257 C-2.8910000324249268,13.696000099182129 13.72599983215332,20.076000213623047 23.256999969482422,13.029000282287598 C24.44099998474121,12.178000450134277 25.44300079345703,11.137999534606934 26.29400062561035,9.98900032043457z"></path></g></g><g opacity="1" transform="matrix(0.5,0.8660253882408142,-0.8660253882408142,0.5,748.05126953125,613.7220458984375)"><g opacity="1" transform="matrix(1,0,0,1,0,0)"><path fill="rgb(255,204,17)" fill-opacity="1" d=" M16.160999298095703,11.553000450134277 C12.043999671936035,0.03700000047683716 3.309000015258789,-12.406000137329102 -8.027000427246094,-17.729000091552734 C-14.480999946594238,-20.766000747680664 -20.131000518798828,-11.173999786376953 -13.640999794006348,-8.12600040435791 C-4.9029998779296875,-4.019000053405762 2.2330000400543213,5.560999870300293 5.434999942779541,14.506999969482422 C7.833000183105469,21.21299934387207 18.583999633789062,18.32699966430664 16.160999298095703,11.553000450134277z"></path></g></g></g><g transform="matrix(1,0,0,1,20.75,124.8740234375)" opacity="1" style="display: block;"><g opacity="1" transform="matrix(1,0,0,1,524.3759765625,331.77099609375)"><g opacity="1" transform="matrix(1,0,0,1,0,0)"><path fill="rgb(47,54,56)" fill-opacity="1" d=" M0.0010000000474974513,-35.76100158691406 C-55.70399856567383,-35.76100158691406 -51.30699920654297,2.4570000171661377 -51.30699920654297,35.76100158691406 C-51.30699920654297,35.76100158691406 51.30699920654297,35.76100158691406 51.30699920654297,35.76100158691406 C51.30699920654297,2.4570000171661377 55.70500183105469,-35.76100158691406 0.0010000000474974513,-35.76100158691406z"></path></g></g><g opacity="1" transform="matrix(1,0,0,1,495.1659851074219,328.8919982910156)"><g opacity="1" transform="matrix(1,0,0,1,0,0)"><path fill="rgb(84,96,101)" fill-opacity="1" d=" M5.245999813079834,-26.67300033569336 C-12.012999534606934,-18.295000076293945 -18.73699951171875,4.453999996185303 -15.529999732971191,22.219999313354492 C-13.866999626159668,31.429000854492188 0.13500000536441803,27.516000747680664 -1.5180000066757202,18.354999542236328 C-3.634000062942505,6.633999824523926 1.4270000457763672,-8.711000442504883 12.579000473022461,-14.123000144958496 C21.007999420166016,-18.21500015258789 13.637999534606934,-30.7450008392334 5.245999813079834,-26.67300033569336z"></path></g></g><g opacity="0.5" transform="matrix(1,0,0,1,524.4119873046875,331.9649963378906)"><g opacity="1" transform="matrix(1,0,0,1,0,0)"><path fill="rgb(47,54,56)" fill-opacity="1" d=" M51.26599884033203,35.55799865722656 C51.26599884033203,35.55799865722656 -51.347999572753906,35.55799865722656 -51.347999572753906,35.55799865722656 C-51.347999572753906,35.55799865722656 -51.347999572753906,32.70600128173828 -51.347999572753906,32.70600128173828 C-51.347999572753906,32.70600128173828 36.606998443603516,32.70600128173828 36.606998443603516,32.70600128173828 C36.606998443603516,5.189000129699707 39.597999572753906,-25.690000534057617 9.222999572753906,-35.55799865722656 C55.16600036621094,-31.451000213623047 51.26599884033203,4.2210001945495605 51.26599884033203,35.55799865722656z"></path></g></g></g><g transform="matrix(0.7547096610069275,-0.6560590267181396,0.6560590267181396,0.7547096610069275,425.44378662109375,760.95068359375)" opacity="1" style="display: block;"><g opacity="1" transform="matrix(1,0,0,1,0,0)"><path fill="rgb(46,54,56)" fill-opacity="1" d=" M7.658999919891357,-2.562999963760376 C6.197999954223633,3.8550000190734863 -2.628999948501587,9.628000259399414 -2.628999948501587,9.628000259399414 C-2.628999948501587,9.628000259399414 -8.100000381469727,1.8559999465942383 -8.100000381469727,1.8559999465942383 C-5.210000038146973,-6.138000011444092 10.951000213623047,-16.986000061035156 7.658999919891357,-2.562999963760376z"></path></g></g><g transform="matrix(0.7431448698043823,-0.6691306233406067,0.6691306233406067,0.7431448698043823,-116.656005859375,627.114013671875)" opacity="1" style="display: block;"><g opacity="1" transform="matrix(1,0,0,1,293.37701416015625,465.4930114746094)"><path fill="rgb(46,54,56)" fill-opacity="1" d=" M11.081999778747559,7.329999923706055 C11.081999778747559,7.329999923706055 3.5759999752044678,11.401000022888184 3.5759999752044678,11.401000022888184 C-0.09300000220537186,8.657999992370605 -14.562999725341797,-4.563000202178955 -10.305999755859375,-10.378000259399414 C-6.242000102996826,-15.928000450134277 9.552000045776367,2.703000068664551 11.081999778747559,7.329999923706055z"></path></g></g><g transform="matrix(0.7431448698043823,-0.6691306233406067,0.6691306233406067,0.7431448698043823,-112.108642578125,623.1258544921875)" opacity="1" style="display: block;"><g opacity="1" transform="matrix(1,0,0,1,276.72900390625,476.94500732421875)"><path fill="rgb(46,54,56)" fill-opacity="1" d=" M13.055999755859375,4.063000202178955 C13.055999755859375,4.063000202178955 10.119000434875488,9.100000381469727 10.119000434875488,9.100000381469727 C6.052000045776367,7.729000091552734 -19.52899932861328,-3.634000062942505 -11.508999824523926,-8.199999809265137 C-4.61299991607666,-12.116000175476074 10.53600025177002,-2.369999885559082 13.055999755859375,4.063000202178955z"></path></g></g><g transform="matrix(0.7431448698043823,-0.6691306233406067,0.6691306233406067,0.7431448698043823,-117.833740234375,619.064453125)" opacity="1" style="display: block;"><g opacity="1" transform="matrix(1,0,0,1,269.26800537109375,495.43499755859375)"><path fill="rgb(46,54,56)" fill-opacity="1" d=" M12.675999641418457,-1.1920000314712524 C12.675999641418457,-1.1920000314712524 10.267999649047852,4.949999809265137 10.267999649047852,4.949999809265137 C6.151000022888184,6.015999794006348 -17.257999420166016,4.2179999351501465 -11.876999855041504,-2.494999885559082 C-8.057999610900879,-7.265999794006348 7.473999977111816,-5.140999794006348 12.675999641418457,-1.1920000314712524z"></path></g></g><g transform="matrix(0.7431448698043823,-0.6691306233406067,0.6691306233406067,0.7431448698043823,-117.1495361328125,620.0604858398438)" opacity="1" style="display: block;"><g opacity="1" transform="matrix(1,0,0,1,266.1919860839844,512.3729858398438)"><path fill="rgb(46,54,56)" fill-opacity="1" d=" M11.814000129699707,-5.078000068664551 C11.814000129699707,-5.078000068664551 11.246999740600586,2.9600000381469727 11.246999740600586,2.9600000381469727 C6.238999843597412,5.117000102996826 -1.2309999465942383,5.821000099182129 -6.421999931335449,4.15500020980835 C-13.982000350952148,1.725000023841858 -13.347000122070312,-2.25600004196167 -6.056000232696533,-3.9719998836517334 C-2.7929999828338623,-4.736999988555908 11.814000129699707,-5.078000068664551 11.814000129699707,-5.078000068664551z"></path></g></g><g transform="matrix(0.7431448698043823,-0.6691306233406067,0.6691306233406067,0.7431448698043823,-128.36346435546875,625.69677734375)" opacity="1" style="display: block;"><g opacity="1" transform="matrix(1,0,0,1,301.5710144042969,498.71600341796875)"><g opacity="1" transform="matrix(1,0,0,1,0,0)"><path fill="rgb(255,204,17)" fill-opacity="1" d=" M20.288000106811523,-27.51300048828125 C10.548999786376953,-34.69599914550781 -6.422999858856201,-28.197999954223633 -17.636999130249023,-12.99899959564209 C-28.83300018310547,2.193000078201294 -30.02899932861328,20.327999114990234 -20.290000915527344,27.514999389648438 C-10.550999641418457,34.694000244140625 6.428999900817871,28.195999145507812 17.631999969482422,12.994000434875488 C28.839000701904297,-2.197999954223633 30.027000427246094,-20.336999893188477 20.288000106811523,-27.51300048828125z"></path></g></g><g opacity="1" transform="matrix(1,0,0,1,301.99700927734375,499.6440124511719)"><g opacity="1" transform="matrix(1,0,0,1,0,0)"><path fill="rgb(255,161,10)" fill-opacity="1" d=" M17.187000274658203,12.059000015258789 C5.986999988555908,27.268999099731445 -10.996000289916992,33.75600051879883 -20.71299934387207,26.597999572753906 C-23.5310001373291,24.523000717163086 -25.42300033569336,21.514999389648438 -26.459999084472656,17.92099952697754 C-16.55900001525879,23.29800033569336 -0.796999990940094,16.69700050354004 9.767999649047852,2.3450000286102295 C17.743999481201172,-8.449000358581543 20.67300033569336,-20.722000122070312 18.18899917602539,-29.510000228881836 C18.78499984741211,-29.176000595092773 19.336999893188477,-28.84600067138672 19.857999801635742,-28.437000274658203 C29.611000061035156,-21.27899932861328 28.42300033569336,-3.1080000400543213 17.187000274658203,12.059000015258789z"></path></g></g></g><g transform="matrix(1,0,0,1,552.385009765625,729.6800537109375)" opacity="1" style="display: block;"><g opacity="1" transform="matrix(1,0,0,1,0,0)"><path fill="rgb(255,204,17)" fill-opacity="1" d=" M112.59700012207031,38.375 C110.86699676513672,63.32400131225586 105.85399627685547,84.08300018310547 96.06300354003906,91.44200134277344 C77.41500091552734,105.58399963378906 -85.6520004272461,112.22799682617188 -98.93399810791016,89.50399780273438 C-103.4489974975586,81.74500274658203 -107.697998046875,62.23899841308594 -110.39700317382812,38.856998443603516 C-115.58499908447266,-6.565000057220459 -114.91200256347656,-66.7300033569336 -98.93399810791016,-84.12699890136719 C-98.84600067138672,-84.20999908447266 -98.78600311279297,-84.2969970703125 -98.66899871826172,-84.38500213623047 C-93.56800079345703,-89.77100372314453 -82.98500061035156,-94.07599639892578 -69.23500061035156,-97.30000305175781 C-34.16999816894531,-105.53900146484375 21.327999114990234,-106.6520004272461 58.7400016784668,-100.15299987792969 C77.2969970703125,-96.92900085449219 91.4000015258789,-91.8239974975586 96.35399627685547,-84.80799865722656 C96.52999877929688,-84.58699798583984 96.677001953125,-84.35700225830078 96.822998046875,-84.12699890136719 C107.75900268554688,-66.36100006103516 115.73400115966797,-7.02400016784668 112.59700012207031,38.375z"></path></g></g><g transform="matrix(1,0,0,1,568.0010375976562,656)" opacity="1" style="display: block;"><g opacity="1" transform="matrix(1,0,0,1,0,0)"><path fill="rgb(244,228,209)" fill-opacity="1" d=" M51.8849983215332,29.67099952697754 C37.7400016784668,14.847999572753906 -78.125,17.42799949645996 -88.22799682617188,29.67099952697754 C-98.33100128173828,41.91699981689453 -99.00499725341797,94.76000213623047 -88.22799682617188,107.6500015258789 C-77.4489974975586,120.54000091552734 42.45600128173828,121.8290023803711 51.8849983215332,107.6500015258789 C61.31700134277344,93.47100067138672 66.03199768066406,44.49399948120117 51.8849983215332,29.67099952697754z"></path></g></g><g transform="matrix(1,0,0,1,568.0010375976562,656)" opacity="1" style="display: block;"><g opacity="1" transform="matrix(1,0,0,1,0,0)"><path fill="rgb(47,54,56)" fill-opacity="1" d=" M51.8849983215332,29.67099952697754 C37.7400016784668,14.847999572753906 -78.125,17.42799949645996 -88.22799682617188,29.67099952697754 C-98.33100128173828,41.91699981689453 -99.00499725341797,94.76000213623047 -88.22799682617188,107.6500015258789 C-77.4489974975586,120.54000091552734 42.45600128173828,121.8290023803711 51.8849983215332,107.6500015258789 C61.31700134277344,93.47100067138672 66.03199768066406,44.49399948120117 51.8849983215332,29.67099952697754z M40.03799819946289,101.00700378417969 C32.21699905395508,112.76799774169922 -67.25199890136719,111.697998046875 -76.19300079345703,101.00700378417969 C-85.13400268554688,90.31099700927734 -84.5739974975586,46.47200012207031 -76.19300079345703,36.31800079345703 C-67.81099700927734,26.158000946044922 28.30299949645996,24.020999908447266 40.03799819946289,36.31800079345703 C51.77399826049805,48.61800003051758 47.86199951171875,89.24299621582031 40.03799819946289,101.00700378417969z"></path></g></g><g transform="matrix(1,0,0,1,568.0010375976562,656)" opacity="0.5" style="mix-blend-mode: multiply; display: block;"><g opacity="1" transform="matrix(1,0,0,1,0,0)" style="mix-blend-mode: multiply;"><path fill="rgb(47,54,56)" fill-opacity="1" d=" M55.54999923706055,31.81100082397461 C41.40399932861328,16.988000869750977 -74.45899963378906,19.56800079345703 -84.56199645996094,31.81100082397461 C-94.66699981689453,44.05699920654297 -95.33899688720703,96.9000015258789 -84.56199645996094,109.79000091552734 C-73.78500366210938,122.68000030517578 46.12099838256836,123.96900177001953 55.54999923706055,109.79000091552734 C64.98100280761719,95.61100006103516 69.69599914550781,46.63399887084961 55.54999923706055,31.81100082397461z M43.702999114990234,103.14299774169922 C35.880001068115234,114.90399932861328 -63.5880012512207,113.83399963378906 -72.52799987792969,103.14299774169922 C-81.46900177001953,92.4469985961914 -80.91000366210938,48.61199951171875 -72.52799987792969,38.45500183105469 C-64.14600372314453,28.29800033569336 31.968000411987305,26.158000946044922 43.702999114990234,38.45500183105469 C55.4379997253418,50.755001068115234 51.527000427246094,91.38300323486328 43.702999114990234,103.14299774169922z"></path></g></g><g transform="matrix(1,0,0,1,568.0010375976562,656)" opacity="1" style="display: block;"><g opacity="1" transform="matrix(1,0,0,1,0,0)"><path fill="rgb(47,54,56)" fill-opacity="1" d=" M51.8849983215332,29.67099952697754 C37.7400016784668,14.847999572753906 -78.125,17.42799949645996 -88.22799682617188,29.67099952697754 C-98.33100128173828,41.91699981689453 -99.00499725341797,94.76000213623047 -88.22799682617188,107.6500015258789 C-77.4489974975586,120.54000091552734 42.45600128173828,121.8290023803711 51.8849983215332,107.6500015258789 C61.31700134277344,93.47100067138672 66.03199768066406,44.49399948120117 51.8849983215332,29.67099952697754z M40.03799819946289,101.00700378417969 C32.21699905395508,112.76799774169922 -67.25199890136719,111.697998046875 -76.19300079345703,101.00700378417969 C-85.13400268554688,90.31099700927734 -84.5739974975586,46.47200012207031 -76.19300079345703,36.31800079345703 C-67.81099700927734,26.158000946044922 28.30299949645996,24.020999908447266 40.03799819946289,36.31800079345703 C51.77399826049805,48.61800003051758 47.86199951171875,89.24299621582031 40.03799819946289,101.00700378417969z"></path></g></g><g transform="matrix(1,0,0,1,568.0010375976562,656)" opacity="1" style="mix-blend-mode: screen; display: block;"><g opacity="1" transform="matrix(1,0,0,1,0,0)" style="mix-blend-mode: screen;"><path fill="rgb(244,228,209)" fill-opacity="1" d=" M-46.00299835205078,45.83599853515625 C-66.9739990234375,50.58100128173828 -64.79900360107422,69.39199829101562 -62.47800064086914,86.20099639892578 C-61.731998443603516,91.58999633789062 -70.20700073242188,93.91999816894531 -70.95800018310547,88.4739990234375 C-73.94599914550781,66.86000061035156 -74.73100280761719,43.55699920654297 -48.340999603271484,37.5890007019043 C-42.821998596191406,36.3380012512207 -40.47999954223633,44.58399963378906 -46.00299835205078,45.83599853515625z M33.29499816894531,51.03300094604492 C31.85099983215332,45.702999114990234 23.365999221801758,47.96799850463867 24.815000534057617,53.305999755859375 C27.172000885009766,62.005001068115234 28.28700065612793,72.02999877929688 26.81599998474121,80.9530029296875 C25.02400016784668,91.81700134277344 7.1479997634887695,90.5 -1.0490000247955322,88.91400146484375 C-6.586999893188477,87.84700012207031 -8.947999954223633,96.08799743652344 -3.38700008392334,97.16400146484375 C8.284000396728516,99.41999816894531 26.458999633789062,99.8949966430664 33.499000549316406,88.44599914550781 C39.479000091552734,78.71499633789062 36.0880012512207,61.32899856567383 33.29499816894531,51.03300094604492z"></path></g></g><g transform="matrix(1,0,0,1,455.22601318359375,725.9739990234375)" opacity="1" style="mix-blend-mode: screen; display: block;"><g opacity="1" transform="matrix(1,0,0,1,0,0)" style="mix-blend-mode: screen;"><path fill="rgb(162,205,32)" fill-opacity="1" d=" M-2.01200008392334,-60.018001556396484 C-15.413999557495117,-21.26300048828125 -16.16200065612793,20.94300079345703 -3.4779999256134033,59.9739990234375 C-0.6389999985694885,68.70700073242188 13.513999938964844,64.9749984741211 10.657999992370605,56.18000030517578 C-1.305999994277954,19.371000289916992 -0.5120000243186951,-19.687999725341797 12.12399959564209,-56.2239990234375 C15.145999908447266,-64.96499633789062 0.9860000014305115,-68.68499755859375 -2.01200008392334,-60.018001556396484z"></path></g></g><g transform="matrix(1,0,0,1,552.3909912109375,554.8800048828125)" opacity="1" style="display: block;"><g opacity="1" transform="matrix(1,0,0,1,0,0)"><path fill="rgb(255,204,17)" fill-opacity="1" d=" M118.60199737548828,51.297000885009766 C118.51300048828125,51.86199951171875 118.4540023803711,52.43600082397461 118.36599731445312,53.00600051879883 C115.72799682617188,71.5979995727539 110.6259994506836,86.28399658203125 102.2699966430664,92.27200317382812 C82.39299774169922,106.52999877929688 -91.1989974975586,113.25599670410156 -105.36000061035156,90.3030014038086 C-109.20099639892578,84.05999755859375 -112.83499908447266,70.31500244140625 -115.59100341796875,53.00600051879883 C-115.68099975585938,52.43600082397461 -115.76699829101562,51.86199951171875 -115.85700225830078,51.297000885009766 C-123.06800079345703,4.760000228881836 -123.86000061035156,-65.76100158691406 -105.36000061035156,-84.89199829101562 C-98.93900299072266,-91.50700378417969 -83.86900329589844,-96.58100128173828 -64.60800170898438,-100.00599670410156 C-61.52899932861328,-100.54499816894531 -58.33399963378906,-101.05899810791016 -55.04999923706055,-101.51899719238281 C-23.972999572753906,-105.90699768066406 15.13700008392334,-106.50800323486328 46.88999938964844,-103.14199829101562 C50.055999755859375,-102.83000183105469 53.1619987487793,-102.45899963378906 56.15299987792969,-102.02999877929688 C79.66600036621094,-98.77799987792969 97.78500366210938,-93.10800170898438 103.09200286865234,-84.89199829101562 C115.81600189208984,-65.24700164794922 124.78700256347656,4.644000053405762 118.60199737548828,51.297000885009766z"></path></g></g><g transform="matrix(1,0,0,1,556.8619995117188,563.6570434570312)" opacity="1" style="display: block;"><g opacity="1" transform="matrix(1,0,0,1,0,0)"><path fill="rgb(255,166,14)" fill-opacity="1" d=" M114.13099670410156,42.52000045776367 C114.04199981689453,43.084999084472656 113.98300170898438,43.659000396728516 113.8949966430664,44.229000091552734 C111.25700378417969,62.82099914550781 106.15599822998047,77.50700378417969 97.80000305175781,83.49500274658203 C77.9229965209961,97.75299835205078 -95.66999816894531,104.47799682617188 -109.83100128173828,81.5250015258789 C-112.05899810791016,77.90399932861328 -114.1989974975586,71.8030014038086 -116.13400268554688,63.93299865722656 C-87.78199768066406,82.86499786376953 69.18599700927734,76.10700225830078 88.03900146484375,62.59299850463867 C96.39299774169922,56.60200119018555 101.49500274658203,41.922000885009766 104.13300323486328,23.32699966430664 C104.2229995727539,22.756999969482422 104.27799987792969,22.18899917602539 104.36799621582031,21.615999221801758 C109.26399993896484,-15.369000434875488 104.66000366210938,-66.9520034790039 96.15899658203125,-96.52100372314453 C97.15499877929688,-95.60700225830078 97.9749984741211,-94.66500091552734 98.62100219726562,-93.66899871826172 C111.34500122070312,-74.02400207519531 120.31600189208984,-4.133999824523926 114.13099670410156,42.52000045776367z"></path></g></g><g transform="matrix(1,0,0,1,500.79302978515625,541.7350463867188)" opacity="1" style="display: block;"><g opacity="1" transform="matrix(1,0,0,1,0,0)"><path fill="rgb(55,50,63)" fill-opacity="1" d=" M0.0010000000474974513,-12.831999778747559 C-7.2870001792907715,-12.831999778747559 -13.192999839782715,-7.090000152587891 -13.192999839782715,-0.0010000000474974513 C-13.192999839782715,7.085999965667725 -7.2870001792907715,12.831999778747559 0.0010000000474974513,12.831999778747559 C7.2870001792907715,12.831999778747559 13.192999839782715,7.085999965667725 13.192999839782715,-0.0010000000474974513 C13.192999839782715,-7.090000152587891 7.2870001792907715,-12.831999778747559 0.0010000000474974513,-12.831999778747559z"></path></g></g><g transform="matrix(1,0,0,1,596.81005859375,541.7350463867188)" opacity="1" style="display: block;"><g opacity="1" transform="matrix(1,0,0,1,0,0)"><path fill="rgb(55,50,63)" fill-opacity="1" d=" M13.192999839782715,-0.0010000000474974513 C13.192999839782715,7.085999965667725 7.284999847412109,12.831999778747559 -0.0010000000474974513,12.831999778747559 C-7.2870001792907715,12.831999778747559 -13.192999839782715,7.085999965667725 -13.192999839782715,-0.0010000000474974513 C-13.192999839782715,-7.090000152587891 -7.2870001792907715,-12.831999778747559 -0.0010000000474974513,-12.831999778747559 C7.284999847412109,-12.831999778747559 13.192999839782715,-7.090000152587891 13.192999839782715,-0.0010000000474974513z"></path></g></g><g transform="matrix(1,0,0,1,563,686)" opacity="1" style="display: block;"><g opacity="1" transform="matrix(1,0,0,1,0,0)"><path fill="rgb(255,255,255)" fill-opacity="1" d=" M-62.275001525878906,-138.11599731445312 C-69.48200225830078,-138.11599731445312 -69.48200225830078,-148.98800659179688 -62.275001525878906,-148.98800659179688 C-55.066001892089844,-148.98800659179688 -55.066001892089844,-138.11599731445312 -62.275001525878906,-138.11599731445312z"></path></g></g><g transform="matrix(1,0,0,1,658.5,685.25)" opacity="1" style="display: block;"><g opacity="1" transform="matrix(1,0,0,1,0,0)"><path fill="rgb(255,255,255)" fill-opacity="1" d=" M-62.275001525878906,-138.11599731445312 C-69.48200225830078,-138.11599731445312 -69.48200225830078,-148.98800659179688 -62.275001525878906,-148.98800659179688 C-55.066001892089844,-148.98800659179688 -55.066001892089844,-138.11599731445312 -62.275001525878906,-138.11599731445312z"></path></g></g><g transform="matrix(1,0,0,1,550.634033203125,565.5260009765625)" opacity="1" style="display: block;"><g opacity="1" transform="matrix(1,0,0,1,0,0)"><path fill="rgb(55,50,63)" fill-opacity="1" d=" M0.2070000022649765,10.958999633789062 C-0.4970000088214874,10.958999633789062 -1.1970000267028809,10.934000015258789 -1.8910000324249268,10.894000053405762 C-12.847999572753906,10.234999656677246 -24.72800064086914,4.0229997634887695 -24.920000076293945,-8.060999870300293 C-24.945999145507812,-9.638999938964844 -23.65399932861328,-10.935999870300293 -22.035999298095703,-10.958999633789062 C-20.451000213623047,-10.87399959564209 -19.08099937438965,-9.72700023651123 -19.05699920654297,-8.152000427246094 C-18.922000885009766,0.3540000021457672 -10.156999588012695,4.681000232696533 -1.531000018119812,5.203000068664551 C7.4720001220703125,5.742000102996826 17.760000228881836,2.130000114440918 19.084999084472656,-7.076000213623047 C19.30900001525879,-8.63700008392334 20.799999237060547,-9.73900032043457 22.39299964904785,-9.505999565124512 C23.99799919128418,-9.286999702453613 25.115999221801758,-7.8480000495910645 24.892000198364258,-6.289999961853027 C23.163999557495117,5.745999813079834 11.27299976348877,10.958999633789062 0.2070000022649765,10.958999633789062z"></path></g></g><g transform="matrix(1,0,0,1,454.2170104980469,537.9520263671875)" opacity="1" style="mix-blend-mode: screen; display: block;"><g opacity="1" transform="matrix(1,0,0,1,0,0)" style="mix-blend-mode: screen;"><path fill="rgb(255,161,10)" fill-opacity="1" d=" M-6.0279998779296875,-57.834999084472656 C-12.663000106811523,-34.98899841308594 -13.95199966430664,-11.1899995803833 -14.196999549865723,12.432999610900879 C-14.267999649047852,19.21299934387207 -12.623000144958496,39.39699935913086 -12.017000198364258,45.11600112915039 C-9.536999702453613,68.49800109863281 3.868000030517578,67.197998046875 6.86299991607666,61.064998626708984 C12.430999755859375,49.667999267578125 7.3460001945495605,33.23500061035156 6.47599983215332,21.106000900268555 C4.738999843597412,-3.053999900817871 7.002999782562256,-29.260000228881836 13.762999534606934,-52.52799987792969 C17.367000579833984,-64.94100189208984 -2.434999942779541,-70.19999694824219 -6.0279998779296875,-57.834999084472656z"></path></g></g><g transform="matrix(1,0,0,1,553.7630004882812,633.1780395507812)" opacity="1" style="display: block;"><g opacity="1" transform="matrix(1,0,0,1,0,0)"><path fill="rgb(47,54,56)" fill-opacity="1" d=" M117.22899627685547,-27 C117.13899993896484,-26.434999465942383 117.08200073242188,-25.86199951171875 116.99400329589844,-25.29199981689453 C114.35600280761719,-6.699999809265137 109.25399780273438,7.986000061035156 100.89800262451172,13.973999977111816 C81.02100372314453,28.23200035095215 -92.5719985961914,34.95800018310547 -106.73300170898438,12.005000114440918 C-110.5739974975586,5.76200008392334 -114.20800018310547,-7.982999801635742 -116.96399688720703,-25.29199981689453 C-117.05400085449219,-25.86199951171875 -117.13899993896484,-26.434999465942383 -117.22899627685547,-27 C-75.76300048828125,-2.177999973297119 67.23699951171875,-1.1779999732971191 117.22899627685547,-27z"></path></g></g><g transform="matrix(1,0,0,1,459.3170166015625,627.5970458984375)" opacity="1" style="mix-blend-mode: screen; display: block;"><g opacity="1" transform="matrix(1,0,0,1,0,0)" style="mix-blend-mode: screen;"><path fill="rgb(47,54,56)" fill-opacity="1" d=" M5.109000205993652,-4.980999946594238 C3.760999917984009,-6.561999797821045 1.7630000114440918,-7.603000164031982 -0.48899999260902405,-7.603000164031982 C-4.4679999351501465,-7.603000164031982 -7.8420000076293945,-4.361999988555908 -7.817999839782715,-0.4740000069141388 C-7.789999961853027,4.248000144958496 -4.368000030517578,7.578000068664551 0.48899999260902405,7.603000164031982 C4.485000133514404,7.625999927520752 7.817999839782715,4.3420000076293945 7.817999839782715,0.4740000069141388 C7.817999839782715,-1.722000002861023 6.742000102996826,-3.6700000762939453 5.109000205993652,-4.980999946594238z"></path></g></g><g transform="matrix(1,0,0,1,459.3170166015625,627.5970458984375)" opacity="1" style="mix-blend-mode: screen; display: none;"><g opacity="1" transform="matrix(1,0,0,1,0,0)" style="mix-blend-mode: screen;"><path fill="rgb(47,54,56)" fill-opacity="1" d=" M5.109000205993652,-4.980999946594238 C3.760999917984009,-6.561999797821045 1.7630000114440918,-7.603000164031982 -0.48899999260902405,-7.603000164031982 C-4.4679999351501465,-7.603000164031982 -7.8420000076293945,-4.361999988555908 -7.817999839782715,-0.4740000069141388 C-7.789999961853027,4.248000144958496 -4.368000030517578,7.578000068664551 0.48899999260902405,7.603000164031982 C4.485000133514404,7.625999927520752 7.817999839782715,4.3420000076293945 7.817999839782715,0.4740000069141388 C7.817999839782715,-1.722000002861023 6.742000102996826,-3.6700000762939453 5.109000205993652,-4.980999946594238z"></path></g></g><g transform="matrix(1,0,0,1,459.3170166015625,627.5970458984375)" opacity="1" style="mix-blend-mode: screen; display: none;"><g opacity="1" transform="matrix(1,0,0,1,0,0)" style="mix-blend-mode: screen;"><path fill="rgb(47,54,56)" fill-opacity="1" d=" M5.109000205993652,-4.980999946594238 C3.760999917984009,-6.561999797821045 1.7630000114440918,-7.603000164031982 -0.48899999260902405,-7.603000164031982 C-4.4679999351501465,-7.603000164031982 -7.8420000076293945,-4.361999988555908 -7.817999839782715,-0.4740000069141388 C-7.789999961853027,4.248000144958496 -4.368000030517578,7.578000068664551 0.48899999260902405,7.603000164031982 C4.485000133514404,7.625999927520752 7.817999839782715,4.3420000076293945 7.817999839782715,0.4740000069141388 C7.817999839782715,-1.722000002861023 6.742000102996826,-3.6700000762939453 5.109000205993652,-4.980999946594238z"></path></g></g><g transform="matrix(1,0,0,1,459.3170166015625,627.5970458984375)" opacity="1" style="mix-blend-mode: screen; display: none;"><g opacity="1" transform="matrix(1,0,0,1,0,0)" style="mix-blend-mode: screen;"><path fill="rgb(47,54,56)" fill-opacity="1" d=" M5.109000205993652,-4.980999946594238 C3.760999917984009,-6.561999797821045 1.7630000114440918,-7.603000164031982 -0.48899999260902405,-7.603000164031982 C-4.4679999351501465,-7.603000164031982 -7.8420000076293945,-4.361999988555908 -7.817999839782715,-0.4740000069141388 C-7.789999961853027,4.248000144958496 -4.368000030517578,7.578000068664551 0.48899999260902405,7.603000164031982 C4.485000133514404,7.625999927520752 7.817999839782715,4.3420000076293945 7.817999839782715,0.4740000069141388 C7.817999839782715,-1.722000002861023 6.742000102996826,-3.6700000762939453 5.109000205993652,-4.980999946594238z"></path></g></g><g transform="matrix(1,0,0,1,459.3170166015625,627.5970458984375)" opacity="1" style="mix-blend-mode: screen; display: none;"><g opacity="1" transform="matrix(1,0,0,1,0,0)" style="mix-blend-mode: screen;"><path fill="rgb(47,54,56)" fill-opacity="1" d=" M5.109000205993652,-4.980999946594238 C3.760999917984009,-6.561999797821045 1.7630000114440918,-7.603000164031982 -0.48899999260902405,-7.603000164031982 C-4.4679999351501465,-7.603000164031982 -7.8420000076293945,-4.361999988555908 -7.817999839782715,-0.4740000069141388 C-7.789999961853027,4.248000144958496 -4.368000030517578,7.578000068664551 0.48899999260902405,7.603000164031982 C4.485000133514404,7.625999927520752 7.817999839782715,4.3420000076293945 7.817999839782715,0.4740000069141388 C7.817999839782715,-1.722000002861023 6.742000102996826,-3.6700000762939453 5.109000205993652,-4.980999946594238z"></path></g></g><g transform="matrix(1,0,0,1,459.3170166015625,627.5970458984375)" opacity="1" style="mix-blend-mode: screen; display: none;"><g opacity="1" transform="matrix(1,0,0,1,0,0)" style="mix-blend-mode: screen;"><path fill="rgb(47,54,56)" fill-opacity="1" d=" M5.109000205993652,-4.980999946594238 C3.760999917984009,-6.561999797821045 1.7630000114440918,-7.603000164031982 -0.48899999260902405,-7.603000164031982 C-4.4679999351501465,-7.603000164031982 -7.8420000076293945,-4.361999988555908 -7.817999839782715,-0.4740000069141388 C-7.789999961853027,4.248000144958496 -4.368000030517578,7.578000068664551 0.48899999260902405,7.603000164031982 C4.485000133514404,7.625999927520752 7.817999839782715,4.3420000076293945 7.817999839782715,0.4740000069141388 C7.817999839782715,-1.722000002861023 6.742000102996826,-3.6700000762939453 5.109000205993652,-4.980999946594238z"></path></g></g><g transform="matrix(0.3100000023841858,0,0,0.3100000023841858,554,724)" opacity="1" style="display: block;"><g opacity="1" transform="matrix(0.713250458240509,0.7009092569351196,-0.7009092569351196,0.713250458240509,0,0)"><path stroke-linecap="round" stroke-linejoin="miter" fill-opacity="0" stroke-miterlimit="4" stroke="rgb(245,59,59)" stroke-opacity="1" stroke-width="50" d=" M-41.2562255859375,41.61256790161133 C-41.2562255859375,41.61256790161133 42.2562255859375,-39.11256790161133 42.2562255859375,-39.11256790161133"></path></g><g opacity="1" transform="matrix(0.713250458240509,0.7009092569351196,-0.7009092569351196,0.713250458240509,0,0)"><path stroke-linecap="round" stroke-linejoin="miter" fill-opacity="0" stroke-miterlimit="4" stroke="rgb(245,59,63)" stroke-opacity="1" stroke-width="50" d=" M-40.89937210083008,41.976036071777344 C-40.89937210083008,41.976036071777344 41.89937210083008,-39.476036071777344 41.89937210083008,-39.476036071777344"></path></g></g></g></svg>