<svg xmlns="http://www.w3.org/2000/svg" xmlns:xlink="http://www.w3.org/1999/xlink" viewBox="0 0 1920 1080" width="1920" height="1080" preserveAspectRatio="xMidYMid meet" style="width: 100%; height: 100%; transform: translate3d(0px, 0px, 0px); content-visibility: visible;"><defs><clipPath id="__lottie_element_191"><rect width="1920" height="1080" x="0" y="0"></rect></clipPath></defs><g clip-path="url(#__lottie_element_191)"><g transform="matrix(0.054562076926231384,0,0,0.054562076926231384,933.1364135742188,493.56072998046875)" opacity="1" style="display: block;"><g opacity="1" transform="matrix(1,0,0,1,912.530029296875,554.10498046875)"><path fill="rgb(245,247,252)" fill-opacity="1" d=" M-755.593994140625,533.4429931640625 C-755.593994140625,533.4429931640625 -912.280029296875,428.4129943847656 -793.2650146484375,278.0710144042969 C-674.2520141601562,127.72899627685547 -688.5830078125,74.92500305175781 -796.7440185546875,-79.78399658203125 C-904.906005859375,-234.4929962158203 -799.9840087890625,-347.6109924316406 -638.5659790039062,-332.52899169921875 C-477.14801025390625,-317.4460144042969 -400.4739990234375,-438.1059875488281 -287.48199462890625,-494.6650085449219 C-174.49000549316406,-551.2239990234375 -35.875999450683594,-553.85498046875 112.73200225830078,-448.8479919433594 C261.3389892578125,-343.84100341796875 515.5709838867188,-498.4360046386719 640.6690063476562,-415.48199462890625 C765.7689819335938,-332.52899169921875 648.0139770507812,-216.01600646972656 627.4520263671875,-142.47500610351562 C606.8920288085938,-68.93499755859375 641.5859985351562,20.525999069213867 745.4739990234375,112.76100158691406 C912.280029296875,260.8599853515625 761.7329711914062,531.8610229492188 761.7329711914062,531.8610229492188 C761.7329711914062,531.8610229492188 -755.593994140625,533.4429931640625 -755.593994140625,533.4429931640625z"></path></g></g><g transform="matrix(1,0,0,1,1426.2159423828125,340.6349792480469)" opacity="1" style="display: none;"><g opacity="1" transform="matrix(1,0,0,1,137.9459991455078,128.91000366210938)"><path fill="rgb(5,66,94)" fill-opacity="1" d=" M137.69700622558594,-128.66000366210938 C137.69700622558594,-128.66000366210938 -137.69700622558594,-28.01799964904785 -137.69700622558594,-28.01799964904785 C-137.69700622558594,-28.01799964904785 -14.1899995803833,13.258000373840332 -14.1899995803833,13.258000373840332 C-14.1899995803833,13.258000373840332 29.986000061035156,128.66000366210938 29.986000061035156,128.66000366210938 C29.986000061035156,128.66000366210938 137.69700622558594,-128.66000366210938 137.69700622558594,-128.66000366210938z"></path></g></g><g transform="matrix(1,0,0,1,392.8489990234375,461.0830078125)" opacity="1" style="display: none;"><g opacity="1" transform="matrix(1,0,0,1,590.1799926757812,303.0830078125)"><path fill="rgb(5,66,94)" fill-opacity="1" d=" M589.9299926757812,-259.89599609375 C589.9299926757812,-259.89599609375 579.06201171875,-249.74000549316406 579.06201171875,-249.74000549316406 C579.06201171875,-249.74000549316406 413.95001220703125,-95.46299743652344 413.95001220703125,-95.46299743652344 C413.95001220703125,-95.46299743652344 206.46299743652344,-95.46299743652344 206.46299743652344,-95.46299743652344 C206.46299743652344,-95.46299743652344 28.599000930786133,70.7040023803711 28.599000930786133,70.7040023803711 C28.599000930786133,70.7040023803711 -249.59100341796875,70.7040023803711 -249.59100341796875,70.7040023803711 C-249.59100341796875,70.7040023803711 -498.0260009765625,302.8330078125 -498.0260009765625,302.8330078125 C-498.0260009765625,302.8330078125 -589.9299926757812,302.8330078125 -589.9299926757812,302.8330078125 C-589.9299926757812,302.8330078125 -276.4960021972656,9.993000030517578 -276.4960021972656,9.993000030517578 C-276.4960021972656,9.993000030517578 1.6670000553131104,9.993000030517578 1.6670000553131104,9.993000030517578 C1.6670000553131104,9.993000030517578 179.5330047607422,-156.19900512695312 179.5330047607422,-156.19900512695312 C179.5330047607422,-156.19900512695312 387.01800537109375,-156.19900512695312 387.01800537109375,-156.19900512695312 C387.01800537109375,-156.19900512695312 533.1090087890625,-292.677001953125 533.1090087890625,-292.677001953125 C533.1090087890625,-292.677001953125 543.97802734375,-302.8330078125 543.97802734375,-302.8330078125 C543.97802734375,-302.8330078125 566.9539794921875,-281.364013671875 566.9539794921875,-281.364013671875 C566.9539794921875,-281.364013671875 589.9299926757812,-259.89599609375 589.9299926757812,-259.89599609375z"></path></g></g><g transform="matrix(0,0,0,0,974.5,439.2139892578125)" opacity="1" style="display: block;"><g opacity="1" transform="matrix(1,0,0,1,453.260986328125,284.37200927734375)"><path fill="rgb(255,255,255)" fill-opacity="1" d=" M403.0429992675781,271.87200927734375 C403.0429992675781,271.87200927734375 -403.0429992675781,271.87200927734375 -403.0429992675781,271.87200927734375 C-423.8739929199219,271.87200927734375 -440.760986328125,256.093994140625 -440.760986328125,236.6300048828125 C-440.760986328125,236.6300048828125 -440.760986328125,-236.62899780273438 -440.760986328125,-236.62899780273438 C-440.760986328125,-256.0929870605469 -423.8739929199219,-271.87200927734375 -403.0429992675781,-271.87200927734375 C-403.0429992675781,-271.87200927734375 403.0429992675781,-271.87200927734375 403.0429992675781,-271.87200927734375 C423.8739929199219,-271.87200927734375 440.760986328125,-256.0929870605469 440.760986328125,-236.62899780273438 C440.760986328125,-236.62899780273438 440.760986328125,236.6300048828125 440.760986328125,236.6300048828125 C440.760986328125,256.093994140625 423.8739929199219,271.87200927734375 403.0429992675781,271.87200927734375z"></path><path stroke-linecap="butt" stroke-linejoin="miter" fill-opacity="0" stroke-miterlimit="10" stroke="rgb(5,66,94)" stroke-opacity="1" stroke-width="5" d=" M403.0429992675781,271.87200927734375 C403.0429992675781,271.87200927734375 -403.0429992675781,271.87200927734375 -403.0429992675781,271.87200927734375 C-423.8739929199219,271.87200927734375 -440.760986328125,256.093994140625 -440.760986328125,236.6300048828125 C-440.760986328125,236.6300048828125 -440.760986328125,-236.62899780273438 -440.760986328125,-236.62899780273438 C-440.760986328125,-256.0929870605469 -423.8739929199219,-271.87200927734375 -403.0429992675781,-271.87200927734375 C-403.0429992675781,-271.87200927734375 403.0429992675781,-271.87200927734375 403.0429992675781,-271.87200927734375 C423.8739929199219,-271.87200927734375 440.760986328125,-256.0929870605469 440.760986328125,-236.62899780273438 C440.760986328125,-236.62899780273438 440.760986328125,236.6300048828125 440.760986328125,236.6300048828125 C440.760986328125,256.093994140625 423.8739929199219,271.87200927734375 403.0429992675781,271.87200927734375z"></path></g></g><g transform="matrix(1,0,0,1,647.5239868164062,393.44500732421875)" opacity="1" style="display: none;"><g opacity="1" transform="matrix(0.6329158544540405,0.25703510642051697,-0.5242505669593811,1.367084264755249,366.406005859375,13.213000297546387)"><path stroke-linecap="butt" stroke-linejoin="miter" fill-opacity="0" stroke-miterlimit="10" stroke="rgb(5,66,94)" stroke-opacity="1" stroke-width="2.398" d=" M-360.4110107421875,104.21800231933594 C-300.34698486328125,104.21800231933594 -300.34698486328125,28.69700050354004 -240.2830047607422,28.69700050354004 C-180.23500061035156,28.69700050354004 -180.23500061035156,-32.22200012207031 -120.18699645996094,-32.22200012207031 C-60.11899948120117,-32.22200012207031 -60.119998931884766,69.47899627685547 -0.050999999046325684,69.47899627685547 C60.02000045776367,69.47899627685547 60.020999908447266,-69.47899627685547 120.09200286865234,-69.47899627685547 C180.1719970703125,-69.47899627685547 180.1719970703125,36.25 240.2530059814453,36.25 C300.3330078125,36.25 300.3320007324219,-104.21800231933594 360.4110107421875,-104.21800231933594"></path></g></g><g transform="matrix(0,0,0,0,398.9200134277344,363.7099914550781)" opacity="1" style="display: block;"><g opacity="1" transform="matrix(1,0,0,1,63.236000061035156,67.56700134277344)"><path fill="rgb(255,255,255)" fill-opacity="1" d=" M50.44599914550781,62.84600067138672 C50.44599914550781,62.84600067138672 -50.44599914550781,62.84600067138672 -50.44599914550781,62.84600067138672 C-54.90399932861328,62.84600067138672 -58.51599884033203,59.47100067138672 -58.51599884033203,55.30500030517578 C-58.51599884033203,55.30500030517578 -58.51599884033203,-55.30500030517578 -58.51599884033203,-55.30500030517578 C-58.51599884033203,-59.470001220703125 -54.90399932861328,-62.84600067138672 -50.44599914550781,-62.84600067138672 C-50.44599914550781,-62.84600067138672 50.44599914550781,-62.84600067138672 50.44599914550781,-62.84600067138672 C54.90399932861328,-62.84600067138672 58.51599884033203,-59.470001220703125 58.51599884033203,-55.30500030517578 C58.51599884033203,-55.30500030517578 58.51599884033203,55.30500030517578 58.51599884033203,55.30500030517578 C58.51599884033203,59.47100067138672 54.90399932861328,62.84600067138672 50.44599914550781,62.84600067138672z"></path><path stroke-linecap="butt" stroke-linejoin="miter" fill-opacity="0" stroke-miterlimit="10" stroke="rgb(5,66,94)" stroke-opacity="1" stroke-width="1.888" d=" M50.44599914550781,62.84600067138672 C50.44599914550781,62.84600067138672 -50.44599914550781,62.84600067138672 -50.44599914550781,62.84600067138672 C-54.90399932861328,62.84600067138672 -58.51599884033203,59.47100067138672 -58.51599884033203,55.30500030517578 C-58.51599884033203,55.30500030517578 -58.51599884033203,-55.30500030517578 -58.51599884033203,-55.30500030517578 C-58.51599884033203,-59.470001220703125 -54.90399932861328,-62.84600067138672 -50.44599914550781,-62.84600067138672 C-50.44599914550781,-62.84600067138672 50.44599914550781,-62.84600067138672 50.44599914550781,-62.84600067138672 C54.90399932861328,-62.84600067138672 58.51599884033203,-59.470001220703125 58.51599884033203,-55.30500030517578 C58.51599884033203,-55.30500030517578 58.51599884033203,55.30500030517578 58.51599884033203,55.30500030517578 C58.51599884033203,59.47100067138672 54.90399932861328,62.84600067138672 50.44599914550781,62.84600067138672z"></path></g></g><g transform="matrix(0,0,0,0,398.91900634765625,359.8370056152344)" opacity="1" style="display: block;"><g opacity="1" transform="matrix(1,0,0,1,46.77000045776367,44.35599899291992)"><path stroke-linecap="butt" stroke-linejoin="miter" fill-opacity="0" stroke-miterlimit="10" stroke="rgb(5,66,94)" stroke-opacity="1" stroke-width="4" d=" M36.77000045776367,0 C36.77000045776367,-18.974000930786133 20.30699920654297,-34.35599899291992 0,-34.35599899291992 C-20.30699920654297,-34.35599899291992 -36.77000045776367,-18.974000930786133 -36.77000045776367,0 C-36.77000045776367,18.975000381469727 -20.30699920654297,34.35599899291992 0,34.35599899291992 C20.30699920654297,34.35599899291992 36.77000045776367,18.975000381469727 36.77000045776367,0z"></path></g><g opacity="1" transform="matrix(1,0,0,1,46.77000045776367,44.35599899291992)"><path stroke-linecap="butt" stroke-linejoin="miter" fill-opacity="0" stroke-miterlimit="10" stroke="rgb(5,66,94)" stroke-opacity="1" stroke-width="4" d=" M16.14299964904785,0 C16.14299964904785,-8.329999923706055 8.913999557495117,-15.083000183105469 -0.0010000000474974513,-15.083000183105469 C-8.916000366210938,-15.083000183105469 -16.14299964904785,-8.329999923706055 -16.14299964904785,0 C-16.14299964904785,8.331000328063965 -8.916000366210938,15.083000183105469 -0.0010000000474974513,15.083000183105469 C8.913999557495117,15.083000183105469 16.14299964904785,8.331000328063965 16.14299964904785,0z"></path></g><g opacity="1" transform="matrix(1,0,0,1,0,0)"><path stroke-linecap="round" stroke-linejoin="miter" fill-opacity="0" stroke-miterlimit="10" stroke="rgb(5,66,94)" stroke-opacity="1" stroke-width="1.843" d=" M10,96.80599975585938 C10,96.80599975585938 42.12099838256836,96.80599975585938 42.12099838256836,96.80599975585938"></path></g><g opacity="1" transform="matrix(1,0,0,1,0,0)"><path stroke-linecap="round" stroke-linejoin="miter" fill-opacity="0" stroke-miterlimit="10" stroke="rgb(5,66,94)" stroke-opacity="1" stroke-width="1.843" d=" M51.417999267578125,96.80599975585938 C51.417999267578125,96.80599975585938 83.53900146484375,96.80599975585938 83.53900146484375,96.80599975585938"></path></g></g><g transform="matrix(1,0,0,0,1111.1590576171875,219.21400451660156)" opacity="1" style="display: block;"><g opacity="1" transform="matrix(1,0,0,1,44.88100051879883,84.99199676513672)"><path fill="rgb(5,66,94)" fill-opacity="1" d=" M25.53700065612793,31.219999313354492 C25.53700065612793,31.219999313354492 -25.53700065612793,31.219999313354492 -25.53700065612793,31.219999313354492 C-25.53700065612793,31.219999313354492 -25.53700065612793,-31.219999313354492 -25.53700065612793,-31.219999313354492 C-25.53700065612793,-31.219999313354492 25.53700065612793,-31.219999313354492 25.53700065612793,-31.219999313354492 C25.53700065612793,-31.219999313354492 25.53700065612793,31.219999313354492 25.53700065612793,31.219999313354492z"></path></g><g opacity="1" transform="matrix(1,0,0,1,44.880001068115234,27.01099967956543)"><path fill="rgb(5,66,94)" fill-opacity="1" d=" M0.0010000000474974513,-26.76099967956543 C0.0010000000474974513,-26.76099967956543 -44.630001068115234,26.76099967956543 -44.630001068115234,26.76099967956543 C-44.630001068115234,26.76099967956543 44.630001068115234,26.76099967956543 44.630001068115234,26.76099967956543 C44.630001068115234,26.76099967956543 0.0010000000474974513,-26.76099967956543 0.0010000000474974513,-26.76099967956543z"></path></g></g><g transform="matrix(0,0,0,0,1082.7669677734375,219.53399658203125)" opacity="1" style="display: block;"><g opacity="1" transform="matrix(1,0,0,1,20.6299991607666,38.94499969482422)"><path fill="rgb(5,66,94)" fill-opacity="1" d=" M11.66100025177002,14.256999969482422 C11.66100025177002,14.256999969482422 -11.66100025177002,14.256999969482422 -11.66100025177002,14.256999969482422 C-11.66100025177002,14.256999969482422 -11.66100025177002,-14.256999969482422 -11.66100025177002,-14.256999969482422 C-11.66100025177002,-14.256999969482422 11.66100025177002,-14.256999969482422 11.66100025177002,-14.256999969482422 C11.66100025177002,-14.256999969482422 11.66100025177002,14.256999969482422 11.66100025177002,14.256999969482422z"></path></g><g opacity="1" transform="matrix(1,0,0,1,20.6299991607666,12.470000267028809)"><path fill="rgb(5,66,94)" fill-opacity="1" d=" M0,-12.220000267028809 C0,-12.220000267028809 -20.3799991607666,12.220000267028809 -20.3799991607666,12.220000267028809 C-20.3799991607666,12.220000267028809 20.3799991607666,12.220000267028809 20.3799991607666,12.220000267028809 C20.3799991607666,12.220000267028809 0,-12.220000267028809 0,-12.220000267028809z"></path></g></g><g transform="matrix(0,0,0,0,1219.2030029296875,205.2779998779297)" opacity="1" style="display: block;"><g opacity="1" transform="matrix(1,0,0,1,11.236000061035156,21.11199951171875)"><path fill="rgb(5,66,94)" fill-opacity="1" d=" M6.285999774932861,7.685999870300293 C6.285999774932861,7.685999870300293 -6.285999774932861,7.685999870300293 -6.285999774932861,7.685999870300293 C-6.285999774932861,7.685999870300293 -6.285999774932861,-7.685999870300293 -6.285999774932861,-7.685999870300293 C-6.285999774932861,-7.685999870300293 6.285999774932861,-7.685999870300293 6.285999774932861,-7.685999870300293 C6.285999774932861,-7.685999870300293 6.285999774932861,7.685999870300293 6.285999774932861,7.685999870300293z"></path></g><g opacity="1" transform="matrix(1,0,0,1,11.237000465393066,6.8379998207092285)"><path fill="rgb(5,66,94)" fill-opacity="1" d=" M0,-6.5879998207092285 C0,-6.5879998207092285 -10.987000465393066,6.5879998207092285 -10.987000465393066,6.5879998207092285 C-10.987000465393066,6.5879998207092285 10.987000465393066,6.5879998207092285 10.987000465393066,6.5879998207092285 C10.987000465393066,6.5879998207092285 0,-6.5879998207092285 0,-6.5879998207092285z"></path></g></g><g transform="matrix(0,0,0,0,465.1510009765625,167.3419952392578)" opacity="1" style="display: block;"><g opacity="1" transform="matrix(1,0,0,1,174.10000610351562,86.96399688720703)"><path fill="rgb(255,255,255)" fill-opacity="1" d=" M153.2469940185547,81.96399688720703 C153.2469940185547,81.96399688720703 -153.2469940185547,81.96399688720703 -153.2469940185547,81.96399688720703 C-162.0030059814453,81.96399688720703 -169.10000610351562,75.33200073242188 -169.10000610351562,67.1510009765625 C-169.10000610351562,67.1510009765625 -169.10000610351562,-67.1510009765625 -169.10000610351562,-67.1510009765625 C-169.10000610351562,-75.33200073242188 -162.0030059814453,-81.96399688720703 -153.2469940185547,-81.96399688720703 C-153.2469940185547,-81.96399688720703 153.2469940185547,-81.96399688720703 153.2469940185547,-81.96399688720703 C162.0019989013672,-81.96399688720703 169.10000610351562,-75.33200073242188 169.10000610351562,-67.1510009765625 C169.10000610351562,-67.1510009765625 169.10000610351562,67.1510009765625 169.10000610351562,67.1510009765625 C169.10000610351562,75.33200073242188 162.0019989013672,81.96399688720703 153.2469940185547,81.96399688720703z"></path><path stroke-linecap="butt" stroke-linejoin="miter" fill-opacity="0" stroke-miterlimit="10" stroke="rgb(5,66,94)" stroke-opacity="1" stroke-width="2" d=" M153.2469940185547,81.96399688720703 C153.2469940185547,81.96399688720703 -153.2469940185547,81.96399688720703 -153.2469940185547,81.96399688720703 C-162.0030059814453,81.96399688720703 -169.10000610351562,75.33200073242188 -169.10000610351562,67.1510009765625 C-169.10000610351562,67.1510009765625 -169.10000610351562,-67.1510009765625 -169.10000610351562,-67.1510009765625 C-169.10000610351562,-75.33200073242188 -162.0030059814453,-81.96399688720703 -153.2469940185547,-81.96399688720703 C-153.2469940185547,-81.96399688720703 153.2469940185547,-81.96399688720703 153.2469940185547,-81.96399688720703 C162.0019989013672,-81.96399688720703 169.10000610351562,-75.33200073242188 169.10000610351562,-67.1510009765625 C169.10000610351562,-67.1510009765625 169.10000610351562,67.1510009765625 169.10000610351562,67.1510009765625 C169.10000610351562,75.33200073242188 162.0019989013672,81.96399688720703 153.2469940185547,81.96399688720703z"></path></g><g opacity="1" transform="matrix(1,0,0,1,0,0)"><path stroke-linecap="round" stroke-linejoin="round" fill-opacity="0" stroke="rgb(5,66,94)" stroke-opacity="1" stroke-width="3.489" d=" M198.05599975585938,53.57899856567383 C198.05599975585938,53.57899856567383 318.53900146484375,53.57899856567383 318.53900146484375,53.57899856567383"></path></g><g opacity="1" transform="matrix(1,0,0,1,0,0)"><path stroke-linecap="round" stroke-linejoin="round" fill-opacity="0" stroke="rgb(5,66,94)" stroke-opacity="1" stroke-width="3.489" d=" M198.05599975585938,75.83599853515625 C198.05599975585938,75.83599853515625 261.2170104980469,75.83599853515625 261.2170104980469,75.83599853515625"></path></g><g opacity="1" transform="matrix(1,0,0,1,0,0)"><path stroke-linecap="round" stroke-linejoin="round" fill-opacity="0" stroke="rgb(5,66,94)" stroke-opacity="1" stroke-width="3.489" d=" M198.05599975585938,98.09200286865234 C198.05599975585938,98.09200286865234 297.8210144042969,98.09200286865234 297.8210144042969,98.09200286865234"></path></g><g opacity="1" transform="matrix(1,0,0,1,0,0)"><path stroke-linecap="round" stroke-linejoin="round" fill-opacity="0" stroke="rgb(5,66,94)" stroke-opacity="1" stroke-width="3.489" d=" M198.05599975585938,120.3489990234375 C198.05599975585938,120.3489990234375 261.2170104980469,120.3489990234375 261.2170104980469,120.3489990234375"></path></g><g opacity="1" transform="matrix(1,0,0,1,105.51799774169922,95.71299743652344)"><path fill="rgb(5,66,94)" fill-opacity="1" d=" M-42.6349983215332,-50.50199890136719 C-54.02199935913086,-39.79100036621094 -61.06100082397461,-25.038999557495117 -61.06100082397461,-8.74899959564209 C-61.06100082397461,23.974000930786133 -32.66999816894531,50.50199890136719 2.3519999980926514,50.50199890136719 C28.88800048828125,50.50199890136719 51.604000091552734,35.26599884033203 61.06100082397461,13.649999618530273 C61.06100082397461,13.649999618530273 2.3519999980926514,-8.74899959564209 2.3519999980926514,-8.74899959564209 C2.3519999980926514,-8.74899959564209 -42.6349983215332,-50.50199890136719 -42.6349983215332,-50.50199890136719z"></path></g><g opacity="1" transform="matrix(1,0,0,1,105.50199890136719,57.3380012512207)"><path fill="rgb(193,235,227)" fill-opacity="1" d=" M42.619998931884766,-16.156999588012695 C31.670000076293945,-24.57200050354004 17.649999618530273,-29.625999450683594 2.367000102996826,-29.625999450683594 C-15.220999717712402,-29.625999450683594 -31.132999420166016,-22.93199920654297 -42.619998931884766,-12.126999855041504 C-42.619998931884766,-12.126999855041504 2.367000102996826,29.625999450683594 2.367000102996826,29.625999450683594 C2.367000102996826,29.625999450683594 42.619998931884766,-16.156999588012695 42.619998931884766,-16.156999588012695z"></path></g><g opacity="1" transform="matrix(1,0,0,1,139.5760040283203,75.27300262451172)"><path fill="rgb(161,224,213)" fill-opacity="1" d=" M8.545999526977539,-34.090999603271484 C8.545999526977539,-34.090999603271484 -31.70599937438965,11.690999984741211 -31.70599937438965,11.690999984741211 C-31.70599937438965,11.690999984741211 27.003000259399414,34.090999603271484 27.003000259399414,34.090999603271484 C30.025999069213867,27.179000854492188 31.70599937438965,19.6200008392334 31.70599937438965,11.690999984741211 C31.70599937438965,-6.750999927520752 22.68600082397461,-23.224000930786133 8.545999526977539,-34.090999603271484z"></path></g></g><g transform="matrix(0,0,0,0,1517.6519775390625,176.09100341796875)" opacity="1" style="display: block;"><g opacity="1" transform="matrix(1,0,0,1,68.60800170898438,64.41500091552734)"><path stroke-linecap="butt" stroke-linejoin="miter" fill-opacity="0" stroke-miterlimit="10" stroke="rgb(5,66,94)" stroke-opacity="1" stroke-width="1.888" d=" M59.20100021362305,7.927999973297119 C54.51499938964844,38.47800064086914 24.211000442504883,59.69499969482422 -8.486000061035156,55.316001892089844 C-41.180999755859375,50.9379997253418 -63.88800048828125,22.621999740600586 -59.20199966430664,-7.927999973297119 C-54.51599884033203,-38.479000091552734 -24.211000442504883,-59.69499969482422 8.484999656677246,-55.31700134277344 C41.18000030517578,-50.9379997253418 63.88800048828125,-22.62299919128418 59.20100021362305,7.927999973297119z"></path></g></g><g transform="matrix(0,0,0,0,1492.092041015625,322.17401123046875)" opacity="1" style="display: block;"><g opacity="1" transform="matrix(1,0,0,1,50.79600143432617,47.77199935913086)"><path stroke-linecap="butt" stroke-linejoin="miter" fill-opacity="0" stroke-miterlimit="10" stroke="rgb(5,66,94)" stroke-opacity="1" stroke-width="1.888" d=" M39.992000579833984,-10.293999671936035 C46.07600021362305,10.343000411987305 33.10300064086914,31.68199920654297 11.015999794006348,37.367000579833984 C-11.071000099182129,43.051998138427734 -33.90800094604492,30.930999755859375 -39.992000579833984,10.293000221252441 C-46.07600021362305,-10.343999862670898 -33.104000091552734,-31.683000564575195 -11.017000198364258,-37.36800003051758 C11.071000099182129,-43.051998138427734 33.90800094604492,-30.93199920654297 39.992000579833984,-10.293999671936035z"></path></g></g><g transform="matrix(0,0,0,0,1593.8050537109375,270.3219909667969)" opacity="1" style="display: block;"><g opacity="1" transform="matrix(1,0,0,1,42.724998474121094,40.23099899291992)"><path stroke-linecap="butt" stroke-linejoin="miter" fill-opacity="0" stroke-miterlimit="10" stroke="rgb(5,66,94)" stroke-opacity="1" stroke-width="1.888" d=" M33.14099884033203,8.232000350952148 C28.274999618530273,25.333999633789062 9.493000030517578,35.51100158691406 -8.8100004196167,30.96500015258789 C-27.113000869750977,26.41900062561035 -38.005001068115234,8.869999885559082 -33.13800048828125,-8.232000350952148 C-28.273000717163086,-25.33300018310547 -9.493000030517578,-35.51100158691406 8.8100004196167,-30.96500015258789 C27.113000869750977,-26.41900062561035 38.00600051879883,-8.869999885559082 33.14099884033203,8.232000350952148z"></path></g></g><g transform="matrix(-0.9400594234466553,-0.3410106599330902,0.3410106599330902,-0.9400594234466553,384.7684631347656,714.22412109375)" opacity="1" style="display: block;"><g opacity="1" transform="matrix(1,0,0,1,58.71200180053711,54.875999450683594)"><path fill="rgb(5,66,94)" fill-opacity="1" d=" M54.03099822998047,-9.104999542236328 C54.03099822998047,-9.104999542236328 43.4739990234375,-9.104999542236328 43.4739990234375,-9.104999542236328 C41.582000732421875,-9.104999542236328 39.87699890136719,-10.222000122070312 39.29499816894531,-11.904000282287598 C38.61800003051758,-13.855999946594238 37.78200149536133,-15.73799991607666 36.797000885009766,-17.538999557495117 C35.935001373291016,-19.117000579833984 36.29100036621094,-21.031999588012695 37.630001068115234,-22.284000396728516 C37.630001068115234,-22.284000396728516 45.09700012207031,-29.260000228881836 45.09700012207031,-29.260000228881836 C46.827999114990234,-30.875999450683594 46.827999114990234,-33.49800109863281 45.097999572753906,-35.11600112915039 C45.097999572753906,-35.11600112915039 37.58599853515625,-42.13600158691406 37.58599853515625,-42.13600158691406 C35.85499954223633,-43.75299835205078 33.04899978637695,-43.75299835205078 31.31800079345703,-42.13600158691406 C31.31800079345703,-42.13600158691406 23.85099983215332,-35.15999984741211 23.85099983215332,-35.15999984741211 C22.51099967956543,-33.90800094604492 20.459999084472656,-33.57600021362305 18.77400016784668,-34.38100051879883 C16.844999313354492,-35.30099868774414 14.829999923706055,-36.08399963378906 12.739999771118164,-36.71500015258789 C10.939000129699707,-37.2599983215332 9.744000434875488,-38.85300064086914 9.744000434875488,-40.619998931884766 C9.744000434875488,-40.619998931884766 9.744000434875488,-50.486000061035156 9.744000434875488,-50.486000061035156 C9.744000434875488,-52.77299880981445 7.760000228881836,-54.625999450683594 5.311999797821045,-54.625999450683594 C5.311999797821045,-54.625999450683594 -5.311999797821045,-54.625999450683594 -5.311999797821045,-54.625999450683594 C-7.760000228881836,-54.625999450683594 -9.744000434875488,-52.77299880981445 -9.744000434875488,-50.486000061035156 C-9.744000434875488,-50.486000061035156 -9.744000434875488,-40.61899948120117 -9.744000434875488,-40.61899948120117 C-9.744000434875488,-38.85200119018555 -10.939000129699707,-37.25899887084961 -12.739999771118164,-36.71500015258789 C-14.829000473022461,-36.08300018310547 -16.8439998626709,-35.30099868774414 -18.77199935913086,-34.380001068115234 C-20.458999633789062,-33.57500076293945 -22.510000228881836,-33.90800094604492 -23.850000381469727,-35.15999984741211 C-23.850000381469727,-35.15999984741211 -31.315000534057617,-42.13399887084961 -31.315000534057617,-42.13399887084961 C-33.04499816894531,-43.75199890136719 -35.85200119018555,-43.75199890136719 -37.582000732421875,-42.1349983215332 C-37.582000732421875,-42.1349983215332 -45.09299850463867,-35.117000579833984 -45.09299850463867,-35.117000579833984 C-46.82400131225586,-33.5 -46.82400131225586,-30.878000259399414 -45.09299850463867,-29.26099967956543 C-45.09299850463867,-29.26099967956543 -37.62699890136719,-22.28499984741211 -37.62699890136719,-22.28499984741211 C-36.28799819946289,-21.033000946044922 -35.93199920654297,-19.117000579833984 -36.79399871826172,-17.540000915527344 C-37.77899932861328,-15.73900032043457 -38.61600112915039,-13.855999946594238 -39.29199981689453,-11.904999732971191 C-39.875,-10.222000122070312 -41.57899856567383,-9.104999542236328 -43.47100067138672,-9.104999542236328 C-43.47100067138672,-9.104999542236328 -54.03099822998047,-9.104999542236328 -54.03099822998047,-9.104999542236328 C-56.47800064086914,-9.104999542236328 -58.46200180053711,-7.250999927520752 -58.46200180053711,-4.964000225067139 C-58.46200180053711,-4.964000225067139 -58.46200180053711,4.9629998207092285 -58.46200180053711,4.9629998207092285 C-58.46200180053711,7.25 -56.47800064086914,9.104000091552734 -54.03099822998047,9.104000091552734 C-54.03099822998047,9.104000091552734 -43.47100067138672,9.104000091552734 -43.47100067138672,9.104000091552734 C-41.57899856567383,9.104000091552734 -39.875,10.220999717712402 -39.29199981689453,11.902999877929688 C-38.61600112915039,13.854999542236328 -37.77899932861328,15.73900032043457 -36.79399871826172,17.541000366210938 C-35.93199920654297,19.117000579833984 -36.28799819946289,21.033000946044922 -37.62699890136719,22.28499984741211 C-37.62699890136719,22.28499984741211 -45.09299850463867,29.26099967956543 -45.09299850463867,29.26099967956543 C-46.82400131225586,30.878999710083008 -46.82400131225586,33.5 -45.09299850463867,35.117000579833984 C-45.09299850463867,35.117000579833984 -37.582000732421875,42.13399887084961 -37.582000732421875,42.13399887084961 C-35.85200119018555,43.75199890136719 -33.04499816894531,43.75199890136719 -31.315000534057617,42.13399887084961 C-31.315000534057617,42.13399887084961 -23.850000381469727,35.159000396728516 -23.850000381469727,35.159000396728516 C-22.510000228881836,33.90700149536133 -20.458999633789062,33.57500076293945 -18.77199935913086,34.380001068115234 C-16.8439998626709,35.29999923706055 -14.829000473022461,36.08300018310547 -12.739999771118164,36.71500015258789 C-10.939000129699707,37.257999420166016 -9.744000434875488,38.85100173950195 -9.744000434875488,40.61899948120117 C-9.744000434875488,40.61899948120117 -9.744000434875488,50.48400115966797 -9.744000434875488,50.48400115966797 C-9.744000434875488,52.770999908447266 -7.760000228881836,54.625999450683594 -5.311999797821045,54.625999450683594 C-5.311999797821045,54.625999450683594 5.311999797821045,54.625999450683594 5.311999797821045,54.625999450683594 C7.760000228881836,54.625999450683594 9.744000434875488,52.770999908447266 9.744000434875488,50.48400115966797 C9.744000434875488,50.48400115966797 9.744000434875488,40.619998931884766 9.744000434875488,40.619998931884766 C9.744000434875488,38.85200119018555 10.939000129699707,37.25899887084961 12.739999771118164,36.71500015258789 C14.829999923706055,36.08399963378906 16.844999313354492,35.30099868774414 18.773000717163086,34.38100051879883 C20.459999084472656,33.57500076293945 22.51099967956543,33.90700149536133 23.85099983215332,35.159000396728516 C23.85099983215332,35.159000396728516 31.31800079345703,42.13600158691406 31.31800079345703,42.13600158691406 C33.04899978637695,43.75400161743164 35.85499954223633,43.75400161743164 37.58599853515625,42.1349983215332 C37.58599853515625,42.1349983215332 45.097999572753906,35.11600112915039 45.097999572753906,35.11600112915039 C46.827999114990234,33.499000549316406 46.827999114990234,30.87700080871582 45.09700012207031,29.259000778198242 C45.09700012207031,29.259000778198242 37.630001068115234,22.284000396728516 37.630001068115234,22.284000396728516 C36.29100036621094,21.031999588012695 35.935001373291016,19.115999221801758 36.797000885009766,17.540000915527344 C37.78200149536133,15.73799991607666 38.61899948120117,13.854999542236328 39.29499816894531,11.902999877929688 C39.87699890136719,10.220999717712402 41.582000732421875,9.104000091552734 43.4739990234375,9.104000091552734 C43.4739990234375,9.104000091552734 54.03099822998047,9.104000091552734 54.03099822998047,9.104000091552734 C56.479000091552734,9.104000091552734 58.46200180053711,7.25 58.46200180053711,4.9629998207092285 C58.46200180053711,4.9629998207092285 58.46200180053711,-4.964000225067139 58.46200180053711,-4.964000225067139 C58.46200180053711,-7.250999927520752 56.479000091552734,-9.104999542236328 54.03099822998047,-9.104999542236328z M0.0010000000474974513,20.611000061035156 C-12.190999984741211,20.611000061035156 -22.05699920654297,11.392000198364258 -22.05699920654297,0 C-22.05699920654297,-11.392999649047852 -12.190999984741211,-20.61199951171875 0.0010000000474974513,-20.61199951171875 C12.194000244140625,-20.61199951171875 22.059999465942383,-11.392999649047852 22.059999465942383,0 C22.059999465942383,11.392000198364258 12.194000244140625,20.611000061035156 0.0010000000474974513,20.611000061035156z"></path></g></g><g transform="matrix(-0.9497315287590027,-0.31306546926498413,0.31306546926498413,-0.9497315287590027,261.93218994140625,641.0977172851562)" opacity="1" style="display: block;"><g opacity="1" transform="matrix(1,0,0,1,37.058998107910156,34.64400100708008)"><path fill="rgb(5,66,94)" fill-opacity="1" d=" M34.02000045776367,-5.732999801635742 C34.02000045776367,-5.732999801635742 27.37299919128418,-5.732999801635742 27.37299919128418,-5.732999801635742 C26.180999755859375,-5.732999801635742 25.10700035095215,-6.435999870300293 24.739999771118164,-7.495999813079834 C24.315000534057617,-8.723999977111816 23.788999557495117,-9.90999984741211 23.16900062561035,-11.043999671936035 C22.625999450683594,-12.036999702453613 22.849000930786133,-13.243000030517578 23.691999435424805,-14.031000137329102 C23.691999435424805,-14.031000137329102 28.395000457763672,-18.422000885009766 28.395000457763672,-18.422000885009766 C29.483999252319336,-19.44099998474121 29.483999252319336,-21.09000015258789 28.395000457763672,-22.108999252319336 C28.395000457763672,-22.108999252319336 23.666000366210938,-26.530000686645508 23.666000366210938,-26.530000686645508 C22.576000213623047,-27.54800033569336 20.808000564575195,-27.54800033569336 19.718000411987305,-26.530000686645508 C19.718000411987305,-26.530000686645508 15.017999649047852,-22.136999130249023 15.017999649047852,-22.136999130249023 C14.173999786376953,-21.349000930786133 12.883000373840332,-21.139999389648438 11.821000099182129,-21.64699935913086 C10.605999946594238,-22.226999282836914 9.338000297546387,-22.7189998626709 8.022000312805176,-23.118000030517578 C6.888999938964844,-23.459999084472656 6.136000156402588,-24.461999893188477 6.136000156402588,-25.576000213623047 C6.136000156402588,-25.576000213623047 6.136000156402588,-31.785999298095703 6.136000156402588,-31.785999298095703 C6.136000156402588,-33.22600173950195 4.88700008392334,-34.393001556396484 3.3450000286102295,-34.393001556396484 C3.3450000286102295,-34.393001556396484 -3.3440001010894775,-34.393001556396484 -3.3440001010894775,-34.393001556396484 C-4.885000228881836,-34.393001556396484 -6.133999824523926,-33.22600173950195 -6.133999824523926,-31.785999298095703 C-6.133999824523926,-31.785999298095703 -6.133999824523926,-25.576000213623047 -6.133999824523926,-25.576000213623047 C-6.133999824523926,-24.461999893188477 -6.88700008392334,-23.459999084472656 -8.020000457763672,-23.117000579833984 C-9.336000442504883,-22.7189998626709 -10.604000091552734,-22.226999282836914 -11.819000244140625,-21.64699935913086 C-12.880999565124512,-21.139999389648438 -14.17199993133545,-21.349000930786133 -15.015999794006348,-22.136999130249023 C-15.015999794006348,-22.136999130249023 -19.715999603271484,-26.52899932861328 -19.715999603271484,-26.52899932861328 C-20.80500030517578,-27.547000885009766 -22.572999954223633,-27.547000885009766 -23.66200065612793,-26.530000686645508 C-23.66200065612793,-26.530000686645508 -28.391000747680664,-22.111000061035156 -28.391000747680664,-22.111000061035156 C-29.479999542236328,-21.091999053955078 -29.479999542236328,-19.441999435424805 -28.391000747680664,-18.42300033569336 C-28.391000747680664,-18.42300033569336 -23.690000534057617,-14.031000137329102 -23.690000534057617,-14.031000137329102 C-22.847000122070312,-13.241999626159668 -22.62299919128418,-12.036999702453613 -23.166000366210938,-11.043999671936035 C-23.785999298095703,-9.90999984741211 -24.312999725341797,-8.723999977111816 -24.738000869750977,-7.495999813079834 C-25.104999542236328,-6.435999870300293 -26.17799949645996,-5.732999801635742 -27.368999481201172,-5.732999801635742 C-27.368999481201172,-5.732999801635742 -34.018001556396484,-5.732999801635742 -34.018001556396484,-5.732999801635742 C-35.558998107910156,-5.732999801635742 -36.808998107910156,-4.565999984741211 -36.808998107910156,-3.125999927520752 C-36.808998107910156,-3.125999927520752 -36.808998107910156,3.124000072479248 -36.808998107910156,3.124000072479248 C-36.808998107910156,4.564000129699707 -35.558998107910156,5.73199987411499 -34.018001556396484,5.73199987411499 C-34.018001556396484,5.73199987411499 -27.368999481201172,5.73199987411499 -27.368999481201172,5.73199987411499 C-26.17799949645996,5.73199987411499 -25.104999542236328,6.435999870300293 -24.738000869750977,7.494999885559082 C-24.312999725341797,8.723999977111816 -23.785999298095703,9.909000396728516 -23.166000366210938,11.043000221252441 C-22.62299919128418,12.03600025177002 -22.847000122070312,13.241999626159668 -23.690000534057617,14.031000137329102 C-23.690000534057617,14.031000137329102 -28.391000747680664,18.42300033569336 -28.391000747680664,18.42300033569336 C-29.481000900268555,19.44099998474121 -29.481000900268555,21.091999053955078 -28.391000747680664,22.111000061035156 C-28.391000747680664,22.111000061035156 -23.66200065612793,26.52899932861328 -23.66200065612793,26.52899932861328 C-22.572999954223633,27.54599952697754 -20.80500030517578,27.54599952697754 -19.715999603271484,26.52899932861328 C-19.715999603271484,26.52899932861328 -15.015999794006348,22.136999130249023 -15.015999794006348,22.136999130249023 C-14.17199993133545,21.349000930786133 -12.880999565124512,21.138999938964844 -11.819000244140625,21.645999908447266 C-10.604000091552734,22.22599983215332 -9.336000442504883,22.718000411987305 -8.020000457763672,23.115999221801758 C-6.88700008392334,23.45800018310547 -6.133999824523926,24.461999893188477 -6.133999824523926,25.576000213623047 C-6.133999824523926,25.576000213623047 -6.133999824523926,31.785999298095703 -6.133999824523926,31.785999298095703 C-6.133999824523926,33.224998474121094 -4.885000228881836,34.393001556396484 -3.3440001010894775,34.393001556396484 C-3.3440001010894775,34.393001556396484 3.3450000286102295,34.393001556396484 3.3450000286102295,34.393001556396484 C4.88700008392334,34.393001556396484 6.136000156402588,33.224998474121094 6.136000156402588,31.785999298095703 C6.136000156402588,31.785999298095703 6.136000156402588,25.576000213623047 6.136000156402588,25.576000213623047 C6.136000156402588,24.461999893188477 6.888999938964844,23.458999633789062 8.022000312805176,23.117000579833984 C9.338000297546387,22.718000411987305 10.605999946594238,22.22599983215332 11.821000099182129,21.645999908447266 C12.883000373840332,21.138999938964844 14.173999786376953,21.349000930786133 15.017999649047852,22.136999130249023 C15.017999649047852,22.136999130249023 19.718000411987305,26.530000686645508 19.718000411987305,26.530000686645508 C20.808000564575195,27.547000885009766 22.576000213623047,27.547000885009766 23.666000366210938,26.52899932861328 C23.666000366210938,26.52899932861328 28.395000457763672,22.108999252319336 28.395000457763672,22.108999252319336 C29.483999252319336,21.090999603271484 29.483999252319336,19.440000534057617 28.395000457763672,18.422000885009766 C28.395000457763672,18.422000885009766 23.691999435424805,14.029999732971191 23.691999435424805,14.029999732971191 C22.849000930786133,13.241999626159668 22.625999450683594,12.03600025177002 23.16900062561035,11.041999816894531 C23.788999557495117,9.909000396728516 24.31599998474121,8.723999977111816 24.742000579833984,7.494999885559082 C25.107999801635742,6.435999870300293 26.180999755859375,5.73199987411499 27.37299919128418,5.73199987411499 C27.37299919128418,5.73199987411499 34.02000045776367,5.73199987411499 34.02000045776367,5.73199987411499 C35.56100082397461,5.73199987411499 36.808998107910156,4.564000129699707 36.808998107910156,3.124000072479248 C36.808998107910156,3.124000072479248 36.808998107910156,-3.125999927520752 36.808998107910156,-3.125999927520752 C36.808998107910156,-4.565999984741211 35.56100082397461,-5.732999801635742 34.02000045776367,-5.732999801635742z M0.0010000000474974513,12.97700023651123 C-7.675000190734863,12.97700023651123 -13.88700008392334,7.171999931335449 -13.88700008392334,-0.0010000000474974513 C-13.88700008392334,-7.172999858856201 -7.675000190734863,-12.977999687194824 0.0010000000474974513,-12.977999687194824 C7.677999973297119,-12.977999687194824 13.890000343322754,-7.172999858856201 13.890000343322754,-0.0010000000474974513 C13.890000343322754,7.171999931335449 7.677999973297119,12.97700023651123 0.0010000000474974513,12.97700023651123z"></path></g></g><g transform="matrix(1,0,0,1,1368.7509765625,1006.2349243164062)" opacity="1" style="display: block;"><g opacity="1" transform="matrix(1,0,0,1,14.769000053405762,18.490999221801758)"><path fill="rgb(255,194,158)" fill-opacity="1" d=" M-11.772000312805176,18.240999221801758 C-11.772000312805176,18.240999221801758 14.519000053405762,17.507999420166016 14.519000053405762,17.507999420166016 C14.519000053405762,17.507999420166016 9.8100004196167,-18.240999221801758 9.8100004196167,-18.240999221801758 C9.8100004196167,-18.240999221801758 -14.519000053405762,-14.758000373840332 -14.519000053405762,-14.758000373840332 C-14.519000053405762,-14.758000373840332 -11.772000312805176,18.240999221801758 -11.772000312805176,18.240999221801758z"></path></g></g><g transform="matrix(1,0,0,1,1366.3289794921875,1032.4071044921875)" opacity="1" style="display: block;"><g opacity="1" transform="matrix(1,0,0,1,22.027999877929688,16.68000030517578)"><path fill="rgb(33,50,63)" fill-opacity="1" d=" M18.770000457763672,16.43000030517578 C21.77899932861328,7.019000053405762 14.71500015258789,0.17499999701976776 12.491999626159668,-8.135000228881836 C11.119999885559082,-13.265000343322754 -16.430999755859375,-16.43000030517578 -19.16200065612793,-5.203999996185303 C-21.777999877929688,5.552000045776367 -19.684999465942383,16.43000030517578 -19.684999465942383,16.43000030517578 C-19.684999465942383,16.43000030517578 18.770000457763672,16.43000030517578 18.770000457763672,16.43000030517578z"></path></g></g><g transform="matrix(1,0,0,1,1225.0980224609375,1001.3079833984375)" opacity="1" style="display: block;"><g opacity="1" transform="matrix(1,0,0,1,15.045999526977539,21.413000106811523)"><path fill="rgb(255,194,158)" fill-opacity="1" d=" M-14.795000076293945,21.163000106811523 C-14.795000076293945,21.163000106811523 12.14799976348877,21.163000106811523 12.14799976348877,21.163000106811523 C12.14799976348877,21.163000106811523 14.795000076293945,-19.608999252319336 14.795000076293945,-19.608999252319336 C14.795000076293945,-19.608999252319336 -11.494999885559082,-21.163000106811523 -11.494999885559082,-21.163000106811523 C-11.494999885559082,-21.163000106811523 -14.795000076293945,21.163000106811523 -14.795000076293945,21.163000106811523z"></path></g></g><g transform="matrix(1,0,0,1,1179.0140380859375,1040.7000732421875)" opacity="1" style="display: block;"><g opacity="1" transform="matrix(1,0,0,1,41.472999572753906,12.532999992370605)"><path fill="rgb(33,50,63)" fill-opacity="1" d=" M31.805999755859375,-12.282999992370605 C31.805999755859375,-12.282999992370605 6.691999912261963,-12.282999992370605 6.691999912261963,-12.282999992370605 C6.691999912261963,-12.282999992370605 3.944999933242798,-12.282999992370605 -4.296000003814697,-4.2170000076293945 C-12.536999702453613,3.8499999046325684 -32.198001861572266,-3.8489999771118164 -41.222999572753906,12.282999992370605 C-41.222999572753906,12.282999992370605 33.766998291015625,12.282999992370605 33.766998291015625,12.282999992370605 C33.766998291015625,12.282999992370605 41.222999572753906,-0.5509999990463257 31.805999755859375,-12.282999992370605z"></path></g></g><g transform="matrix(1,0,0,1,1335.9000244140625,354.2279968261719)" opacity="1" style="display: block;"><g opacity="1" transform="matrix(1,0,0,1,10.246000289916992,17.80299949645996)"><path fill="rgb(33,50,63)" fill-opacity="1" d=" M2.4140000343322754,7.995999813079834 C5.125,5.183000087738037 7.604000091552734,2.058000087738037 8.800999641418457,-1.559000015258789 C9.996999740600586,-5.175000190734863 9.741000175476074,-9.369999885559082 7.340000152587891,-12.418999671936035 C5.581999778747559,-14.64900016784668 2.8469998836517334,-16.076000213623047 -0.009999999776482582,-16.819000244140625 C-2.8289999961853027,-17.55299949645996 -6.250999927520752,-17.524999618530273 -8.227999687194824,-15.508000373840332 C-9.814000129699707,-13.890999794006348 -9.996000289916992,-11.479999542236328 -9.829000473022461,-9.293000221252441 C-9.513999938964844,-5.1579999923706055 -8.251999855041504,-1.0789999961853027 -8.491999626159668,3.059000015258789 C-8.631999969482422,5.459000110626221 -9.274999618530273,7.826000213623047 -9.246999740600586,10.229000091552734 C-9.223999977111816,12.270000457763672 -8.03600025177002,17.55299949645996 -5.063000202178955,15.52400016784668 C-2.365000009536743,13.684000015258789 0.16200000047683716,10.333000183105469 2.4140000343322754,7.995999813079834z"></path></g></g><g transform="matrix(1,0,0,1,1225.403076171875,619.050048828125)" opacity="1" style="display: block;"><g opacity="1" transform="matrix(1,0,0,1,87.62100219726562,204.47500610351562)"><path fill="rgb(33,50,63)" fill-opacity="1" d=" M55.077999114990234,-204.22500610351562 C55.077999114990234,-204.22500610351562 87.37200164794922,204.22500610351562 87.37200164794922,204.22500610351562 C87.37200164794922,204.22500610351562 55.077999114990234,204.22500610351562 55.077999114990234,204.22500610351562 C55.077999114990234,204.22500610351562 -1.0750000476837158,-93.00700378417969 -1.0750000476837158,-93.00700378417969 C-1.0750000476837158,-93.00700378417969 -55.45600128173828,204.22500610351562 -55.45600128173828,204.22500610351562 C-55.45600128173828,204.22500610351562 -87.37200164794922,204.22500610351562 -87.37200164794922,204.22500610351562 C-87.37200164794922,204.22500610351562 -57.77799987792969,-204.22500610351562 -57.77799987792969,-204.22500610351562 C-57.77799987792969,-204.22500610351562 55.077999114990234,-204.22500610351562 55.077999114990234,-204.22500610351562z"></path></g></g><g transform="matrix(0.9999594688415527,0.009002037346363068,-0.009002037346363068,0.9999594688415527,1143.2188720703125,415.4635314941406)" opacity="1" style="display: block;"><g opacity="1" transform="matrix(1,0,0,1,16.66900062561035,27.179000854492188)"><path fill="rgb(255,194,158)" fill-opacity="1" d=" M16.420000076293945,22.687999725341797 C16.420000076293945,22.687999725341797 10.015999794006348,13.050999641418457 10.944999694824219,7.631999969482422 C11.875,2.2119998931884766 11.871999740600586,-4.330999851226807 8.70199966430664,-8.02400016784668 C5.5320000648498535,-11.718000411987305 6.364999771118164,-16.093000411987305 3.0260000228881836,-14.895000457763672 C1.9609999656677246,-14.513999938964844 2.4769999980926514,-7.959000110626221 4.005000114440918,-4.860000133514404 C4.005000114440918,-4.860000133514404 -5.461999893188477,-22.860000610351562 -6.828999996185303,-24.895000457763672 C-8.196999549865723,-26.929000854492188 -10.42300033569336,-25.636999130249023 -10.243000030517578,-23.95400047302246 C-10.243000030517578,-23.95400047302246 -11.277000427246094,-25.85700035095215 -13.01099967956543,-25.038000106811523 C-14.487000465393066,-24.33799934387207 -13.751999855041504,-22.134000778198242 -13.687000274658203,-21.177000045776367 C-13.687000274658203,-21.177000045776367 -15.944999694824219,-21 -15.656000137329102,-18.663999557495117 C-15.470000267028809,-17.165000915527344 -15.204999923706055,-16.18600082397461 -14.949000358581543,-15.29800033569336 C-14.949000358581543,-15.29800033569336 -15.996000289916992,-15.10200023651123 -16.243999481201172,-13.32699966430664 C-16.420000076293945,-12.069000244140625 -16.075000762939453,-9.588000297546387 -15.199000358581543,-7.735000133514404 C-13.086999893188477,-3.2669999599456787 -14.602999687194824,-2.316999912261963 -12.390999794006348,2.178999900817871 C-10.178000450134277,6.676000118255615 -4.626999855041504,7.176000118255615 -2.125,15.831999778747559 C0.3779999911785126,24.48699951171875 1.3700000047683716,26.929000854492188 1.3700000047683716,26.929000854492188 C1.3700000047683716,26.929000854492188 16.420000076293945,22.687999725341797 16.420000076293945,22.687999725341797z"></path></g></g><g transform="matrix(0.9999594688415527,0.009002037346363068,-0.009002037346363068,0.9999594688415527,1158.2431640625,439.2777404785156)" opacity="1" style="display: block;"><g opacity="1" transform="matrix(1,0,0,1,67.30799865722656,75.51399993896484)"><path fill="rgb(255,120,0)" fill-opacity="1" d=" M30.829999923706055,-70.13200378417969 C24.566999435424805,-69.24500274658203 2.3970000743865967,-25.930999755859375 -9.767000198364258,-5.39900016784668 C-9.767000198364258,-5.39900016784668 -21.93199920654297,15.133000373840332 -21.93199920654297,15.133000373840332 C-21.93199920654297,15.133000373840332 -51.36199951171875,-55.263999938964844 -51.36199951171875,-55.263999938964844 C-51.36199951171875,-55.263999938964844 -61.172000885009766,-56.73099899291992 -67.05799865722656,-48.66400146484375 C-67.05799865722656,-48.66400146484375 -51.36199951171875,46.29899978637695 -47.4379997253418,56.93199920654297 C-43.513999938964844,67.56400299072266 -31.350000381469727,75.26499938964844 -9.767000198364258,49.965999603271484 C11.8149995803833,24.666000366210938 49.09400177001953,-24.46500015258789 52.233001708984375,-29.964000701904297 C55.37200164794922,-35.4640007019043 67.05899810791016,-75.26499938964844 30.829999923706055,-70.13200378417969z"></path></g></g><g transform="matrix(1,0,0,1,1250.3150634765625,424.80804443359375)" opacity="1" style="display: block;"><g opacity="1" transform="matrix(1,0,0,1,69.27300262451172,97.3740005493164)"><path fill="rgb(255,144,20)" fill-opacity="1" d=" M55.731998443603516,10.946999549865723 C45.5359992980957,61.928001403808594 48.52199935913086,97.1240005493164 48.52199935913086,97.1240005493164 C48.52199935913086,97.1240005493164 -64.34100341796875,97.1240005493164 -64.34100341796875,97.1240005493164 C-64.34100341796875,97.1240005493164 -69.02300262451172,-67.43499755859375 -66.44000244140625,-73.01499938964844 C-61.731998443603516,-83.12100219726562 -14.407999992370605,-97.1240005493164 -14.407999992370605,-97.1240005493164 C-14.407999992370605,-97.1240005493164 25.652999877929688,-97.02300262451172 25.652999877929688,-97.02300262451172 C25.652999877929688,-97.02300262451172 58.47600173950195,-88.04900360107422 65.92900085449219,-86.21299743652344 C68.13500213623047,-85.66000366210938 69.02300262451172,-81.41300201416016 68.91600036621094,-74.3740005493164 C68.72699737548828,-57.60599899291992 62.91600036621094,-24.951000213623047 55.731998443603516,10.946999549865723z"></path></g><g opacity="1" transform="matrix(1,0,0,1,121.44100189208984,107.78099822998047)"><path fill="rgb(255,120,0)" fill-opacity="1" d=" M3.563999891281128,0.5400000214576721 C-6.631999969482422,51.520999908447266 -3.6459999084472656,86.71600341796875 -3.6459999084472656,86.71600341796875 C-3.6459999084472656,86.71600341796875 -16.74799919128418,86.71600341796875 -16.74799919128418,86.71600341796875 C-16.74799919128418,86.71600341796875 -13.196999549865723,-38.85300064086914 6.308000087738037,-79.17500305175781 C9.241999626159668,-85.25800323486328 12.819000244140625,-86.71600341796875 16.74799919128418,-84.78099822998047 C16.55900001525879,-68.01300048828125 10.748000144958496,-35.358001708984375 3.563999891281128,0.5400000214576721z"></path></g></g><g transform="matrix(1,0,0,1,1308.625,388.4670104980469)" opacity="1" style="display: block;"><g opacity="1" transform="matrix(1,0,0,1,16.927000045776367,25.898000717163086)"><path fill="rgb(255,170,126)" fill-opacity="1" d=" M13.090999603271484,-25.648000717163086 C13.090999603271484,-25.648000717163086 11.968000411987305,-0.39100000262260437 16.677000045776367,9.753000259399414 C16.677000045776367,9.753000259399414 1.1119999885559082,25.648000717163086 1.1119999885559082,25.648000717163086 C1.1119999885559082,25.648000717163086 -9.845999717712402,23.7549991607666 -9.845999717712402,23.7549991607666 C-9.845999717712402,23.7549991607666 -13.86400032043457,21.843000411987305 -13.86400032043457,21.843000411987305 C-13.86400032043457,21.843000411987305 -16.677000045776367,14.154000282287598 -16.677000045776367,14.154000282287598 C-16.677000045776367,14.154000282287598 -16.677000045776367,-25.648000717163086 -16.677000045776367,-25.648000717163086 C-16.677000045776367,-25.648000717163086 13.090999603271484,-25.648000717163086 13.090999603271484,-25.648000717163086z"></path></g></g><g transform="matrix(1,0,0,1,1285.6959228515625,345.7540283203125)" opacity="1" style="display: block;"><g opacity="1" transform="matrix(1,0,0,1,28.757999420166016,36.14899826049805)"><path fill="rgb(255,194,158)" fill-opacity="1" d=" M-15.538000106811523,-35.20600128173828 C-15.538000106811523,-35.20600128173828 -28.507999420166016,19.781999588012695 -12.015999794006348,29.56999969482422 C-1.3489999771118164,35.89899826049805 17.284000396728516,32.17499923706055 22.89699935913086,7.664999961853027 C28.507999420166016,-16.8439998626709 17.965999603271484,-30.125 4.228000164031982,-33.20100021362305 C-7.826000213623047,-35.89899826049805 -15.538000106811523,-35.20600128173828 -15.538000106811523,-35.20600128173828z"></path></g></g><g transform="matrix(1,0,0,1,1336.508056640625,374.822998046875)" opacity="1" style="display: block;"><g opacity="1" transform="matrix(1,0,0,1,7.046999931335449,8.734000205993652)"><path fill="rgb(255,194,158)" fill-opacity="1" d=" M-4.554999828338623,-4.76200008392334 C-4.554999828338623,-4.76200008392334 -0.04500000178813934,-8.482999801635742 3.375999927520752,-3.9560000896453857 C6.796999931335449,0.5709999799728394 -1.343999981880188,8.482999801635742 -6.796999931335449,8.354000091552734 C-6.796999931335449,8.354000091552734 -4.554999828338623,-4.76200008392334 -4.554999828338623,-4.76200008392334z"></path></g></g><g transform="matrix(1,0,0,1,1254.85302734375,619.051025390625)" opacity="1" style="display: block;"><g opacity="1" transform="matrix(1,0,0,1,56.75,4.875999927520752)"><path fill="rgb(33,50,63)" fill-opacity="1" d=" M-56.5,4.625999927520752 C-56.5,4.625999927520752 56.5,4.625999927520752 56.5,4.625999927520752 C56.5,4.625999927520752 56.5,-4.625999927520752 56.5,-4.625999927520752 C56.5,-4.625999927520752 -56.5,-4.625999927520752 -56.5,-4.625999927520752 C-56.5,-4.625999927520752 -56.5,4.625999927520752 -56.5,4.625999927520752z"></path></g></g><g transform="matrix(1,0,0,1,1301.864013671875,670.7239990234375)" opacity="1" style="display: block;"><g opacity="1" transform="matrix(1,0,0,1,5.168000221252441,52.5890007019043)"><path fill="rgb(33,50,63)" fill-opacity="1" d=" M4.919000148773193,7.203999996185303 C4.919000148773193,7.203999996185303 -4.919000148773193,-52.3390007019043 -4.919000148773193,-52.3390007019043 C-4.919000148773193,-52.3390007019043 -3.3389999866485596,52.3390007019043 -3.3389999866485596,52.3390007019043 C-3.3389999866485596,52.3390007019043 4.919000148773193,7.203999996185303 4.919000148773193,7.203999996185303z"></path></g></g><g transform="matrix(1,0,0,1,1106.195068359375,484.8139953613281)" opacity="1" style="display: block;"><g opacity="1" transform="matrix(1,0,0,1,85.46099853515625,45.849998474121094)"><path fill="rgb(33,50,63)" fill-opacity="1" d=" M85.21099853515625,45.599998474121094 C85.21099853515625,45.599998474121094 -51.152000427246094,45.599998474121094 -51.152000427246094,45.599998474121094 C-51.152000427246094,45.599998474121094 -83.822998046875,-38.27199935913086 -83.822998046875,-38.27199935913086 C-85.21099853515625,-41.83300018310547 -82.38800048828125,-45.599998474121094 -78.33200073242188,-45.599998474121094 C-78.33200073242188,-45.599998474121094 45.59400177001953,-45.599998474121094 45.59400177001953,-45.599998474121094 C48.05099868774414,-45.599998474121094 50.244998931884766,-44.16400146484375 51.084999084472656,-42.00699996948242 C51.084999084472656,-42.00699996948242 85.21099853515625,45.599998474121094 85.21099853515625,45.599998474121094z"></path></g></g><g transform="matrix(1,0,0,1,1217.9090576171875,576.0139770507812)" opacity="1" style="display: block;"><g opacity="1" transform="matrix(1,0,0,1,72.24700164794922,4.210000038146973)"><path fill="rgb(33,50,63)" fill-opacity="1" d=" M67.76000213623047,3.9600000381469727 C67.76000213623047,3.9600000381469727 -67.75900268554688,3.9600000381469727 -67.75900268554688,3.9600000381469727 C-70.0989990234375,3.9600000381469727 -71.99700164794922,2.187000036239624 -71.99700164794922,0 C-71.99700164794922,-2.186000108718872 -70.0989990234375,-3.9600000381469727 -67.75900268554688,-3.9600000381469727 C-67.75900268554688,-3.9600000381469727 67.76000213623047,-3.9600000381469727 67.76000213623047,-3.9600000381469727 C70.0999984741211,-3.9600000381469727 71.99700164794922,-2.186000108718872 71.99700164794922,0 C71.99700164794922,2.187000036239624 70.0999984741211,3.9600000381469727 67.76000213623047,3.9600000381469727z"></path></g></g><g transform="matrix(1,0,0,1,1136.4381103515625,576.0139770507812)" opacity="1" style="display: block;"><g opacity="1" transform="matrix(1,0,0,1,72.24700164794922,4.210000038146973)"><path fill="rgb(33,50,63)" fill-opacity="1" d=" M67.75900268554688,3.9600000381469727 C67.75900268554688,3.9600000381469727 -67.75900268554688,3.9600000381469727 -67.75900268554688,3.9600000381469727 C-70.0989990234375,3.9600000381469727 -71.99700164794922,2.187000036239624 -71.99700164794922,0 C-71.99700164794922,-2.186000108718872 -70.0989990234375,-3.9600000381469727 -67.75900268554688,-3.9600000381469727 C-67.75900268554688,-3.9600000381469727 67.75900268554688,-3.9600000381469727 67.75900268554688,-3.9600000381469727 C70.0999984741211,-3.9600000381469727 71.99700164794922,-2.186000108718872 71.99700164794922,0 C71.99700164794922,2.187000036239624 70.0999984741211,3.9600000381469727 67.75900268554688,3.9600000381469727z"></path></g></g><g transform="matrix(1,0,0,1,1224.14794921875,565.0900268554688)" opacity="1" style="display: block;"><g opacity="1" transform="matrix(1,0,0,1,29.187000274658203,11.586999893188477)"><path fill="rgb(255,194,158)" fill-opacity="1" d=" M27.475000381469727,-5.785999774932861 C27.475000381469727,-5.785999774932861 15.755000114440918,-6.313000202178955 11.302000045776367,-8.609999656677246 C6.8480000495910645,-10.906000137329102 -4.363999843597412,-11.336999893188477 -6.668000221252441,-11.336999893188477 C-8.970999717712402,-11.336999893188477 -6.821000099182129,-7.749000072479248 -4.056000232696533,-7.317999839782715 C-1.2920000553131104,-6.888000011444092 2.0869998931884766,-4.5920000076293945 2.0869998931884766,-4.5920000076293945 C2.0869998931884766,-4.5920000076293945 -15.267999649047852,-3.1570000648498535 -19.56800079345703,-3.443000078201294 C-23.868999481201172,-3.7300000190734863 -28.937000274658203,-2.5829999446868896 -27.400999069213867,-0.5740000009536743 C-25.864999771118164,1.4359999895095825 -23.253999710083008,1.5789999961853027 -23.253999710083008,1.5789999961853027 C-23.253999710083008,1.5789999961853027 -22.025999069213867,4.5920000076293945 -19.56800079345703,5.0229997634887695 C-19.56800079345703,5.0229997634887695 -18.493000030517578,7.175000190734863 -15.114999771118164,7.605999946594238 C-15.114999771118164,7.605999946594238 -11.888999938964844,9.041000366210938 -10.505999565124512,9.041000366210938 C-10.505999565124512,9.041000366210938 2.0869998931884766,11.336999893188477 9.305000305175781,10.189000129699707 C16.52400016784668,9.041000366210938 28.937000274658203,8.354999542236328 28.937000274658203,8.354999542236328 C28.937000274658203,8.354999542236328 27.475000381469727,-5.785999774932861 27.475000381469727,-5.785999774932861z"></path></g></g><g transform="matrix(1,0,0,1,1278.153076171875,435.61102294921875)" opacity="1" style="display: block;"><g opacity="1" transform="matrix(1,0,0,1,70.87999725341797,76.3219985961914)"><path fill="rgb(255,120,0)" fill-opacity="1" d=" M36.042999267578125,-76.0719985961914 C36.042999267578125,-76.0719985961914 54.933998107910156,-73.39299774169922 62.78099822998047,-44.79399871826172 C70.62999725341797,-16.19499969482422 54.957000732421875,44.26599884033203 49.209999084472656,64.33100128173828 C45.84700012207031,76.0719985961914 -68.48699951171875,76.0719985961914 -68.48699951171875,76.0719985961914 C-68.48699951171875,76.0719985961914 -70.62999725341797,63.67100143432617 -70.62999725341797,55.500999450683594 C-70.62999725341797,55.500999450683594 7.428999900817871,43.62300109863281 23.908000946044922,34.19599914550781 C23.908000946044922,34.19599914550781 20.39299964904785,-14.61299991607666 19.618000030517578,-33.426998138427734 C18.83300018310547,-52.49300003051758 16.56399917602539,-74.10099792480469 36.042999267578125,-76.0719985961914z"></path></g></g><g transform="matrix(1,0,0,1,1301.6650390625,421.2259826660156)" opacity="1" style="display: block;"><g opacity="1" transform="matrix(1,0,0,1,7.144999980926514,14.388999938964844)"><path fill="rgb(255,120,0)" fill-opacity="1" d=" M0.06499999761581421,-14.138999938964844 C0.06499999761581421,-14.138999938964844 0.0989999994635582,-2.8310000896453857 6.894999980926514,2.503999948501587 C6.894999980926514,2.503999948501587 -0.3070000112056732,7.854000091552734 -4.3429999351501465,14.138999938964844 C-6.894999980926514,0.7350000143051147 -3.617000102996826,-10.569000244140625 -3.617000102996826,-10.569000244140625 C-3.617000102996826,-10.569000244140625 0.06499999761581421,-14.138999938964844 0.06499999761581421,-14.138999938964844z"></path></g></g><g transform="matrix(1,0,0,1,1315.455078125,420.81097412109375)" opacity="1" style="display: block;"><g opacity="1" transform="matrix(1,0,0,1,15.017000198364258,16.429000854492188)"><path fill="rgb(255,120,0)" fill-opacity="1" d=" M10.628999710083008,-16.18000030517578 C10.628999710083008,-16.18000030517578 1.1239999532699585,-1.940999984741211 -14.767000198364258,0.8799999952316284 C-14.767000198364258,0.8799999952316284 -9.508000373840332,9.057000160217285 -6.499000072479248,16.18000030517578 C1.4040000438690186,11.152999877929688 12.559000015258789,-1.6239999532699585 14.767000198364258,-12.081999778747559 C14.767000198364258,-12.081999778747559 10.628999710083008,-16.18000030517578 10.628999710083008,-16.18000030517578z"></path></g></g><g transform="matrix(1,0,0,1,1328.4119873046875,347.9179992675781)" opacity="1" style="display: block;"><g opacity="1" transform="matrix(1,0,0,1,13.74899959564209,15.522000312805176)"><path fill="rgb(33,50,63)" fill-opacity="1" d=" M-12.866999626159668,-2.132999897003174 C-13.49899959564209,0.23100000619888306 -13.428999900817871,2.8399999141693115 -12.180000305175781,4.978000164031982 C-11.039999961853027,6.928999900817871 -9.060999870300293,8.298999786376953 -7.284999847412109,9.777000427246094 C-5.508999824523926,11.255000114440918 -3.802000045776367,13.062999725341797 -3.5420000553131104,15.272000312805176 C0.7829999923706055,13.199000358581543 5.060999870300293,10.833000183105469 8.267999649047852,7.420000076293945 C11.475000381469727,4.006999969482422 13.49899959564209,-0.6320000290870667 12.635000228881836,-5.10099983215332 C11.74899959564209,-9.678999900817871 7.682000160217285,-13.572999954223633 2.805000066757202,-14.51099967956543 C-1.1490000486373901,-15.272000312805176 -5.798999786376953,-14.050000190734863 -8.611000061035156,-11.286999702453613 C-9.682000160217285,-10.234000205993652 -9.892999649047852,-9.237000465393066 -10.376999855041504,-7.916999816894531 C-11.10200023651123,-5.938000202178955 -12.319000244140625,-4.185999870300293 -12.866999626159668,-2.132999897003174z"></path></g></g><g transform="matrix(1,0,0,1,1283.4739990234375,334.0509948730469)" opacity="1" style="display: block;"><g opacity="1" transform="matrix(1,0,0,1,31.82699966430664,14.173999786376953)"><path fill="rgb(33,50,63)" fill-opacity="1" d=" M16.509000778198242,-8.376999855041504 C7.5960001945495605,-11.479999542236328 -2.015000104904175,-13.923999786376953 -11.657999992370605,-13.121000289916992 C-17.604999542236328,-12.62600040435791 -23.656999588012695,-10.720000267028809 -27.336000442504883,-6.883999824523926 C-31.014999389648438,-3.046999931335449 -31.57699966430664,2.9539999961853027 -27.541000366210938,6.545000076293945 C-24.84000015258789,8.947999954223633 -20.743000030517578,9.892000198364258 -16.850000381469727,10.644000053405762 C-6.939000129699707,12.557000160217285 3.2909998893737793,13.923999786376953 13.413999557495117,13.005999565124512 C20.645000457763672,12.350000381469727 27.738000869750977,9.442999839782715 29.70199966430664,3.2070000171661377 C31.57699966430664,-2.740999937057495 21.812000274658203,-6.531000137329102 16.509000778198242,-8.376999855041504z"></path></g></g><g transform="matrix(1,0,0,1,561.3330078125,1013.5599365234375)" opacity="1" style="display: block;"><g opacity="1" transform="matrix(1,0,0,1,14.798999786376953,14.324999809265137)"><path fill="rgb(255,194,158)" fill-opacity="1" d=" M-9.812999725341797,14.076000213623047 C-9.812999725341797,14.076000213623047 9.04699993133545,14.076000213623047 9.04699993133545,14.076000213623047 C9.04699993133545,14.076000213623047 11.512999534606934,-11.939000129699707 11.512999534606934,-11.939000129699707 C11.512999534606934,-11.939000129699707 -11.512999534606934,-14.076000213623047 -11.512999534606934,-14.076000213623047 C-11.512999534606934,-14.076000213623047 -9.812999725341797,14.076000213623047 -9.812999725341797,14.076000213623047z"></path></g><g opacity="1" transform="matrix(1,0,0,1,32.4630012512207,40.367000579833984)"><path fill="rgb(33,50,63)" fill-opacity="1" d=" M-27.476999282836914,-11.965999603271484 C-27.476999282836914,-11.965999603271484 -32.2130012512207,-6.349999904632568 -30.30500030517578,6.077000141143799 C-29.399999618530273,11.965999603271484 -15.670000076293945,11.585000038146973 7.501999855041504,11.585000038146973 C7.501999855041504,11.585000038146973 25.496000289916992,11.585000038146973 25.496000289916992,11.585000038146973 C25.496000289916992,11.585000038146973 32.2130012512207,4.801000118255615 21.527000427246094,1.7089999914169312 C-4.539000034332275,-5.834000110626221 -8.616000175476074,-11.965999603271484 -8.616000175476074,-11.965999603271484 C-8.616000175476074,-11.965999603271484 -27.476999282836914,-11.965999603271484 -27.476999282836914,-11.965999603271484z"></path></g></g><g transform="matrix(1,0,0,1,442.34197998046875,1015.2349853515625)" opacity="1" style="display: block;"><g opacity="1" transform="matrix(1,0,0,1,22.808000564575195,15.708999633789062)"><path fill="rgb(255,194,158)" fill-opacity="1" d=" M9.977999687194824,15.460000038146973 C9.977999687194824,15.460000038146973 -12.305000305175781,14.83899974822998 -12.305000305175781,14.83899974822998 C-12.305000305175781,14.83899974822998 -8.314000129699707,-15.460000038146973 -8.314000129699707,-15.460000038146973 C-8.314000129699707,-15.460000038146973 12.305000305175781,-12.508000373840332 12.305000305175781,-12.508000373840332 C12.305000305175781,-12.508000373840332 9.977999687194824,15.460000038146973 9.977999687194824,15.460000038146973z"></path></g><g opacity="1" transform="matrix(1,0,0,1,18.70800018310547,36.35499954223633)"><path fill="rgb(33,50,63)" fill-opacity="1" d=" M-15.907999992370605,13.925000190734863 C-18.45800018310547,5.947999954223633 -12.470999717712402,0.14900000393390656 -10.586999893188477,-6.894999980926514 C-9.423999786376953,-11.243000030517578 13.925999641418457,-13.925000190734863 16.240999221801758,-4.408999919891357 C18.45800018310547,4.705999851226807 16.68400001525879,13.925000190734863 16.68400001525879,13.925000190734863 C16.68400001525879,13.925000190734863 -15.907999992370605,13.925000190734863 -15.907999992370605,13.925000190734863z"></path></g></g><g transform="matrix(0.999987006187439,-0.005095135886222124,0.005095135886222124,0.999987006187439,346.4718017578125,485.69134521484375)" opacity="1" style="display: block;"><g opacity="1" transform="matrix(1,0,0,1,24.506000518798828,20.9950008392334)"><path fill="rgb(255,194,158)" fill-opacity="1" d=" M24.256000518798828,10.571999549865723 C24.256000518798828,10.571999549865723 16.878000259399414,2.7049999237060547 16.878000259399414,2.7049999237060547 C16.878000259399414,2.7049999237060547 12.067000389099121,-5.535999774932861 9.982000350952148,-8.532999992370605 C7.8979997634887695,-11.529999732971191 1.3229999542236328,-17.073999404907227 0.03999999910593033,-18.42300033569336 C-1.24399995803833,-19.770999908447266 -2.2860000133514404,-17.224000930786133 -0.9229999780654907,-14.826000213623047 C0.4410000145435333,-12.428999900817871 2.506999969482422,-7.230999946594238 2.506999969482422,-7.230999946594238 C2.506999969482422,-7.230999946594238 -11.666999816894531,-16.25 -15.836999893188477,-18.496999740600586 C-20.006000518798828,-20.7450008392334 -21.849000930786133,-19.02199935913086 -21.52899932861328,-18.04800033569336 C-21.52899932861328,-18.04800033569336 -24.09600067138672,-16.100000381469727 -22.01099967956543,-14.22700023651123 C-22.01099967956543,-14.22700023651123 -24.2549991607666,-12.053999900817871 -21.128000259399414,-9.732000350952148 C-21.128000259399414,-9.732000350952148 -23.45400047302246,-7.559000015258789 -18.964000701904297,-4.861999988555908 C-14.473999977111816,-2.1649999618530273 -11.907999992370605,6.077000141143799 -5.01200008392334,8.62399959564209 C1.8839999437332153,11.17199993133545 9.428000450134277,16.323999404907227 13.517999649047852,20.7450008392334 C13.517999649047852,20.7450008392334 24.256000518798828,10.571999549865723 24.256000518798828,10.571999549865723z"></path></g></g><g transform="matrix(0.999987006187439,-0.005095135886222124,0.005095135886222124,0.999987006187439,379.7509765625,493.4898986816406)" opacity="1" style="display: block;"><g opacity="1" transform="matrix(1,0,0,1,67.4530029296875,52.569000244140625)"><path fill="rgb(255,144,20)" fill-opacity="1" d=" M63.111000061035156,-45.59299850463867 C63.111000061035156,-45.59299850463867 67.2030029296875,-19.996000289916992 50.926998138427734,2.678999900817871 C34.4119987487793,25.687999725341797 14.77400016784668,50.051998138427734 2.575000047683716,51.183998107910156 C-9.62399959564209,52.31800079345703 -67.2030029296875,-20.826000213623047 -67.2030029296875,-20.826000213623047 C-67.2030029296875,-20.826000213623047 -53.32699966430664,-35.1609992980957 -53.32699966430664,-35.1609992980957 C-53.32699966430664,-35.1609992980957 0.3330000042915344,11.802000045776367 0.3330000042915344,11.802000045776367 C0.3330000042915344,11.802000045776367 20.325000762939453,-18.395999908447266 24.770999908447266,-26.326000213623047 C29.702999114990234,-35.125 39.957000732421875,-52.31800079345703 50.332000732421875,-50.51300048828125 C60.707000732421875,-48.70800018310547 63.111000061035156,-45.59299850463867 63.111000061035156,-45.59299850463867z"></path></g></g><g transform="matrix(0.9999773502349854,0.006729037966579199,-0.006729037966579199,0.9999773502349854,681.382080078125,473.2552795410156)" opacity="1" style="display: block;"><g opacity="1" transform="matrix(1,0,0,1,24.5049991607666,20.9950008392334)"><path fill="rgb(255,194,158)" fill-opacity="1" d=" M-24.2549991607666,10.571999549865723 C-24.2549991607666,10.571999549865723 -16.878999710083008,2.7049999237060547 -16.878999710083008,2.7049999237060547 C-16.878999710083008,2.7049999237060547 -12.067999839782715,-5.535999774932861 -9.982999801635742,-8.532999992370605 C-7.89900016784668,-11.529999732971191 -1.3229999542236328,-17.073999404907227 -0.03999999910593033,-18.42300033569336 C1.2430000305175781,-19.770999908447266 2.2860000133514404,-17.224000930786133 0.921999990940094,-14.826000213623047 C-0.4410000145435333,-12.428999900817871 -2.507999897003174,-7.230999946594238 -2.507999897003174,-7.230999946594238 C-2.507999897003174,-7.230999946594238 11.666999816894531,-16.25 15.836000442504883,-18.49799919128418 C20.006000518798828,-20.7450008392334 21.850000381469727,-19.02199935913086 21.52899932861328,-18.04800033569336 C21.52899932861328,-18.04800033569336 24.094999313354492,-16.100000381469727 22.010000228881836,-14.22700023651123 C22.010000228881836,-14.22700023651123 24.2549991607666,-12.053999900817871 21.128000259399414,-9.732000350952148 C21.128000259399414,-9.732000350952148 23.45400047302246,-7.559000015258789 18.964000701904297,-4.861999988555908 C14.473999977111816,-2.1640000343322754 11.906999588012695,6.077000141143799 5.011000156402588,8.62399959564209 C-1.8839999437332153,11.17199993133545 -9.428000450134277,16.325000762939453 -13.517999649047852,20.7450008392334 C-13.517999649047852,20.7450008392334 -24.2549991607666,10.571999549865723 -24.2549991607666,10.571999549865723z"></path></g></g><g transform="matrix(0.9999773502349854,0.006729037966579199,-0.006729037966579199,0.9999773502349854,557.81982421875,486.9981384277344)" opacity="1" style="display: block;"><g opacity="1" transform="matrix(1,0,0,1,71.9729995727539,39.39099884033203)"><path fill="rgb(255,144,20)" fill-opacity="1" d=" M-65.93800354003906,-18.878999710083008 C-65.93800354003906,-18.878999710083008 -54.8849983215332,-8.732999801635742 -34.23699951171875,10.585000038146973 C-15.619000434875488,28.0049991607666 4.839000225067139,39.14099884033203 15.222999572753906,33.053001403808594 C25.60700035095215,26.96500015258789 71.7229995727539,-18.283000946044922 71.7229995727539,-18.283000946044922 C71.7229995727539,-18.283000946044922 57.68600082397461,-31.204999923706055 57.68600082397461,-31.204999923706055 C57.68600082397461,-31.204999923706055 9.482000350952148,7.442999839782715 9.482000350952148,7.442999839782715 C9.482000350952148,7.442999839782715 -22.187999725341797,-20.86199951171875 -28.79400062561035,-25.57900047302246 C-35.402000427246094,-30.29599952697754 -57.68899917602539,-39.14099884033203 -64.70600128173828,-31.775999069213867 C-71.7229995727539,-24.40999984741211 -65.93800354003906,-18.878999710083008 -65.93800354003906,-18.878999710083008z"></path></g></g><g transform="matrix(1,0,0,1,476.3909912109375,396.12200927734375)" opacity="1" style="display: block;"><g opacity="1" transform="matrix(1,0,0,1,60.185001373291016,60.702999114990234)"><path fill="rgb(33,50,63)" fill-opacity="1" d=" M41.16899871826172,-42.85599899291992 C41.16899871826172,-42.85599899291992 53.231998443603516,-39.46200180053711 52.26599884033203,-23.552000045776367 C51.29999923706055,-7.64300012588501 47.09400177001953,0.15399999916553497 52.09199905395508,16.81100082397461 C57.0890007019043,33.46900177001953 59.935001373291016,55.34400177001953 29.320999145507812,53.47700119018555 C-1.2929999828338623,51.61000061035156 -10.444999694824219,49.229000091552734 -20.756999969482422,54.840999603271484 C-31.069000244140625,60.452999114990234 -59.935001373291016,35.86899948120117 -45.91600036621094,19.1299991607666 C-31.898000717163086,2.3919999599456787 -26.05900001525879,-7.480999946594238 -28.707000732421875,-22.118000030517578 C-31.35700035095215,-36.75400161743164 -19.315000534057617,-50.93000030517578 -0.18799999356269836,-55.28799819946289 C15.869000434875488,-58.94599914550781 48.119998931884766,-60.452999114990234 41.16899871826172,-42.85599899291992z"></path></g></g><g transform="matrix(1,0,0,1,484.16998291015625,488.33502197265625)" opacity="1" style="display: block;"><g opacity="1" transform="matrix(1,0,0,1,60.96200180053711,71.45800018310547)"><path fill="rgb(255,144,20)" fill-opacity="1" d=" M-47.840999603271484,4.821000099182129 C-43.867000579833984,23.86400032043457 -44.29899978637695,37.89899826049805 -44.290000915527344,71.20800018310547 C-44.290000915527344,71.20800018310547 44.263999938964844,71.20800018310547 44.263999938964844,71.20800018310547 C44.263999938964844,71.20800018310547 41.81399917602539,44.36199951171875 45.80099868774414,27.87700080871582 C46.52299880981445,24.856000900268555 47.46500015258789,22.27400016784668 48.68899917602539,20.454999923706055 C54.999000549316406,11.039999961853027 60.650001525878906,2.240999937057495 60.71200180053711,-7.4679999351501465 C60.71200180053711,-9.8149995803833 60.39899826049805,-12.24899959564209 59.678001403808594,-14.741999626159668 C56.0359992980957,-27.444000244140625 50.54199981689453,-55.573001861572266 43.72999954223633,-63.375 C36.917999267578125,-71.20700073242188 3.00600004196167,-70.20800018310547 3.00600004196167,-70.20800018310547 C3.00600004196167,-70.20800018310547 -41.33599853515625,-70.08499908447266 -54.62200164794922,-63.14099884033203 C-58.16299819946289,-61.290000915527344 -59.52000045776367,-57.12799835205078 -59.803001403808594,-52.14099884033203 C-60.7130012512207,-36.624000549316406 -51.01100158691406,-10.366999626159668 -47.840999603271484,4.821000099182129z"></path></g><g opacity="1" transform="matrix(1,0,0,1,73.95899963378906,81.66100311279297)"><path fill="rgb(255,120,0)" fill-opacity="1" d=" M-47.715999603271484,1.2170000076293945 C-47.715999603271484,1.2170000076293945 14.3149995803833,5.881999969482422 32.80500030517578,17.67300033569336 C33.527000427246094,14.652999877929688 34.46900177001953,12.071999549865723 35.69300079345703,10.251999855041504 C42.00299835205078,0.8370000123977661 47.65399932861328,-7.964000225067139 47.715999603271484,-17.67300033569336 C43.604000091552734,-9.694000244140625 33.11800003051758,0.8949999809265137 6.434999942779541,1.2170000076293945 C-36.47800064086914,1.687000036239624 -47.715999603271484,1.2170000076293945 -47.715999603271484,1.2170000076293945z"></path></g></g><g transform="matrix(1,0,0,1,524.5409545898438,462.85302734375)" opacity="1" style="display: block;"><g opacity="1" transform="matrix(1,0,0,1,23.124000549316406,39.18299865722656)"><path fill="rgb(255,194,158)" fill-opacity="1" d=" M22.628999710083008,-11.5600004196167 C22.628999710083008,-11.5600004196167 22.874000549316406,4.638000011444092 11.116999626159668,13.925999641418457 C11.116999626159668,13.925999641418457 -13.850000381469727,3.0490000247955322 -22.875,-11.524999618530273 C-22.875,-11.524999618530273 0.5709999799728394,-13.925999641418457 22.628999710083008,-11.5600004196167z"></path></g><g opacity="1" transform="matrix(1,0,0,1,22.913000106811523,18.17799949645996)"><path fill="rgb(255,194,158)" fill-opacity="1" d=" M17.757999420166016,8.982999801635742 C17.757999420166016,8.982999801635742 11.607000350952148,8.395999908447266 11.607000350952148,1.649999976158142 C11.607000350952148,-5.09499979019165 10.88700008392334,-17.92799949645996 10.88700008392334,-17.92799949645996 C10.88700008392334,-17.92799949645996 -12.263999938964844,-16.094999313354492 -12.263999938964844,-16.094999313354492 C-12.263999938964844,-16.094999313354492 -10.303000450134277,5.09499979019165 -14.031000137329102,8.982999801635742 C-14.031000137329102,8.982999801635742 -17.757999420166016,12.871000289916992 -17.757999420166016,12.871000289916992 C-17.757999420166016,12.871000289916992 14.032999992370605,17.92799949645996 17.757999420166016,8.982999801635742z"></path></g><g opacity="1" transform="matrix(1,0,0,1,22.58099937438965,10.699999809265137)"><path fill="rgb(255,170,126)" fill-opacity="1" d=" M11.932000160217285,6.415999889373779 C11.932000160217285,6.415999889373779 -3.2920000553131104,8.616000175476074 -11.416999816894531,2.565999984741211 C-11.416999816894531,2.565999984741211 -11.932000160217285,-8.616000175476074 -11.932000160217285,-8.616000175476074 C-11.932000160217285,-8.616000175476074 11.932000160217285,-3.7899999618530273 11.932000160217285,-3.7899999618530273 C11.932000160217285,-3.7899999618530273 11.932000160217285,6.415999889373779 11.932000160217285,6.415999889373779z"></path></g></g><g transform="matrix(1,0,0,1,522.322998046875,409.49200439453125)" opacity="1" style="display: block;"><g opacity="1" transform="matrix(1,0,0,1,34.2400016784668,36.32600021362305)"><path fill="rgb(255,194,158)" fill-opacity="1" d=" M21.211999893188477,-22.774999618530273 C21.211999893188477,-22.774999618530273 33.9900016784668,31.56999969482422 4.763000011444092,33.823001861572266 C-24.46299934387207,36.07600021362305 -26.32900047302246,7.72599983215332 -26.32900047302246,7.72599983215332 C-26.32900047302246,7.72599983215332 -33.43199920654297,5.176000118255615 -33.71699905395508,-0.9070000052452087 C-33.99100112915039,-6.800000190734863 -25.763999938964844,-3.5480000972747803 -25.763999938964844,-3.5480000972747803 C-25.763999938964844,-3.5480000972747803 -30.24799919128418,-25.799999237060547 -12.081000328063965,-30.81100082397461 C7.013999938964844,-36.07600021362305 18.770000457763672,-30.59000015258789 21.211999893188477,-22.774999618530273z"></path></g></g><g transform="matrix(1,0,0,1,524.6929931640625,402.37298583984375)" opacity="1" style="display: block;"><g opacity="1" transform="matrix(1,0,0,1,25.767000198364258,21.250999450683594)"><path fill="rgb(33,50,63)" fill-opacity="1" d=" M25.517000198364258,-7.25600004196167 C25.517000198364258,-7.25600004196167 14.843000411987305,21.000999450683594 -19.65999984741211,18.645999908447266 C-19.65999984741211,18.645999908447266 -25.517000198364258,-3.052000045776367 -18.301000595092773,-11.026000022888184 C-11.085000038146973,-18.999000549316406 17.197999954223633,-21.000999450683594 25.517000198364258,-7.25600004196167z"></path></g></g><g transform="matrix(1,0,0,1,450.5000305175781,630.75)" opacity="1" style="display: block;"><g opacity="1" transform="matrix(1,0,0,1,87.8010025024414,201.81900024414062)"><path fill="rgb(33,50,63)" fill-opacity="1" d=" M-37.45800018310547,-201.56900024414062 C-37.45800018310547,-201.56900024414062 -77.19000244140625,-144.1060028076172 -87.5510025024414,201.56900024414062 C-87.5510025024414,201.56900024414062 -59.89500045776367,201.56900024414062 -59.89500045776367,201.56900024414062 C-59.89500045776367,201.56900024414062 -3.111999988555908,-32.30099868774414 3.6989998817443848,-102.1050033569336 C4.48199987411499,-97.25700378417969 23.990999221801758,201.56900024414062 23.990999221801758,201.56900024414062 C23.990999221801758,201.56900024414062 51.678001403808594,201.56900024414062 51.678001403808594,201.56900024414062 C51.678001403808594,201.56900024414062 87.5510025024414,-161.593994140625 51.095001220703125,-201.56900024414062 C51.095001220703125,-201.56900024414062 -37.45800018310547,-201.56900024414062 -37.45800018310547,-201.56900024414062z"></path></g></g><g transform="matrix(0.9997867345809937,0.02065037004649639,-0.02065037004649639,0.9997867345809937,296.36376953125,801.5034790039062)" opacity="1" style="display: block;"><g opacity="1" transform="matrix(1,0,0,1,62.801998138427734,122.802001953125)"><path fill="rgb(255,120,0)" fill-opacity="1" d=" M-27.576000213623047,-54.04800033569336 C7.400000095367432,-122.552001953125 62.551998138427734,-79.81600189208984 39.683998107910156,-32.680999755859375 C16.815000534057617,14.454999923706055 -43.71900177001953,122.552001953125 -43.71900177001953,122.552001953125 C-43.71900177001953,122.552001953125 -62.551998138427734,14.454999923706055 -27.576000213623047,-54.04800033569336z"></path></g><g opacity="1" transform="matrix(1,0,0,1,46.99700164794922,157.0540008544922)"><path stroke-linecap="butt" stroke-linejoin="miter" fill-opacity="0" stroke-miterlimit="10" stroke="rgb(255,255,255)" stroke-opacity="1" stroke-width="1.063" d=" M-27.913000106811523,88.30000305175781 C-27.913000106811523,88.30000305175781 -9.753000259399414,-18.540000915527344 27.913000106811523,-88.30000305175781"></path></g></g><g transform="matrix(1,0,0,1,163.67999267578125,836.93896484375)" opacity="1" style="display: block;"><g opacity="1" transform="matrix(1,0,0,1,67.51100158691406,101.43399810791016)"><path fill="rgb(255,120,0)" fill-opacity="1" d=" M8.744000434875488,-57.81999969482422 C-49.099998474121094,-101.18399810791016 -67.26100158691406,-54.676998138427734 -44.391998291015625,-20.739999771118164 C-21.52400016784668,13.197999954223633 67.26100158691406,101.18399810791016 67.26100158691406,101.18399810791016 C67.26100158691406,101.18399810791016 66.58799743652344,-14.456000328063965 8.744000434875488,-57.81999969482422z"></path></g><g opacity="1" transform="matrix(1,0,0,1,88.36199951171875,126.88700103759766)"><path stroke-linecap="butt" stroke-linejoin="miter" fill-opacity="0" stroke-miterlimit="10" stroke="rgb(255,255,255)" stroke-opacity="1" stroke-width="1.063" d=" M46.40999984741211,70.0739974975586 C46.40999984741211,70.0739974975586 28.249000549316406,9.112000465393066 -46.40999984741211,-70.0739974975586"></path></g></g><g transform="matrix(0.9989079833030701,0.046720411628484726,-0.046720411628484726,0.9989079833030701,252.0786590576172,736.78857421875)" opacity="1" style="display: block;"><g opacity="1" transform="matrix(1,0,0,1,49.303001403808594,150.13900756835938)"><path fill="rgb(255,144,20)" fill-opacity="1" d=" M16.527000427246094,149.88999938964844 C16.527000427246094,149.88999938964844 -49.053001403808594,-14.140000343322754 -34.928001403808594,-82.01499938964844 C-20.80299949645996,-149.88900756835938 49.051998138427734,-115.83499908447266 47.03499984741211,-69.3280029296875 C45.016998291015625,-22.820999145507812 16.527000427246094,149.88999938964844 16.527000427246094,149.88999938964844z"></path></g><g opacity="1" transform="matrix(1,0,0,1,60.11199951171875,184.07699584960938)"><path stroke-linecap="butt" stroke-linejoin="miter" fill-opacity="0" stroke-miterlimit="10" stroke="rgb(255,255,255)" stroke-opacity="1" stroke-width="1.063" d=" M5.7170000076293945,115.9520034790039 C5.7170000076293945,115.9520034790039 -3.0269999504089355,-33.62200164794922 -5.7170000076293945,-115.9520034790039"></path></g></g><g transform="matrix(1,0,0,1,273.63299560546875,1018.7240600585938)" opacity="1" style="display: block;"><g opacity="1" transform="matrix(1,0,0,1,32.53499984741211,6.349999904632568)"><path fill="rgb(33,50,63)" fill-opacity="1" d=" M32.28499984741211,6.099999904632568 C32.28499984741211,6.099999904632568 -32.28499984741211,6.099999904632568 -32.28499984741211,6.099999904632568 C-32.28499984741211,6.099999904632568 -32.28499984741211,-6.099999904632568 -32.28499984741211,-6.099999904632568 C-32.28499984741211,-6.099999904632568 32.28499984741211,-6.099999904632568 32.28499984741211,-6.099999904632568 C32.28499984741211,-6.099999904632568 32.28499984741211,6.099999904632568 32.28499984741211,6.099999904632568z"></path></g><g opacity="1" transform="matrix(1,0,0,1,32.53499984741211,30.305999755859375)"><path fill="rgb(33,50,63)" fill-opacity="1" d=" M20.774999618530273,17.856000900268555 C20.774999618530273,17.856000900268555 -20.774999618530273,17.856000900268555 -20.774999618530273,17.856000900268555 C-20.774999618530273,17.856000900268555 -28.84600067138672,-17.856000900268555 -28.84600067138672,-17.856000900268555 C-28.84600067138672,-17.856000900268555 28.84600067138672,-17.856000900268555 28.84600067138672,-17.856000900268555 C28.84600067138672,-17.856000900268555 20.774999618530273,17.856000900268555 20.774999618530273,17.856000900268555z"></path></g></g><g transform="matrix(1.190000057220459,0,0,1.190000057220459,1582.5255126953125,762.9838256835938)" opacity="1" style="display: block;"><g opacity="1" transform="matrix(1,0,0,1,62.801998138427734,122.802001953125)"><path fill="rgb(255,120,0)" fill-opacity="1" d=" M-27.576000213623047,-54.04800033569336 C7.400000095367432,-122.552001953125 62.551998138427734,-79.81600189208984 39.683998107910156,-32.680999755859375 C16.815000534057617,14.454999923706055 -43.71900177001953,122.552001953125 -43.71900177001953,122.552001953125 C-43.71900177001953,122.552001953125 -62.551998138427734,14.454999923706055 -27.576000213623047,-54.04800033569336z"></path></g><g opacity="1" transform="matrix(1,0,0,1,46.99700164794922,157.0540008544922)"><path stroke-linecap="butt" stroke-linejoin="miter" fill-opacity="0" stroke-miterlimit="10" stroke="rgb(255,255,255)" stroke-opacity="1" stroke-width="1.063" d=" M-27.913000106811523,88.30000305175781 C-27.913000106811523,88.30000305175781 -9.753000259399414,-18.540000915527344 27.913000106811523,-88.30000305175781"></path></g></g><g transform="matrix(1.190000057220459,0,0,1.190000057220459,1430.1341552734375,801.70654296875)" opacity="1" style="display: block;"><g opacity="1" transform="matrix(1,0,0,1,67.51100158691406,101.43399810791016)"><path fill="rgb(255,120,0)" fill-opacity="1" d=" M8.744000434875488,-57.81999969482422 C-49.099998474121094,-101.18399810791016 -67.26100158691406,-54.676998138427734 -44.391998291015625,-20.739999771118164 C-21.52400016784668,13.197999954223633 67.26100158691406,101.18399810791016 67.26100158691406,101.18399810791016 C67.26100158691406,101.18399810791016 66.58799743652344,-14.456000328063965 8.744000434875488,-57.81999969482422z"></path></g><g opacity="1" transform="matrix(1,0,0,1,88.36199951171875,126.88700103759766)"><path stroke-linecap="butt" stroke-linejoin="miter" fill-opacity="0" stroke-miterlimit="10" stroke="rgb(255,255,255)" stroke-opacity="1" stroke-width="1.063" d=" M46.40999984741211,70.0739974975586 C46.40999984741211,70.0739974975586 28.249000549316406,9.112000465393066 -46.40999984741211,-70.0739974975586"></path></g></g><g transform="matrix(1.190000057220459,0,0,1.190000057220459,1519.2684326171875,685.3128051757812)" opacity="1" style="display: block;"><g opacity="1" transform="matrix(1,0,0,1,49.303001403808594,150.13900756835938)"><path fill="rgb(255,144,20)" fill-opacity="1" d=" M16.527000427246094,149.88999938964844 C16.527000427246094,149.88999938964844 -49.053001403808594,-14.140000343322754 -34.928001403808594,-82.01499938964844 C-20.80299949645996,-149.88900756835938 49.051998138427734,-115.83499908447266 47.03499984741211,-69.3280029296875 C45.016998291015625,-22.820999145507812 16.527000427246094,149.88999938964844 16.527000427246094,149.88999938964844z"></path></g><g opacity="1" transform="matrix(1,0,0,1,60.11199951171875,184.07699584960938)"><path stroke-linecap="butt" stroke-linejoin="miter" fill-opacity="0" stroke-miterlimit="10" stroke="rgb(255,255,255)" stroke-opacity="1" stroke-width="1.063" d=" M5.7170000076293945,115.9520034790039 C5.7170000076293945,115.9520034790039 -3.0269999504089355,-33.62200164794922 -5.7170000076293945,-115.9520034790039"></path></g></g><g transform="matrix(1.190000057220459,0,0,1.190000057220459,1560.4512939453125,1014.1249389648438)" opacity="1" style="display: block;"><g opacity="1" transform="matrix(1,0,0,1,32.53499984741211,6.349999904632568)"><path fill="rgb(33,50,63)" fill-opacity="1" d=" M32.28499984741211,6.099999904632568 C32.28499984741211,6.099999904632568 -32.28499984741211,6.099999904632568 -32.28499984741211,6.099999904632568 C-32.28499984741211,6.099999904632568 -32.28499984741211,-6.099999904632568 -32.28499984741211,-6.099999904632568 C-32.28499984741211,-6.099999904632568 32.28499984741211,-6.099999904632568 32.28499984741211,-6.099999904632568 C32.28499984741211,-6.099999904632568 32.28499984741211,6.099999904632568 32.28499984741211,6.099999904632568z"></path></g><g opacity="1" transform="matrix(1,0,0,1,32.53499984741211,30.305999755859375)"><path fill="rgb(33,50,63)" fill-opacity="1" d=" M20.774999618530273,17.856000900268555 C20.774999618530273,17.856000900268555 -20.774999618530273,17.856000900268555 -20.774999618530273,17.856000900268555 C-20.774999618530273,17.856000900268555 -28.84600067138672,-17.856000900268555 -28.84600067138672,-17.856000900268555 C-28.84600067138672,-17.856000900268555 28.84600067138672,-17.856000900268555 28.84600067138672,-17.856000900268555 C28.84600067138672,-17.856000900268555 20.774999618530273,17.856000900268555 20.774999618530273,17.856000900268555z"></path></g></g></g></svg>