<svg xmlns="http://www.w3.org/2000/svg" xmlns:xlink="http://www.w3.org/1999/xlink" viewBox="0 0 1024 1024" width="1024" height="1024" preserveAspectRatio="xMidYMid meet" style="width: 100%; height: 100%; transform: translate3d(0px, 0px, 0px); content-visibility: visible;"><defs><clipPath id="__lottie_element_349"><rect width="1024" height="1024" x="0" y="0"></rect></clipPath></defs><g clip-path="url(#__lottie_element_349)"><g transform="matrix(6,0,0,6,288.00201416015625,425.754150390625)" opacity="1" style="display: block;"><g opacity="1" transform="matrix(1,0,0,1,21.166000366210938,38.49599838256836)"><path fill="rgb(229,94,72)" fill-opacity="1" d=" M-16.16699981689453,-15.585000038146973 C-16.16699981689453,-15.585000038146973 -16.16699981689453,-3.0940001010894775 -16.16699981689453,-3.0940001010894775 C-16.16699981689453,-3.0940001010894775 16.16699981689453,15.585000038146973 16.16699981689453,15.585000038146973 C16.16699981689453,15.585000038146973 16.16699981689453,3.0940001010894775 16.16699981689453,3.0940001010894775 C16.16699981689453,3.0940001010894775 -16.16699981689453,-15.585000038146973 -16.16699981689453,-15.585000038146973z"></path><path stroke-linecap="round" stroke-linejoin="round" fill-opacity="0" stroke="rgb(18,19,48)" stroke-opacity="1" stroke-width="2" d=" M-16.16699981689453,-15.585000038146973 C-16.16699981689453,-15.585000038146973 -16.16699981689453,-3.0940001010894775 -16.16699981689453,-3.0940001010894775 C-16.16699981689453,-3.0940001010894775 16.16699981689453,15.585000038146973 16.16699981689453,15.585000038146973 C16.16699981689453,15.585000038146973 16.16699981689453,3.0940001010894775 16.16699981689453,3.0940001010894775 C16.16699981689453,3.0940001010894775 -16.16699981689453,-15.585000038146973 -16.16699981689453,-15.585000038146973z"></path></g><g opacity="1" transform="matrix(1,0,0,1,53.5,38.49599838256836)"><path fill="rgb(229,94,72)" fill-opacity="1" d=" M16.16699981689453,-15.585000038146973 C16.16699981689453,-15.585000038146973 16.16699981689453,-3.0940001010894775 16.16699981689453,-3.0940001010894775 C16.16699981689453,-3.0940001010894775 -16.16699981689453,15.585000038146973 -16.16699981689453,15.585000038146973 C-16.16699981689453,15.585000038146973 -16.16699981689453,3.0940001010894775 -16.16699981689453,3.0940001010894775 C-16.16699981689453,3.0940001010894775 16.16699981689453,-15.585000038146973 16.16699981689453,-15.585000038146973z"></path><path stroke-linecap="round" stroke-linejoin="round" fill-opacity="0" stroke="rgb(18,19,48)" stroke-opacity="1" stroke-width="2" d=" M16.16699981689453,-15.585000038146973 C16.16699981689453,-15.585000038146973 16.16699981689453,-3.0940001010894775 16.16699981689453,-3.0940001010894775 C16.16699981689453,-3.0940001010894775 -16.16699981689453,15.585000038146973 -16.16699981689453,15.585000038146973 C-16.16699981689453,15.585000038146973 -16.16699981689453,3.0940001010894775 -16.16699981689453,3.0940001010894775 C-16.16699981689453,3.0940001010894775 16.16699981689453,-15.585000038146973 16.16699981689453,-15.585000038146973z"></path></g><g opacity="1" transform="matrix(1,0,0,1,37.33300018310547,23.295000076293945)"><path fill="rgb(229,94,72)" fill-opacity="1" d=" M-32.33300018310547,-0.382999986410141 C-32.33300018310547,-0.382999986410141 -0.0010000000474974513,18.29400062561035 -0.0010000000474974513,18.29400062561035 C-0.0010000000474974513,18.29400062561035 32.33300018310547,-0.382999986410141 32.33300018310547,-0.382999986410141 C32.33300018310547,-0.382999986410141 -0.0010000000474974513,-18.29400062561035 -0.0010000000474974513,-18.29400062561035 C-0.0010000000474974513,-18.29400062561035 -32.33300018310547,-0.382999986410141 -32.33300018310547,-0.382999986410141z"></path><path stroke-linecap="round" stroke-linejoin="round" fill-opacity="0" stroke="rgb(18,19,48)" stroke-opacity="1" stroke-width="2" d=" M-32.33300018310547,-0.382999986410141 C-32.33300018310547,-0.382999986410141 -0.0010000000474974513,18.29400062561035 -0.0010000000474974513,18.29400062561035 C-0.0010000000474974513,18.29400062561035 32.33300018310547,-0.382999986410141 32.33300018310547,-0.382999986410141 C32.33300018310547,-0.382999986410141 -0.0010000000474974513,-18.29400062561035 -0.0010000000474974513,-18.29400062561035 C-0.0010000000474974513,-18.29400062561035 -32.33300018310547,-0.382999986410141 -32.33300018310547,-0.382999986410141z"></path></g><g opacity="1" transform="matrix(1,0,0,1,36.77199935913086,32.62200164794922)"><path fill="rgb(229,94,72)" fill-opacity="1" d=" M-5.211999893188477,-3.822999954223633 C-5.211999893188477,-3.822999954223633 -5.211999893188477,0.5789999961853027 -5.211999893188477,0.5789999961853027 C-5.211999893188477,2.369999885559082 -2.880000114440918,3.822000026702881 -0.0010000000474974513,3.822000026702881 C2.878000020980835,3.822000026702881 5.211999893188477,2.369999885559082 5.211999893188477,0.5789999961853027 C5.211999893188477,0.5789999961853027 5.211999893188477,-3.822999954223633 5.211999893188477,-3.822999954223633 C5.211999893188477,-3.822999954223633 -5.211999893188477,-3.822999954223633 -5.211999893188477,-3.822999954223633z"></path><path stroke-linecap="round" stroke-linejoin="round" fill-opacity="0" stroke="rgb(18,19,48)" stroke-opacity="1" stroke-width="2" d=" M-5.211999893188477,-3.822999954223633 C-5.211999893188477,-3.822999954223633 -5.211999893188477,0.5789999961853027 -5.211999893188477,0.5789999961853027 C-5.211999893188477,2.369999885559082 -2.880000114440918,3.822000026702881 -0.0010000000474974513,3.822000026702881 C2.878000020980835,3.822000026702881 5.211999893188477,2.369999885559082 5.211999893188477,0.5789999961853027 C5.211999893188477,0.5789999961853027 5.211999893188477,-3.822999954223633 5.211999893188477,-3.822999954223633 C5.211999893188477,-3.822999954223633 -5.211999893188477,-3.822999954223633 -5.211999893188477,-3.822999954223633z"></path></g><g opacity="1" transform="matrix(1,0,0,1,36.770999908447266,28.799999237060547)"><path fill="rgb(229,94,72)" fill-opacity="1" d=" M5.2129998207092285,0 C5.2129998207092285,1.7910000085830688 2.878999948501587,3.243000030517578 0.0010000000474974513,3.243000030517578 C-2.878000020980835,3.243000030517578 -5.2129998207092285,1.7910000085830688 -5.2129998207092285,0 C-5.2129998207092285,-1.7910000085830688 -2.878000020980835,-3.243000030517578 0.0010000000474974513,-3.243000030517578 C2.878999948501587,-3.243000030517578 5.2129998207092285,-1.7910000085830688 5.2129998207092285,0z"></path><path stroke-linecap="round" stroke-linejoin="round" fill-opacity="0" stroke="rgb(18,19,48)" stroke-opacity="1" stroke-width="2" d=" M5.2129998207092285,0 C5.2129998207092285,1.7910000085830688 2.878999948501587,3.243000030517578 0.0010000000474974513,3.243000030517578 C-2.878000020980835,3.243000030517578 -5.2129998207092285,1.7910000085830688 -5.2129998207092285,0 C-5.2129998207092285,-1.7910000085830688 -2.878000020980835,-3.243000030517578 0.0010000000474974513,-3.243000030517578 C2.878999948501587,-3.243000030517578 5.2129998207092285,-1.7910000085830688 5.2129998207092285,0z"></path></g><g opacity="1" transform="matrix(1,0,0,1,53.5,23.349000930786133)"><path fill="rgb(229,94,72)" fill-opacity="1" d=" M-5.211999893188477,-3.822000026702881 C-5.211999893188477,-3.822000026702881 -5.211999893188477,0.5789999961853027 -5.211999893188477,0.5789999961853027 C-5.211999893188477,2.369999885559082 -2.878000020980835,3.822000026702881 0.0010000000474974513,3.822000026702881 C2.878999948501587,3.822000026702881 5.211999893188477,2.369999885559082 5.211999893188477,0.5789999961853027 C5.211999893188477,0.5789999961853027 5.211999893188477,-3.822000026702881 5.211999893188477,-3.822000026702881 C5.211999893188477,-3.822000026702881 -5.211999893188477,-3.822000026702881 -5.211999893188477,-3.822000026702881z"></path><path stroke-linecap="round" stroke-linejoin="round" fill-opacity="0" stroke="rgb(18,19,48)" stroke-opacity="1" stroke-width="2" d=" M-5.211999893188477,-3.822000026702881 C-5.211999893188477,-3.822000026702881 -5.211999893188477,0.5789999961853027 -5.211999893188477,0.5789999961853027 C-5.211999893188477,2.369999885559082 -2.878000020980835,3.822000026702881 0.0010000000474974513,3.822000026702881 C2.878999948501587,3.822000026702881 5.211999893188477,2.369999885559082 5.211999893188477,0.5789999961853027 C5.211999893188477,0.5789999961853027 5.211999893188477,-3.822000026702881 5.211999893188477,-3.822000026702881 C5.211999893188477,-3.822000026702881 -5.211999893188477,-3.822000026702881 -5.211999893188477,-3.822000026702881z"></path></g><g opacity="1" transform="matrix(1,0,0,1,53.5,19.525999069213867)"><path fill="rgb(229,94,72)" fill-opacity="1" d=" M5.2129998207092285,0 C5.2129998207092285,1.7910000085830688 2.878999948501587,3.243000030517578 0.0010000000474974513,3.243000030517578 C-2.878000020980835,3.243000030517578 -5.2129998207092285,1.7910000085830688 -5.2129998207092285,0 C-5.2129998207092285,-1.7910000085830688 -2.878000020980835,-3.243000030517578 0.0010000000474974513,-3.243000030517578 C2.878999948501587,-3.243000030517578 5.2129998207092285,-1.7910000085830688 5.2129998207092285,0z"></path><path stroke-linecap="round" stroke-linejoin="round" fill-opacity="0" stroke="rgb(18,19,48)" stroke-opacity="1" stroke-width="2" d=" M5.2129998207092285,0 C5.2129998207092285,1.7910000085830688 2.878999948501587,3.243000030517578 0.0010000000474974513,3.243000030517578 C-2.878000020980835,3.243000030517578 -5.2129998207092285,1.7910000085830688 -5.2129998207092285,0 C-5.2129998207092285,-1.7910000085830688 -2.878000020980835,-3.243000030517578 0.0010000000474974513,-3.243000030517578 C2.878999948501587,-3.243000030517578 5.2129998207092285,-1.7910000085830688 5.2129998207092285,0z"></path></g><g opacity="1" transform="matrix(1,0,0,1,21.32200050354004,23.349000930786133)"><path fill="rgb(229,94,72)" fill-opacity="1" d=" M-5.211999893188477,-3.822000026702881 C-5.211999893188477,-3.822000026702881 -5.211999893188477,0.5789999961853027 -5.211999893188477,0.5789999961853027 C-5.211999893188477,2.369999885559082 -2.878000020980835,3.822000026702881 0,3.822000026702881 C2.878999948501587,3.822000026702881 5.211999893188477,2.369999885559082 5.211999893188477,0.5789999961853027 C5.211999893188477,0.5789999961853027 5.211999893188477,-3.822000026702881 5.211999893188477,-3.822000026702881 C5.211999893188477,-3.822000026702881 -5.211999893188477,-3.822000026702881 -5.211999893188477,-3.822000026702881z"></path><path stroke-linecap="round" stroke-linejoin="round" fill-opacity="0" stroke="rgb(18,19,48)" stroke-opacity="1" stroke-width="2" d=" M-5.211999893188477,-3.822000026702881 C-5.211999893188477,-3.822000026702881 -5.211999893188477,0.5789999961853027 -5.211999893188477,0.5789999961853027 C-5.211999893188477,2.369999885559082 -2.878000020980835,3.822000026702881 0,3.822000026702881 C2.878999948501587,3.822000026702881 5.211999893188477,2.369999885559082 5.211999893188477,0.5789999961853027 C5.211999893188477,0.5789999961853027 5.211999893188477,-3.822000026702881 5.211999893188477,-3.822000026702881 C5.211999893188477,-3.822000026702881 -5.211999893188477,-3.822000026702881 -5.211999893188477,-3.822000026702881z"></path></g><g opacity="1" transform="matrix(1,0,0,1,21.322999954223633,19.525999069213867)"><path fill="rgb(229,94,72)" fill-opacity="1" d=" M5.211999893188477,0 C5.211999893188477,1.7910000085830688 2.878999948501587,3.243000030517578 0,3.243000030517578 C-2.878999948501587,3.243000030517578 -5.211999893188477,1.7910000085830688 -5.211999893188477,0 C-5.211999893188477,-1.7910000085830688 -2.878999948501587,-3.243000030517578 0,-3.243000030517578 C2.878999948501587,-3.243000030517578 5.211999893188477,-1.7910000085830688 5.211999893188477,0z"></path><path stroke-linecap="round" stroke-linejoin="round" fill-opacity="0" stroke="rgb(18,19,48)" stroke-opacity="1" stroke-width="2" d=" M5.211999893188477,0 C5.211999893188477,1.7910000085830688 2.878999948501587,3.243000030517578 0,3.243000030517578 C-2.878999948501587,3.243000030517578 -5.211999893188477,1.7910000085830688 -5.211999893188477,0 C-5.211999893188477,-1.7910000085830688 -2.878999948501587,-3.243000030517578 0,-3.243000030517578 C2.878999948501587,-3.243000030517578 5.211999893188477,-1.7910000085830688 5.211999893188477,0z"></path></g><g opacity="1" transform="matrix(1,0,0,1,38.051998138427734,14.076000213623047)"><path fill="rgb(229,94,72)" fill-opacity="1" d=" M-5.211999893188477,-3.822000026702881 C-5.211999893188477,-3.822000026702881 -5.211999893188477,0.5789999961853027 -5.211999893188477,0.5789999961853027 C-5.211999893188477,2.371000051498413 -2.880000114440918,3.822000026702881 -0.0010000000474974513,3.822000026702881 C2.878000020980835,3.822000026702881 5.2129998207092285,2.371000051498413 5.2129998207092285,0.5789999961853027 C5.2129998207092285,0.5789999961853027 5.2129998207092285,-3.822000026702881 5.2129998207092285,-3.822000026702881 C5.2129998207092285,-3.822000026702881 -5.211999893188477,-3.822000026702881 -5.211999893188477,-3.822000026702881z"></path><path stroke-linecap="round" stroke-linejoin="round" fill-opacity="0" stroke="rgb(18,19,48)" stroke-opacity="1" stroke-width="2" d=" M-5.211999893188477,-3.822000026702881 C-5.211999893188477,-3.822000026702881 -5.211999893188477,0.5789999961853027 -5.211999893188477,0.5789999961853027 C-5.211999893188477,2.371000051498413 -2.880000114440918,3.822000026702881 -0.0010000000474974513,3.822000026702881 C2.878000020980835,3.822000026702881 5.2129998207092285,2.371000051498413 5.2129998207092285,0.5789999961853027 C5.2129998207092285,0.5789999961853027 5.2129998207092285,-3.822000026702881 5.2129998207092285,-3.822000026702881 C5.2129998207092285,-3.822000026702881 -5.211999893188477,-3.822000026702881 -5.211999893188477,-3.822000026702881z"></path></g><g opacity="1" transform="matrix(1,0,0,1,38.051998138427734,10.253000259399414)"><path fill="rgb(229,94,72)" fill-opacity="1" d=" M5.2129998207092285,0 C5.2129998207092285,1.7920000553131104 2.878999948501587,3.243000030517578 0.0010000000474974513,3.243000030517578 C-2.878000020980835,3.243000030517578 -5.2129998207092285,1.7920000553131104 -5.2129998207092285,0 C-5.2129998207092285,-1.7910000085830688 -2.878000020980835,-3.243000030517578 0.0010000000474974513,-3.243000030517578 C2.878999948501587,-3.243000030517578 5.2129998207092285,-1.7910000085830688 5.2129998207092285,0z"></path><path stroke-linecap="round" stroke-linejoin="round" fill-opacity="0" stroke="rgb(18,19,48)" stroke-opacity="1" stroke-width="2" d=" M5.2129998207092285,0 C5.2129998207092285,1.7920000553131104 2.878999948501587,3.243000030517578 0.0010000000474974513,3.243000030517578 C-2.878000020980835,3.243000030517578 -5.2129998207092285,1.7920000553131104 -5.2129998207092285,0 C-5.2129998207092285,-1.7910000085830688 -2.878000020980835,-3.243000030517578 0.0010000000474974513,-3.243000030517578 C2.878999948501587,-3.243000030517578 5.2129998207092285,-1.7910000085830688 5.2129998207092285,0z"></path></g></g><g transform="matrix(6,0,0,6,288.00201416015625,350.75799560546875)" opacity="1" style="display: block;"><g opacity="1" transform="matrix(1,0,0,1,21.166000366210938,38.49599838256836)"><path fill="rgb(255,204,51)" fill-opacity="1" d=" M-16.16699981689453,-15.585000038146973 C-16.16699981689453,-15.585000038146973 -16.16699981689453,-3.0920000076293945 -16.16699981689453,-3.0920000076293945 C-16.16699981689453,-3.0920000076293945 16.16699981689453,15.585000038146973 16.16699981689453,15.585000038146973 C16.16699981689453,15.585000038146973 16.16699981689453,3.0940001010894775 16.16699981689453,3.0940001010894775 C16.16699981689453,3.0940001010894775 -16.16699981689453,-15.585000038146973 -16.16699981689453,-15.585000038146973z"></path><path stroke-linecap="round" stroke-linejoin="round" fill-opacity="0" stroke="rgb(18,19,48)" stroke-opacity="1" stroke-width="2" d=" M-16.16699981689453,-15.585000038146973 C-16.16699981689453,-15.585000038146973 -16.16699981689453,-3.0920000076293945 -16.16699981689453,-3.0920000076293945 C-16.16699981689453,-3.0920000076293945 16.16699981689453,15.585000038146973 16.16699981689453,15.585000038146973 C16.16699981689453,15.585000038146973 16.16699981689453,3.0940001010894775 16.16699981689453,3.0940001010894775 C16.16699981689453,3.0940001010894775 -16.16699981689453,-15.585000038146973 -16.16699981689453,-15.585000038146973z"></path></g><g opacity="1" transform="matrix(1,0,0,1,53.5,38.49599838256836)"><path fill="rgb(255,204,51)" fill-opacity="1" d=" M16.16699981689453,-15.585000038146973 C16.16699981689453,-15.585000038146973 16.16699981689453,-3.0920000076293945 16.16699981689453,-3.0920000076293945 C16.16699981689453,-3.0920000076293945 -16.16699981689453,15.585000038146973 -16.16699981689453,15.585000038146973 C-16.16699981689453,15.585000038146973 -16.16699981689453,3.0940001010894775 -16.16699981689453,3.0940001010894775 C-16.16699981689453,3.0940001010894775 16.16699981689453,-15.585000038146973 16.16699981689453,-15.585000038146973z"></path><path stroke-linecap="round" stroke-linejoin="round" fill-opacity="0" stroke="rgb(18,19,48)" stroke-opacity="1" stroke-width="2" d=" M16.16699981689453,-15.585000038146973 C16.16699981689453,-15.585000038146973 16.16699981689453,-3.0920000076293945 16.16699981689453,-3.0920000076293945 C16.16699981689453,-3.0920000076293945 -16.16699981689453,15.585000038146973 -16.16699981689453,15.585000038146973 C-16.16699981689453,15.585000038146973 -16.16699981689453,3.0940001010894775 -16.16699981689453,3.0940001010894775 C-16.16699981689453,3.0940001010894775 16.16699981689453,-15.585000038146973 16.16699981689453,-15.585000038146973z"></path></g><g opacity="1" transform="matrix(1,0,0,1,37.33300018310547,23.295000076293945)"><path fill="rgb(255,204,51)" fill-opacity="1" d=" M-32.33300018310547,-0.382999986410141 C-32.33300018310547,-0.382999986410141 -0.0010000000474974513,18.29400062561035 -0.0010000000474974513,18.29400062561035 C-0.0010000000474974513,18.29400062561035 32.33300018310547,-0.382999986410141 32.33300018310547,-0.382999986410141 C32.33300018310547,-0.382999986410141 -0.0010000000474974513,-18.29400062561035 -0.0010000000474974513,-18.29400062561035 C-0.0010000000474974513,-18.29400062561035 -32.33300018310547,-0.382999986410141 -32.33300018310547,-0.382999986410141z"></path><path stroke-linecap="round" stroke-linejoin="round" fill-opacity="0" stroke="rgb(18,19,48)" stroke-opacity="1" stroke-width="2" d=" M-32.33300018310547,-0.382999986410141 C-32.33300018310547,-0.382999986410141 -0.0010000000474974513,18.29400062561035 -0.0010000000474974513,18.29400062561035 C-0.0010000000474974513,18.29400062561035 32.33300018310547,-0.382999986410141 32.33300018310547,-0.382999986410141 C32.33300018310547,-0.382999986410141 -0.0010000000474974513,-18.29400062561035 -0.0010000000474974513,-18.29400062561035 C-0.0010000000474974513,-18.29400062561035 -32.33300018310547,-0.382999986410141 -32.33300018310547,-0.382999986410141z"></path></g><g opacity="1" transform="matrix(1,0,0,1,36.77199935913086,32.112998962402344)"><path fill="rgb(255,204,51)" fill-opacity="1" d=" M-5.211999893188477,-3.822000026702881 C-5.211999893188477,-3.822000026702881 -5.211999893188477,0.5789999961853027 -5.211999893188477,0.5789999961853027 C-5.211999893188477,2.369999885559082 -2.880000114440918,3.822999954223633 -0.0010000000474974513,3.822999954223633 C2.878000020980835,3.822999954223633 5.211999893188477,2.369999885559082 5.211999893188477,0.5789999961853027 C5.211999893188477,0.5789999961853027 5.211999893188477,-3.822000026702881 5.211999893188477,-3.822000026702881 C5.211999893188477,-3.822000026702881 -5.211999893188477,-3.822000026702881 -5.211999893188477,-3.822000026702881z"></path><path stroke-linecap="round" stroke-linejoin="round" fill-opacity="0" stroke="rgb(18,19,48)" stroke-opacity="1" stroke-width="2" d=" M-5.211999893188477,-3.822000026702881 C-5.211999893188477,-3.822000026702881 -5.211999893188477,0.5789999961853027 -5.211999893188477,0.5789999961853027 C-5.211999893188477,2.369999885559082 -2.880000114440918,3.822999954223633 -0.0010000000474974513,3.822999954223633 C2.878000020980835,3.822999954223633 5.211999893188477,2.369999885559082 5.211999893188477,0.5789999961853027 C5.211999893188477,0.5789999961853027 5.211999893188477,-3.822000026702881 5.211999893188477,-3.822000026702881 C5.211999893188477,-3.822000026702881 -5.211999893188477,-3.822000026702881 -5.211999893188477,-3.822000026702881z"></path></g><g opacity="1" transform="matrix(1,0,0,1,36.770999908447266,28.291000366210938)"><path fill="rgb(255,204,51)" fill-opacity="1" d=" M5.2129998207092285,0 C5.2129998207092285,1.7910000085830688 2.878999948501587,3.243000030517578 0.0010000000474974513,3.243000030517578 C-2.878000020980835,3.243000030517578 -5.2129998207092285,1.7910000085830688 -5.2129998207092285,0 C-5.2129998207092285,-1.7920000553131104 -2.878000020980835,-3.243000030517578 0.0010000000474974513,-3.243000030517578 C2.878999948501587,-3.243000030517578 5.2129998207092285,-1.7920000553131104 5.2129998207092285,0z"></path><path stroke-linecap="round" stroke-linejoin="round" fill-opacity="0" stroke="rgb(18,19,48)" stroke-opacity="1" stroke-width="2" d=" M5.2129998207092285,0 C5.2129998207092285,1.7910000085830688 2.878999948501587,3.243000030517578 0.0010000000474974513,3.243000030517578 C-2.878000020980835,3.243000030517578 -5.2129998207092285,1.7910000085830688 -5.2129998207092285,0 C-5.2129998207092285,-1.7920000553131104 -2.878000020980835,-3.243000030517578 0.0010000000474974513,-3.243000030517578 C2.878999948501587,-3.243000030517578 5.2129998207092285,-1.7920000553131104 5.2129998207092285,0z"></path></g><g opacity="1" transform="matrix(1,0,0,1,53.5,22.84000015258789)"><path fill="rgb(255,204,51)" fill-opacity="1" d=" M-5.211999893188477,-3.822999954223633 C-5.211999893188477,-3.822999954223633 -5.211999893188477,0.5789999961853027 -5.211999893188477,0.5789999961853027 C-5.211999893188477,2.371000051498413 -2.878000020980835,3.822999954223633 0.0010000000474974513,3.822999954223633 C2.878999948501587,3.822999954223633 5.211999893188477,2.371000051498413 5.211999893188477,0.5789999961853027 C5.211999893188477,0.5789999961853027 5.211999893188477,-3.822999954223633 5.211999893188477,-3.822999954223633 C5.211999893188477,-3.822999954223633 -5.211999893188477,-3.822999954223633 -5.211999893188477,-3.822999954223633z"></path><path stroke-linecap="round" stroke-linejoin="round" fill-opacity="0" stroke="rgb(18,19,48)" stroke-opacity="1" stroke-width="2" d=" M-5.211999893188477,-3.822999954223633 C-5.211999893188477,-3.822999954223633 -5.211999893188477,0.5789999961853027 -5.211999893188477,0.5789999961853027 C-5.211999893188477,2.371000051498413 -2.878000020980835,3.822999954223633 0.0010000000474974513,3.822999954223633 C2.878999948501587,3.822999954223633 5.211999893188477,2.371000051498413 5.211999893188477,0.5789999961853027 C5.211999893188477,0.5789999961853027 5.211999893188477,-3.822999954223633 5.211999893188477,-3.822999954223633 C5.211999893188477,-3.822999954223633 -5.211999893188477,-3.822999954223633 -5.211999893188477,-3.822999954223633z"></path></g><g opacity="1" transform="matrix(1,0,0,1,53.5,19.01799964904785)"><path fill="rgb(255,204,51)" fill-opacity="1" d=" M5.2129998207092285,0 C5.2129998207092285,1.7910000085830688 2.878999948501587,3.243000030517578 0.0010000000474974513,3.243000030517578 C-2.878000020980835,3.243000030517578 -5.2129998207092285,1.7910000085830688 -5.2129998207092285,0 C-5.2129998207092285,-1.7920000553131104 -2.878000020980835,-3.243000030517578 0.0010000000474974513,-3.243000030517578 C2.878999948501587,-3.243000030517578 5.2129998207092285,-1.7920000553131104 5.2129998207092285,0z"></path><path stroke-linecap="round" stroke-linejoin="round" fill-opacity="0" stroke="rgb(18,19,48)" stroke-opacity="1" stroke-width="2" d=" M5.2129998207092285,0 C5.2129998207092285,1.7910000085830688 2.878999948501587,3.243000030517578 0.0010000000474974513,3.243000030517578 C-2.878000020980835,3.243000030517578 -5.2129998207092285,1.7910000085830688 -5.2129998207092285,0 C-5.2129998207092285,-1.7920000553131104 -2.878000020980835,-3.243000030517578 0.0010000000474974513,-3.243000030517578 C2.878999948501587,-3.243000030517578 5.2129998207092285,-1.7920000553131104 5.2129998207092285,0z"></path></g><g opacity="1" transform="matrix(1,0,0,1,21.32200050354004,22.84000015258789)"><path fill="rgb(255,204,51)" fill-opacity="1" d=" M-5.211999893188477,-3.822999954223633 C-5.211999893188477,-3.822999954223633 -5.211999893188477,0.5789999961853027 -5.211999893188477,0.5789999961853027 C-5.211999893188477,2.371000051498413 -2.878000020980835,3.822999954223633 0,3.822999954223633 C2.878999948501587,3.822999954223633 5.211999893188477,2.371000051498413 5.211999893188477,0.5789999961853027 C5.211999893188477,0.5789999961853027 5.211999893188477,-3.822999954223633 5.211999893188477,-3.822999954223633 C5.211999893188477,-3.822999954223633 -5.211999893188477,-3.822999954223633 -5.211999893188477,-3.822999954223633z"></path><path stroke-linecap="round" stroke-linejoin="round" fill-opacity="0" stroke="rgb(18,19,48)" stroke-opacity="1" stroke-width="2" d=" M-5.211999893188477,-3.822999954223633 C-5.211999893188477,-3.822999954223633 -5.211999893188477,0.5789999961853027 -5.211999893188477,0.5789999961853027 C-5.211999893188477,2.371000051498413 -2.878000020980835,3.822999954223633 0,3.822999954223633 C2.878999948501587,3.822999954223633 5.211999893188477,2.371000051498413 5.211999893188477,0.5789999961853027 C5.211999893188477,0.5789999961853027 5.211999893188477,-3.822999954223633 5.211999893188477,-3.822999954223633 C5.211999893188477,-3.822999954223633 -5.211999893188477,-3.822999954223633 -5.211999893188477,-3.822999954223633z"></path></g><g opacity="1" transform="matrix(1,0,0,1,21.322999954223633,19.01799964904785)"><path fill="rgb(255,204,51)" fill-opacity="1" d=" M5.211999893188477,0 C5.211999893188477,1.7910000085830688 2.878999948501587,3.243000030517578 0,3.243000030517578 C-2.878999948501587,3.243000030517578 -5.211999893188477,1.7910000085830688 -5.211999893188477,0 C-5.211999893188477,-1.7920000553131104 -2.878999948501587,-3.243000030517578 0,-3.243000030517578 C2.878999948501587,-3.243000030517578 5.211999893188477,-1.7920000553131104 5.211999893188477,0z"></path><path stroke-linecap="round" stroke-linejoin="round" fill-opacity="0" stroke="rgb(18,19,48)" stroke-opacity="1" stroke-width="2" d=" M5.211999893188477,0 C5.211999893188477,1.7910000085830688 2.878999948501587,3.243000030517578 0,3.243000030517578 C-2.878999948501587,3.243000030517578 -5.211999893188477,1.7910000085830688 -5.211999893188477,0 C-5.211999893188477,-1.7920000553131104 -2.878999948501587,-3.243000030517578 0,-3.243000030517578 C2.878999948501587,-3.243000030517578 5.211999893188477,-1.7920000553131104 5.211999893188477,0z"></path></g><g opacity="1" transform="matrix(1,0,0,1,38.051998138427734,13.567999839782715)"><path fill="rgb(255,204,51)" fill-opacity="1" d=" M-5.211999893188477,-3.822999954223633 C-5.211999893188477,-3.822999954223633 -5.211999893188477,0.5789999961853027 -5.211999893188477,0.5789999961853027 C-5.211999893188477,2.371000051498413 -2.880000114440918,3.822999954223633 -0.0010000000474974513,3.822999954223633 C2.878000020980835,3.822999954223633 5.2129998207092285,2.371000051498413 5.2129998207092285,0.5789999961853027 C5.2129998207092285,0.5789999961853027 5.2129998207092285,-3.822999954223633 5.2129998207092285,-3.822999954223633 C5.2129998207092285,-3.822999954223633 -5.211999893188477,-3.822999954223633 -5.211999893188477,-3.822999954223633z"></path><path stroke-linecap="round" stroke-linejoin="round" fill-opacity="0" stroke="rgb(18,19,48)" stroke-opacity="1" stroke-width="2" d=" M-5.211999893188477,-3.822999954223633 C-5.211999893188477,-3.822999954223633 -5.211999893188477,0.5789999961853027 -5.211999893188477,0.5789999961853027 C-5.211999893188477,2.371000051498413 -2.880000114440918,3.822999954223633 -0.0010000000474974513,3.822999954223633 C2.878000020980835,3.822999954223633 5.2129998207092285,2.371000051498413 5.2129998207092285,0.5789999961853027 C5.2129998207092285,0.5789999961853027 5.2129998207092285,-3.822999954223633 5.2129998207092285,-3.822999954223633 C5.2129998207092285,-3.822999954223633 -5.211999893188477,-3.822999954223633 -5.211999893188477,-3.822999954223633z"></path></g><g opacity="1" transform="matrix(1,0,0,1,38.051998138427734,9.744999885559082)"><path fill="rgb(255,204,51)" fill-opacity="1" d=" M5.2129998207092285,0 C5.2129998207092285,1.7920000553131104 2.878999948501587,3.243000030517578 0.0010000000474974513,3.243000030517578 C-2.878000020980835,3.243000030517578 -5.2129998207092285,1.7920000553131104 -5.2129998207092285,0 C-5.2129998207092285,-1.7910000085830688 -2.878000020980835,-3.243000030517578 0.0010000000474974513,-3.243000030517578 C2.878999948501587,-3.243000030517578 5.2129998207092285,-1.7910000085830688 5.2129998207092285,0z"></path><path stroke-linecap="round" stroke-linejoin="round" fill-opacity="0" stroke="rgb(18,19,48)" stroke-opacity="1" stroke-width="2" d=" M5.2129998207092285,0 C5.2129998207092285,1.7920000553131104 2.878999948501587,3.243000030517578 0.0010000000474974513,3.243000030517578 C-2.878000020980835,3.243000030517578 -5.2129998207092285,1.7920000553131104 -5.2129998207092285,0 C-5.2129998207092285,-1.7910000085830688 -2.878000020980835,-3.243000030517578 0.0010000000474974513,-3.243000030517578 C2.878999948501587,-3.243000030517578 5.2129998207092285,-1.7910000085830688 5.2129998207092285,0z"></path></g></g><g transform="matrix(6,0,0,6,288.00201416015625,275.76385498046875)" opacity="1" style="display: block;"><g opacity="1" transform="matrix(1,0,0,1,21.166000366210938,38.49599838256836)"><path fill="rgb(15,204,206)" fill-opacity="1" d=" M-16.16699981689453,-15.585000038146973 C-16.16699981689453,-15.585000038146973 -16.16699981689453,-3.0940001010894775 -16.16699981689453,-3.0940001010894775 C-16.16699981689453,-3.0940001010894775 16.16699981689453,15.585000038146973 16.16699981689453,15.585000038146973 C16.16699981689453,15.585000038146973 16.16699981689453,3.0940001010894775 16.16699981689453,3.0940001010894775 C16.16699981689453,3.0940001010894775 -16.16699981689453,-15.585000038146973 -16.16699981689453,-15.585000038146973z"></path><path stroke-linecap="round" stroke-linejoin="round" fill-opacity="0" stroke="rgb(18,19,48)" stroke-opacity="1" stroke-width="2" d=" M-16.16699981689453,-15.585000038146973 C-16.16699981689453,-15.585000038146973 -16.16699981689453,-3.0940001010894775 -16.16699981689453,-3.0940001010894775 C-16.16699981689453,-3.0940001010894775 16.16699981689453,15.585000038146973 16.16699981689453,15.585000038146973 C16.16699981689453,15.585000038146973 16.16699981689453,3.0940001010894775 16.16699981689453,3.0940001010894775 C16.16699981689453,3.0940001010894775 -16.16699981689453,-15.585000038146973 -16.16699981689453,-15.585000038146973z"></path></g><g opacity="1" transform="matrix(1,0,0,1,53.5,38.49599838256836)"><path fill="rgb(15,204,206)" fill-opacity="1" d=" M16.16699981689453,-15.585000038146973 C16.16699981689453,-15.585000038146973 16.16699981689453,-3.0940001010894775 16.16699981689453,-3.0940001010894775 C16.16699981689453,-3.0940001010894775 -16.16699981689453,15.585000038146973 -16.16699981689453,15.585000038146973 C-16.16699981689453,15.585000038146973 -16.16699981689453,3.0940001010894775 -16.16699981689453,3.0940001010894775 C-16.16699981689453,3.0940001010894775 16.16699981689453,-15.585000038146973 16.16699981689453,-15.585000038146973z"></path><path stroke-linecap="round" stroke-linejoin="round" fill-opacity="0" stroke="rgb(18,19,48)" stroke-opacity="1" stroke-width="2" d=" M16.16699981689453,-15.585000038146973 C16.16699981689453,-15.585000038146973 16.16699981689453,-3.0940001010894775 16.16699981689453,-3.0940001010894775 C16.16699981689453,-3.0940001010894775 -16.16699981689453,15.585000038146973 -16.16699981689453,15.585000038146973 C-16.16699981689453,15.585000038146973 -16.16699981689453,3.0940001010894775 -16.16699981689453,3.0940001010894775 C-16.16699981689453,3.0940001010894775 16.16699981689453,-15.585000038146973 16.16699981689453,-15.585000038146973z"></path></g><g opacity="1" transform="matrix(1,0,0,1,37.33300018310547,23.295000076293945)"><path fill="rgb(15,204,206)" fill-opacity="1" d=" M-32.33300018310547,-0.382999986410141 C-32.33300018310547,-0.382999986410141 -0.0010000000474974513,18.29400062561035 -0.0010000000474974513,18.29400062561035 C-0.0010000000474974513,18.29400062561035 32.33300018310547,-0.382999986410141 32.33300018310547,-0.382999986410141 C32.33300018310547,-0.382999986410141 -0.0010000000474974513,-18.29400062561035 -0.0010000000474974513,-18.29400062561035 C-0.0010000000474974513,-18.29400062561035 -32.33300018310547,-0.382999986410141 -32.33300018310547,-0.382999986410141z"></path><path stroke-linecap="round" stroke-linejoin="round" fill-opacity="0" stroke="rgb(18,19,48)" stroke-opacity="1" stroke-width="2" d=" M-32.33300018310547,-0.382999986410141 C-32.33300018310547,-0.382999986410141 -0.0010000000474974513,18.29400062561035 -0.0010000000474974513,18.29400062561035 C-0.0010000000474974513,18.29400062561035 32.33300018310547,-0.382999986410141 32.33300018310547,-0.382999986410141 C32.33300018310547,-0.382999986410141 -0.0010000000474974513,-18.29400062561035 -0.0010000000474974513,-18.29400062561035 C-0.0010000000474974513,-18.29400062561035 -32.33300018310547,-0.382999986410141 -32.33300018310547,-0.382999986410141z"></path></g><g opacity="1" transform="matrix(0.18000000715255737,0,0,0.18000000715255737,37.79399871826172,22.908000946044922)"><path fill="rgb(255,255,255)" fill-opacity="1" d=" M54.047000885009766,-38.6619987487793 C57.28799819946289,-38.0880012512207 59.1150016784668,-35.465999603271484 58.12900161743164,-32.805999755859375 C57.141998291015625,-30.14699935913086 53.7130012512207,-28.45599937438965 50.47100067138672,-29.030000686645508 C40.582000732421875,-30.7810001373291 25.010000228881836,-20.72100067138672 5.001999855041504,2.4549999237060547 C-17.812000274658203,28.881999969482422 -36.94900131225586,41.638999938964844 -53.73699951171875,39.71500015258789 C-57.042999267578125,39.33700180053711 -59.1150016784668,36.84700012207031 -58.367000579833984,34.152000427246094 C-57.61899948120117,31.458999633789062 -54.33399963378906,29.58099937438965 -51.02799987792969,29.959999084472656 C-40.810001373291016,31.131000518798828 -24.989999771118164,20.584999084472656 -4.8979997634887695,-2.688999891281128 C18,-29.214000701904297 37.233001708984375,-41.63999938964844 54.047000885009766,-38.6619987487793z"></path><path stroke-linecap="butt" stroke-linejoin="miter" fill-opacity="0" stroke-miterlimit="10" stroke="rgb(255,255,255)" stroke-opacity="1" stroke-width="8.157" d=" M54.047000885009766,-38.6619987487793 C57.28799819946289,-38.0880012512207 59.1150016784668,-35.465999603271484 58.12900161743164,-32.805999755859375 C57.141998291015625,-30.14699935913086 53.7130012512207,-28.45599937438965 50.47100067138672,-29.030000686645508 C40.582000732421875,-30.7810001373291 25.010000228881836,-20.72100067138672 5.001999855041504,2.4549999237060547 C-17.812000274658203,28.881999969482422 -36.94900131225586,41.638999938964844 -53.73699951171875,39.71500015258789 C-57.042999267578125,39.33700180053711 -59.1150016784668,36.84700012207031 -58.367000579833984,34.152000427246094 C-57.61899948120117,31.458999633789062 -54.33399963378906,29.58099937438965 -51.02799987792969,29.959999084472656 C-40.810001373291016,31.131000518798828 -24.989999771118164,20.584999084472656 -4.8979997634887695,-2.688999891281128 C18,-29.214000701904297 37.233001708984375,-41.63999938964844 54.047000885009766,-38.6619987487793z"></path></g></g></g></svg>