<svg xmlns="http://www.w3.org/2000/svg" xmlns:xlink="http://www.w3.org/1999/xlink" viewBox="0 0 2210 1232" width="2210" height="1232" preserveAspectRatio="xMidYMid meet" style="width: 100%; height: 100%; transform: translate3d(0px, 0px, 0px); content-visibility: visible;"><defs><clipPath id="__lottie_element_7"><rect width="2210" height="1232" x="0" y="0"></rect></clipPath></defs><g clip-path="url(#__lottie_element_7)"><g transform="matrix(1.333299994468689,0,0,1.333299994468689,0,0)" opacity="1" style="display: block;"><g opacity="1" transform="matrix(1,0,0,1,0,0)"><g opacity="1" transform="matrix(1,0,0,1,0,0)"><path fill="rgb(158,255,239)" fill-opacity="1" d=" M831.010009765625,316.3299865722656 C825.5599975585938,311.1199951171875 821.47998046875,314.1600036621094 820.1199951171875,316.3299865722656 C820.1199951171875,369.44000244140625 774.719970703125,381.8399963378906 752.02001953125,381.4100036621094 C746.5800170898438,386.6199951171875 749.75,391.3900146484375 752.02001953125,393.1199951171875 C804.3200073242188,393.1199951171875 819.2100219726562,436.510009765625 820.1199951171875,458.20001220703125 C825.5700073242188,463.4100036621094 829.6500244140625,460.3699951171875 831.010009765625,458.20001220703125 C831.010009765625,408.2200012207031 876.4000244140625,393.989990234375 899.0999755859375,393.1199951171875 C904.5499877929688,387.9200134277344 901.3599853515625,383.1400146484375 899.0999755859375,381.4100036621094 C844.906005859375,381.4100036621094 831.1489868164062,338.4580078125 831.010986328125,316.6610107421875"></path></g><g opacity="1" transform="matrix(1,0,0,1,0,0)"><path fill="rgb(255,147,173)" fill-opacity="1" d=" M324.8599853515625,482.1700134277344 C319.3800048828125,476.9700012207031 315.2699890136719,480 313.8999938964844,482.1700134277344 C313.8999938964844,535.280029296875 268.239990234375,547.6799926757812 245.41000366210938,547.25 C239.92999267578125,552.4600219726562 243.1300048828125,557.22998046875 245.41000366210938,558.9600219726562 C298.010009765625,558.9600219726562 312.989990234375,602.3400268554688 313.8999938964844,624.0399780273438 C319.3800048828125,629.239990234375 323.489990234375,626.2100219726562 324.8599853515625,624.0399780273438 C324.8599853515625,574.0599975585938 370.5299987792969,559.8300170898438 393.3599853515625,558.9600219726562 C398.8399963378906,553.75 395.6400146484375,548.97998046875 393.3599853515625,547.25 C338.8380126953125,547.25 325,504.3089904785156 324.8609924316406,482.50201416015625"></path></g><g opacity="1" transform="matrix(1,0,0,1,0,0)"><path fill="rgb(242,209,114)" fill-opacity="1" d=" M1255.800048828125,11.84000015258789 C1255.800048828125,11.84000015258789 1255.800048828125,0 1255.800048828125,0 C1255.800048828125,0 1420,0 1420,0 C1420,0 1420,11.84000015258789 1420,11.84000015258789 C1420,11.84000015258789 1263.0489501953125,11.84000015258789 1256.0419921875,11.84000015258789"></path></g><g opacity="1" transform="matrix(1,0,0,1,0,0)"><path fill="rgb(242,209,114)" fill-opacity="1" d=" M1264.050048828125,31.360000610351562 C1263.72998046875,26.6200008392334 1262.989990234375,21.8799991607666 1262.6600341796875,20.170000076293945 C1262.6600341796875,20.170000076293945 1222.719970703125,20.170000076293945 1222.719970703125,20.170000076293945 C1219.9100341796875,20.760000228881836 1219.2099609375,24.559999465942383 1219.2099609375,26.3799991607666 C1232.72998046875,93.2699966430664 1275.3800048828125,117.11000061035156 1295.010009765625,120.68000030517578 C1295.010009765625,120.68000030517578 1285.5400390625,105.66000366210938 1285.5400390625,105.66000366210938 C1253,90.5 1236.68994140625,49.810001373291016 1232.5999755859375,31.360000610351562 C1232.5999755859375,31.360000610351562 1260.970947265625,31.360000610351562 1263.8199462890625,31.360000610351562"></path></g><g opacity="1" transform="matrix(1,0,0,1,0,0)"><path fill="rgb(242,209,114)" fill-opacity="1" d=" M1411.25,31.360000610351562 C1411.9000244140625,29.329999923706055 1412.719970703125,23.059999465942383 1413.050048828125,20.170000076293945 C1413.050048828125,20.170000076293945 1451.280029296875,20.170000076293945 1451.280029296875,20.170000076293945 C1455.530029296875,22.059999465942383 1456.260009765625,25.100000381469727 1456.0999755859375,26.3799991607666 C1440.739990234375,95.55000305175781 1399.280029296875,118.06999969482422 1380.4599609375,120.68000030517578 C1380.4599609375,120.68000030517578 1389.68994140625,105.66000366210938 1389.68994140625,105.66000366210938 C1423.1500244140625,89.38999938964844 1439.02001953125,49.349998474121094 1442.780029296875,31.360000610351562 C1442.780029296875,31.360000610351562 1414.3289794921875,31.360000610351562 1411.47900390625,31.360000610351562"></path></g><g opacity="1" transform="matrix(1,0,0,1,0,0)"><path fill="rgb(242,209,114)" fill-opacity="1" d=" M1404.3900146484375,206.66000366210938 C1404.3900146484375,206.66000366210938 1270.4300537109375,206.66000366210938 1270.4300537109375,206.66000366210938 C1270.4300537109375,206.66000366210938 1270.4300537109375,214.99000549316406 1270.4300537109375,214.99000549316406 C1270.4300537109375,214.99000549316406 1404.3900146484375,214.99000549316406 1404.3900146484375,214.99000549316406 C1404.3900146484375,214.99000549316406 1404.3900146484375,208.12399291992188 1404.3900146484375,206.85899353027344"></path></g><g opacity="1" transform="matrix(1,0,0,1,0,0)"><path fill="rgb(244,186,28)" fill-opacity="1" d=" M1261.6099853515625,12.15999984741211 C1261.6099853515625,12.15999984741211 1414.0400390625,12.15999984741211 1414.0400390625,12.15999984741211 C1410.1600341796875,56.439998626708984 1390.4100341796875,142.8300018310547 1342.199951171875,145.7100067138672 C1342.199951171875,145.7100067138672 1350.280029296875,145.7100067138672 1350.280029296875,145.7100067138672 C1352.3499755859375,146.72000122070312 1355.25,149.41000366210938 1350.280029296875,152.0399932861328 C1350.280029296875,152.0399932861328 1346.5999755859375,152.0399932861328 1346.5999755859375,152.0399932861328 C1350.97998046875,185.49000549316406 1375.0699462890625,202.38999938964844 1386.5699462890625,206.66000366210938 C1386.5699462890625,206.66000366210938 1289.7099609375,206.66000366210938 1289.7099609375,206.66000366210938 C1320.8299560546875,190.75999450683594 1328.300048828125,163.6199951171875 1328.1300048828125,152.0399932861328 C1328.1300048828125,152.0399932861328 1325.1099853515625,152.0399932861328 1325.1099853515625,152.0399932861328 C1322.7900390625,150.9199981689453 1319.550048828125,148.0800018310547 1325.1099853515625,145.7100067138672 C1325.1099853515625,145.7100067138672 1330.3499755859375,145.7100067138672 1330.3499755859375,145.7100067138672 C1308.3680419921875,142.98500061035156 1272.1839599609375,114.33799743652344 1261.6639404296875,12.684000015258789"></path></g><g opacity="1" transform="matrix(1,0,0,1,0,0)"><path fill="rgb(244,186,28)" fill-opacity="1" d=" M1263.22998046875,225.77000427246094 C1263.22998046875,225.77000427246094 1263.22998046875,286.5899963378906 1263.22998046875,286.5899963378906 C1263.22998046875,286.5899963378906 1411.8199462890625,286.5899963378906 1411.8199462890625,286.5899963378906 C1411.8199462890625,286.5899963378906 1411.8199462890625,225.77000427246094 1411.8199462890625,225.77000427246094 C1411.8199462890625,225.77000427246094 1270.7850341796875,225.77000427246094 1263.52099609375,225.77000427246094"></path></g><g opacity="1" transform="matrix(1,0,0,1,0,0)"><path fill="rgb(232,168,0)" fill-opacity="1" d=" M1263.3199462890625,286.5899963378906 C1263.3199462890625,286.5899963378906 1256.6199951171875,300.79998779296875 1256.6199951171875,300.79998779296875 C1256.6199951171875,300.79998779296875 1418.530029296875,300.79998779296875 1418.530029296875,300.79998779296875 C1418.530029296875,300.79998779296875 1411.989990234375,286.5899963378906 1411.989990234375,286.5899963378906 C1411.989990234375,286.5899963378906 1270.113037109375,286.5899963378906 1263.5550537109375,286.5899963378906"></path></g><g opacity="1" transform="matrix(1,0,0,1,0,0)"><path fill="rgb(68,66,94)" fill-opacity="1" d=" M1418.530029296875,300.79998779296875 C1418.530029296875,300.79998779296875 1236.68994140625,300.79998779296875 1236.68994140625,300.79998779296875 C1236.68994140625,300.79998779296875 1236.68994140625,313.4599914550781 1236.68994140625,313.4599914550781 C1236.68994140625,313.4599914550781 1437.6400146484375,313.4599914550781 1437.6400146484375,313.4599914550781 C1437.6400146484375,313.4599914550781 1437.6400146484375,300.79998779296875 1437.6400146484375,300.79998779296875 C1437.6400146484375,300.79998779296875 1421.2559814453125,300.79998779296875 1418.8289794921875,300.79998779296875"></path></g><g opacity="1" transform="matrix(1,0,0,1,0,0)"><path fill="rgb(68,66,94)" fill-opacity="1" d=" M1414.9300537109375,214.91000366210938 C1414.9300537109375,214.91000366210938 1260.2099609375,214.91000366210938 1260.2099609375,214.91000366210938 C1260.2099609375,214.91000366210938 1260.2099609375,225.85000610351562 1260.2099609375,225.85000610351562 C1260.2099609375,225.85000610351562 1414.9300537109375,225.85000610351562 1414.9300537109375,225.85000610351562 C1414.9300537109375,225.85000610351562 1414.9300537109375,216.7220001220703 1414.9300537109375,215.14199829101562"></path></g><g opacity="1" transform="matrix(1,0,0,1,0,0)"><path fill="rgb(255,232,173)" fill-opacity="1" d=" M1340.8599853515625,28.709999084472656 C1337.6300048828125,25.6200008392334 1335.199951171875,27.420000076293945 1334.3900146484375,28.709999084472656 C1334.3900146484375,60.279998779296875 1307.489990234375,67.6500015258789 1294.0400390625,67.38999938964844 C1290.81005859375,70.4800033569336 1292.68994140625,73.33000183105469 1294.0400390625,74.36000061035156 C1325.0400390625,74.36000061035156 1333.8599853515625,100.13999938964844 1334.3900146484375,113.04000091552734 C1337.6199951171875,116.12999725341797 1340.050048828125,114.33000183105469 1340.8599853515625,113.04000091552734 C1340.8599853515625,83.33000183105469 1367.760009765625,74.87999725341797 1381.2099609375,74.36000061035156 C1384.43994140625,71.2699966430664 1382.56005859375,68.41999816894531 1381.2099609375,67.38999938964844 C1349.0830078125,67.38999938964844 1340.9420166015625,41.869998931884766 1340.8609619140625,28.906999588012695"></path></g><g opacity="1" transform="matrix(1,0,0,1,0,0)"><g opacity="1" transform="matrix(1,0,0,1,0,0)"><path fill="rgb(107,109,226)" fill-opacity="1" d=" M1017.8200073242188,328.4599914550781 C1017.8200073242188,320.1700134277344 1024.5400390625,313.4599914550781 1032.8199462890625,313.4599914550781 C1032.8199462890625,313.4599914550781 1642.5,313.4599914550781 1642.5,313.4599914550781 C1650.7900390625,313.4599914550781 1657.5,320.1700134277344 1657.5,328.4599914550781 C1657.5,328.4599914550781 1657.5,923.969970703125 1657.5,923.969970703125 C1657.5,923.969970703125 1017.8200073242188,923.969970703125 1017.8200073242188,923.969970703125 C1017.8200073242188,923.969970703125 1017.8200073242188,365.27301025390625 1017.8200073242188,330.18499755859375"></path></g></g><g opacity="1" transform="matrix(1,0,0,1,0,0)"><path fill="rgb(86,89,193)" fill-opacity="1" d=" M504.80999755859375,518.9000244140625 C504.80999755859375,510.6099853515625 511.5199890136719,503.8999938964844 519.8099975585938,503.8999938964844 C519.8099975585938,503.8999938964844 1130.4000244140625,503.8999938964844 1130.4000244140625,503.8999938964844 C1138.6800537109375,503.8999938964844 1145.4000244140625,510.6099853515625 1145.4000244140625,518.9000244140625 C1145.4000244140625,518.9000244140625 1145.4000244140625,923.969970703125 1145.4000244140625,923.969970703125 C1145.4000244140625,923.969970703125 504.80999755859375,923.969970703125 504.80999755859375,923.969970703125 C504.80999755859375,923.969970703125 504.80999755859375,546.8800048828125 504.80999755859375,520.3670043945312"></path></g><g opacity="1" transform="matrix(1,0,0,1,0,0)"><path fill="rgb(68,66,94)" fill-opacity="1" d=" M0,681.0999755859375 C0,672.8099975585938 6.710000038146973,666.0999755859375 15,666.0999755859375 C15,666.0999755859375 624.6699829101562,666.0999755859375 624.6699829101562,666.0999755859375 C632.9600219726562,666.0999755859375 639.6699829101562,672.8099975585938 639.6699829101562,681.0999755859375 C639.6699829101562,681.0999755859375 639.6699829101562,923.969970703125 639.6699829101562,923.969970703125 C639.6699829101562,923.969970703125 0,923.969970703125 0,923.969970703125 C0,923.969970703125 0,701.0150146484375 0,682.3419799804688"></path></g><g opacity="1" transform="matrix(1,0,0,1,0,0)"><path fill="rgb(86,89,193)" fill-opacity="1" d=" M328.8999938964844,752.7000122070312 C328.8999938964844,752.7000122070312 291.3299865722656,790.5 291.3299865722656,790.5 C291.3299865722656,790.5 296.7300109863281,812.5499877929688 296.7300109863281,812.5499877929688 C296.7300109863281,812.5499877929688 311.1300048828125,812.5499877929688 311.1300048828125,812.5499877929688 C330.92999267578125,812.5499877929688 341.95001220703125,819.75 341.95001220703125,832.7999877929688 C341.95001220703125,844.72998046875 332.7300109863281,852.1500244140625 319.67999267578125,852.1500244140625 C303.7099914550781,852.1500244140625 292.45001220703125,845.4000244140625 281.6499938964844,833.25 C281.6499938964844,833.25 257.79998779296875,855.97998046875 257.79998779296875,855.97998046875 C271.29998779296875,871.9500122070312 290.8800048828125,883.2000122070312 319.2300109863281,883.2000122070312 C354.3299865722656,883.2000122070312 375.92999267578125,861.3800048828125 375.92999267578125,831.4500122070312 C375.92999267578125,801.97998046875 355.2300109863281,790.719970703125 333.6300048828125,787.1199951171875 C333.6300048828125,787.1199951171875 373.45001220703125,749.0999755859375 373.45001220703125,749.0999755859375 C373.45001220703125,749.0999755859375 373.45001220703125,723 373.45001220703125,723 C373.45001220703125,723 267.0299987792969,723 267.0299987792969,723 C267.0299987792969,723 267.0299987792969,752.7000122070312 267.0299987792969,752.7000122070312 C267.0299987792969,752.7000122070312 322.40301513671875,752.7000122070312 328.3789978027344,752.7000122070312"></path></g><g opacity="1" transform="matrix(1,0,0,1,0,0)"><path fill="rgb(107,109,226)" fill-opacity="1" d=" M827.7999877929688,670.7999877929688 C840.1799926757812,670.7999877929688 848.9500122070312,678 848.9500122070312,691.27001953125 C848.9500122070312,704.3200073242188 841.2999877929688,712.8699951171875 821.72998046875,729.0700073242188 C821.72998046875,729.0700073242188 769.2999877929688,772.0499877929688 769.2999877929688,772.0499877929688 C769.2999877929688,772.0499877929688 769.2999877929688,799.5 769.2999877929688,799.5 C769.2999877929688,799.5 885.8599853515625,799.5 885.8599853515625,799.5 C885.8599853515625,799.5 885.8599853515625,769.5700073242188 885.8599853515625,769.5700073242188 C885.8599853515625,769.5700073242188 817.22998046875,769.5700073242188 817.22998046875,769.5700073242188 C817.22998046875,769.5700073242188 842.8800048828125,749.77001953125 842.8800048828125,749.77001953125 C870.780029296875,728.1699829101562 884.280029296875,714.8900146484375 884.280029296875,688.5700073242188 C884.280029296875,659.0999755859375 863.5700073242188,639.75 830.0499877929688,639.75 C801.9299926757812,639.75 786.8599853515625,651.22998046875 771.3300170898438,672.3800048828125 C771.3300170898438,672.3800048828125 795.6300048828125,691.9500122070312 795.6300048828125,691.9500122070312 C807.166015625,677.7509765625 815.4169921875,670.989990234375 827.2919921875,670.8040161132812"></path></g><g opacity="1" transform="matrix(1,0,0,1,0,0)"><path fill="rgb(244,186,28)" fill-opacity="1" d=" M1295.5699462890625,559.1199951171875 C1295.5699462890625,559.1199951171875 1302.77001953125,587.47998046875 1302.77001953125,587.47998046875 C1302.77001953125,587.47998046875 1330.2099609375,580.72998046875 1330.2099609375,580.72998046875 C1330.2099609375,580.72998046875 1330.2099609375,704.25 1330.2099609375,704.25 C1330.2099609375,704.25 1364.4100341796875,704.25 1364.4100341796875,704.25 C1364.4100341796875,704.25 1364.4100341796875,545.6199951171875 1364.4100341796875,545.6199951171875 C1364.4100341796875,545.6199951171875 1340.7900390625,545.6199951171875 1340.7900390625,545.6199951171875 C1340.7900390625,545.6199951171875 1299.7740478515625,557.864990234375 1295.8680419921875,559.031005859375"></path></g></g></g></g></svg>